<?xml version="1.0" standalone="no"?>
<!DOCTYPE svg PUBLIC "-//W3C//DTD SVG 1.1//EN" "http://www.w3.org/Graphics/SVG/1.1/DTD/svg11.dtd" >
<svg xmlns="http://www.w3.org/2000/svg" xmlns:xlink="http://www.w3.org/1999/xlink" version="1.1">
<metadata>
Created by FontForge 20201107 at Fri Sep  7 16:45:05 2018
 By 
Copyright 2018 The Krub Project Authors (https://github.com/cadsondemak/Krub)
</metadata>
<defs>
<font id="Krub-Bold" horiz-adv-x="0" >
  <font-face 
    font-family="Krub"
    font-weight="700"
    font-stretch="normal"
    units-per-em="1000"
    panose-1="0 0 8 0 0 0 0 0 0 0"
    ascent="800"
    descent="-200"
    x-height="550"
    cap-height="700"
    bbox="-748 -507 1353 1232"
    underline-thickness="50"
    underline-position="-100"
    unicode-range="U+000D-FB02"
  />
<missing-glyph horiz-adv-x="400" 
 />
    <glyph glyph-name="fi" unicode="fi" horiz-adv-x="653" 
d="M247.5 673q-14.5 -21 -14.5 -60v-63h104v-92h-104v-458h-148v458h-83v92h83v64q0 85 44.5 131.5t127.5 46.5q57 0 91.5 -18.5t34.5 -48.5q0 -13 -4 -25.5t-11 -20.5q-34 15 -79 15q-27 0 -41.5 -21zM435 550h148v-550h-148v550zM424 729v15q0 78 78 78h14q78 0 78 -78
v-15q0 -78 -78 -78h-14q-78 0 -78 78z" />
    <glyph glyph-name="fl" unicode="fl" horiz-adv-x="633" 
d="M247.5 673q-14.5 -21 -14.5 -60v-63h104v-92h-104v-458h-148v458h-83v92h83v64q0 85 44.5 131.5t127.5 46.5q57 0 91.5 -18.5t34.5 -48.5q0 -13 -4 -25.5t-11 -20.5q-34 15 -79 15q-27 0 -41.5 -21zM425 791h148v-791h-148v791z" />
    <glyph glyph-name="uni0E240E45" unicode="&#xe24;&#xe45;" horiz-adv-x="936" 
d="M415 383q0 51 -30 81t-93 30q-38 0 -65 -9.5t-40.5 -22.5t-13.5 -24q0 -18 14 -29t30 -11q11 0 31 6q15 5 25 5q12 0 27.5 -28t15.5 -48q0 -13 -9 -13q-57 0 -78.5 -21.5t-21.5 -77.5v-114q0 -20 9 -32t28 -12q17 0 25.5 9.5t8.5 26.5q0 15 -9.5 23t-26.5 8q-7 0 -21 -2
q-4 8 -4 17q0 16 14 27.5t36 11.5q37 0 58 -20.5t21 -60.5q0 -50 -34.5 -80t-99.5 -30q-69 0 -109.5 36t-40.5 97v95q0 39 16.5 69t42.5 51q-33 15 -57 40.5t-24 53.5q0 33 28.5 68.5t85.5 59t138 23.5q133 0 203 -57q91 57 183 57q101 0 154.5 -48t53.5 -139v-619h-145v622
q0 81 -75 81q-56 0 -112 -46q6 -25 6 -54v-603h-145v603z" />
    <glyph glyph-name="uni0E260E45" unicode="&#xe26;&#xe45;" horiz-adv-x="936" 
d="M420 383q0 111 -118 111q-38 0 -65 -9.5t-40.5 -22.5t-13.5 -24q0 -19 13.5 -28t30.5 -9q11 0 31 6q15 5 25 5q12 0 27.5 -28t15.5 -48q0 -13 -9 -13q-80 0 -80 -61q0 -23 10 -61q7 -23 10 -39t3 -40q0 -60 -34 -94.5t-101 -34.5q-64 0 -94.5 26t-30.5 69q0 36 21.5 57
t51.5 21q36 0 36 -40h-14q-14 0 -23 -8.5t-9 -22.5t8.5 -23t22.5 -9q16 0 24 10t8 26t-3.5 30.5t-11.5 36.5q-9 28 -14 49t-5 46q0 26 14 48t41 36q-42 11 -69.5 35t-27.5 55q0 33 28.5 68.5t85.5 59t138 23.5q129 0 198 -54q87 54 178 54q101 0 154.5 -48t53.5 -139v-619
h-145v622q0 81 -75 81q-52 0 -108 -43q7 -24 7 -57v-603h-145v603z" />
    <glyph glyph-name=".notdef" horiz-adv-x="400" 
 />
    <glyph glyph-name=".null" 
 />
    <glyph glyph-name="nonmarkingreturn" unicode="&#xd;" horiz-adv-x="258" 
 />
    <glyph glyph-name="NULL" 
 />
    <glyph glyph-name="NULL" 
 />
    <glyph glyph-name="space" unicode=" " horiz-adv-x="258" 
 />
    <glyph glyph-name="exclam" unicode="!" horiz-adv-x="246" 
d="M40 700h166l-35 -474h-96zM38 72v15q0 78 78 78h14q78 0 78 -78v-15q0 -78 -78 -78h-14q-78 0 -78 78z" />
    <glyph glyph-name="quotedbl" unicode="&#x22;" horiz-adv-x="324" 
d="M12 737h131l-20 -232h-91zM181 737h131l-20 -232h-91z" />
    <glyph glyph-name="numbersign" unicode="#" horiz-adv-x="540" 
d="M433 413l-20 -128h76v-90h-91l-31 -195h-93l31 195h-110l-31 -195h-93l31 195h-77v90h92l20 128h-86v90h100l32 197h93l-32 -197h110l32 197h93l-32 -197h68v-90h-82zM340 413h-110l-20 -128h110z" />
    <glyph glyph-name="dollar" unicode="$" horiz-adv-x="609" 
d="M555 108.5q-30 -49.5 -85.5 -80t-128.5 -36.5v-112h-62v110q-113 5 -176.5 46t-63.5 111q0 35 29.5 55t83.5 21q5 -52 38 -84t89 -38v195l-2 1q-118 33 -173 84.5t-55 132.5q0 84 61 135.5t169 59.5v100h62v-100q87 -7 149 -52.5t86 -122.5q-17 -17 -47 -30t-53 -13
q-18 0 -28 7.5t-21 28.5q-16 32 -36 49t-50 22v-181q98 -32 150 -59.5t73 -59t21 -78.5q0 -62 -30 -111.5zM220.5 477q15.5 -19 58.5 -37v158q-74 -9 -74 -69q0 -33 15.5 -52zM427 191q0 28 -20 48t-66 37v-174q86 13 86 89z" />
    <glyph glyph-name="percent" unicode="%" horiz-adv-x="1010" 
d="M641 710h142l-404 -720h-142zM105 372q-48 50 -48 138q0 89 48 139.5t132 50.5t132 -50.5t48 -139.5q0 -88 -48 -138t-132 -50t-132 50zM284 429.5q15 25.5 15 81.5t-15 81.5t-47 25.5t-47 -24.5t-15 -77.5q0 -58 15 -85t47 -27t47 25.5zM638 40q-48 50 -48 138
q0 89 48 139.5t132 50.5t132 -50.5t48 -139.5q0 -88 -48 -138t-132 -50t-132 50zM817 97.5q15 25.5 15 81.5t-15 81.5t-47 25.5t-47 -24.5t-15 -77.5q0 -58 15 -85t47 -27t47 25.5z" />
    <glyph glyph-name="ampersand" unicode="&#x26;" horiz-adv-x="687" 
d="M606 110.5q23 -4.5 51 -5.5v-47q0 -31 -20.5 -49.5t-61.5 -18.5q-69 0 -131 40q-78 -40 -172 -40q-57 0 -113 21t-92.5 62t-36.5 98q0 48 15 82t43.5 59t76.5 55q-53 98 -53 164q0 55 25 95.5t66.5 62t91.5 21.5q74 0 126.5 -40t52.5 -115q0 -44 -20 -77.5t-53 -60
t-91 -63.5q71 -97 146 -160q32 74 27 184q126 0 126 -108q0 -33 -13.5 -70.5t-38.5 -72.5q26 -12 49 -16.5zM253 591.5q-19 -25.5 -19 -58.5q0 -27 7 -52t22 -54q54 34 76 61t22 71q0 27 -15 42.5t-44 15.5q-30 0 -49 -25.5zM207.5 111q32.5 -29 87.5 -29q38 0 71 14
q-86 89 -152 189q-24 -21 -31.5 -42.5t-7.5 -55.5q0 -47 32.5 -76z" />
    <glyph glyph-name="quotesingle" unicode="'" horiz-adv-x="223" 
d="M46 737h131l-20 -232h-91z" />
    <glyph glyph-name="parenleft" unicode="(" horiz-adv-x="390" 
d="M106.5 120.5q-36.5 124.5 -36.5 259.5q0 134 36.5 257.5t114.5 226.5h104q-50 -119 -77 -234.5t-27 -249.5q0 -135 27 -251t77 -235h-104q-78 102 -114.5 226.5z" />
    <glyph glyph-name="parenright" unicode=")" horiz-adv-x="390" 
d="M65 -106q50 119 77 235t27 251q0 134 -27 249.5t-77 234.5h104q78 -103 114.5 -226.5t36.5 -257.5q0 -135 -36.5 -259.5t-114.5 -226.5h-104z" />
    <glyph glyph-name="asterisk" unicode="*" horiz-adv-x="618" 
d="M134 563l120 128l-163 38l33 96l148 -75l-17 180h109l-14 -180l145 78l32 -94l-159 -43l116 -121l-87 -64l-86 147l-89 -147z" />
    <glyph glyph-name="plus" unicode="+" horiz-adv-x="600" 
d="M258 284h-208v80h208v214h84v-214h208v-80h-208v-214h-84v214z" />
    <glyph glyph-name="comma" unicode="," horiz-adv-x="308" 
d="M218 143.5q21 -21.5 21 -59.5v-19q0 -46 -12.5 -80t-41.5 -78q-17 -25 -32.5 -37.5t-33.5 -12.5q-28 0 -48 18q41 45 57.5 67.5t21.5 51.5h-10q-33 0 -52 21t-19 55v19q0 34 20 55t53 21h21q34 0 55 -21.5z" />
    <glyph glyph-name="hyphen" unicode="-" horiz-adv-x="480" 
d="M60 347h360v-80h-360v80z" />
    <glyph glyph-name="period" unicode="." horiz-adv-x="310" 
d="M70 72v15q0 78 78 78h14q78 0 78 -78v-15q0 -78 -78 -78h-14q-78 0 -78 78z" />
    <glyph glyph-name="slash" unicode="/" horiz-adv-x="334" 
d="M260 811h104l-290 -866h-104z" />
    <glyph glyph-name="zero" unicode="0" horiz-adv-x="620" 
d="M99.5 78.5q-69.5 90.5 -69.5 259.5q0 179 69.5 275.5t210.5 96.5t210.5 -96.5t69.5 -275.5q0 -169 -69.5 -259.5t-210.5 -90.5t-210.5 90.5zM413.5 154.5q28.5 64.5 28.5 183.5q0 131 -28.5 200.5t-103.5 69.5q-77 0 -104.5 -69t-27.5 -201q0 -120 28 -184t104 -64
q75 0 103.5 64.5z" />
    <glyph glyph-name="one" unicode="1" horiz-adv-x="459" 
d="M422 95v-95h-384v95h122v437q-42 -30 -83 -30q-31 0 -51.5 17t-20.5 54q0 20 5 39q47 5 110 28.5t100 59.5h85v-605h117z" />
    <glyph glyph-name="two" unicode="2" horiz-adv-x="537" 
d="M447.5 289.5q-68.5 -88.5 -214.5 -190.5h268v-99h-449v76q132 108 197.5 172t93.5 119t28 122q0 50 -26 81.5t-74 31.5q-51 0 -81.5 -39t-35.5 -110q-66 0 -93.5 23t-27.5 73q0 35 30.5 70.5t85 58t122.5 22.5q111 0 178 -57.5t67 -163.5q0 -101 -68.5 -189.5z" />
    <glyph glyph-name="three" unicode="3" horiz-adv-x="549" 
d="M476 313.5q38 -35.5 38 -114.5q0 -62 -32 -109t-92 -73t-141 -26q-109 0 -174.5 31t-65.5 90q0 34 26 55t53 21q29 -49 66.5 -73t97.5 -24q58 0 87.5 29t29.5 78q0 56 -25 84t-71 28l-32 -1q-22 -2 -35 -2q-21 0 -34.5 22.5t-13.5 45.5q0 29 17 29h69q52 0 77.5 26
t25.5 83q0 39 -22 64t-70 25t-75 -28.5t-42 -78.5q-53 0 -80.5 20.5t-27.5 55.5q0 28 27 58t78.5 50.5t121.5 20.5q112 0 173.5 -46.5t61.5 -135.5q0 -60 -31.5 -99.5t-80.5 -58.5q58 -11 96 -46.5z" />
    <glyph glyph-name="four" unicode="4" horiz-adv-x="522" 
d="M311 133h-291v66q99 131 152 249.5t63 251.5q20 2 28 2q57 0 87 -27t30 -75q0 -57 -38.5 -129t-93 -137t-101.5 -102h164v140h144v-140h61v-99h-61v-133h-144v133z" />
    <glyph glyph-name="five" unicode="5" horiz-adv-x="556" 
d="M451 412q63 -61 63 -177t-67.5 -180t-181.5 -64q-76 0 -125.5 19.5t-71.5 49.5t-22 61q0 35 19 56t59 25q15 -55 46 -84t85 -29q114 0 114 142q0 143 -111 143q-40 0 -66.5 -19.5t-45.5 -54.5l-99 17l24 383h415v-98h-292l-10 -152q40 23 98 23q106 0 169 -61z" />
    <glyph glyph-name="six" unicode="6" horiz-adv-x="577" 
d="M469.5 392.5q63.5 -56.5 63.5 -176.5q0 -106 -67.5 -164.5t-176.5 -58.5q-79 0 -137.5 35t-90 99.5t-31.5 150.5q0 118 39.5 215.5t111.5 154.5t165 57q49 0 69.5 -23.5t20.5 -72.5q-97 0 -159 -50.5t-86 -145.5q54 36 121 36q94 0 157.5 -56.5zM363 127.5
q25 35.5 25 98.5q0 66 -27.5 95t-78.5 29q-56 0 -106 -34q-1 -13 -1 -38q0 -93 27 -139.5t89 -46.5q47 0 72 35.5z" />
    <glyph glyph-name="seven" unicode="7" horiz-adv-x="482" 
d="M476 700v-74q-105 -147 -150.5 -274t-54.5 -280l-4 -72h-72q-47 0 -65.5 21.5t-16.5 62.5l1 15q5 77 35 168t82 177.5t119 147.5h-261q-36 0 -55 16.5t-19 45.5q0 30 7 46h454z" />
    <glyph glyph-name="eight" unicode="8" horiz-adv-x="564" 
d="M507 288q26 -42 26 -105q0 -95 -65 -143.5t-186 -48.5q-120 0 -185 48.5t-65 143.5q0 64 26.5 105t88.5 71q-51 31 -77.5 68t-26.5 93q0 55 29.5 97t83.5 65t126 23q73 0 126.5 -23t82.5 -65t29 -97q0 -57 -25 -95.5t-74 -65.5q60 -29 86 -71zM212.5 584.5
q-25.5 -23.5 -25.5 -61.5q0 -34 22 -64t68 -51q57 21 78 50t21 65q0 38 -25.5 61.5t-68.5 23.5q-44 0 -69.5 -23.5zM388 183q0 24 -6.5 40t-30.5 33.5t-75 40.5q-56 -26 -77.5 -53t-21.5 -61q0 -94 105 -94q106 0 106 94z" />
    <glyph glyph-name="nine" unicode="9" horiz-adv-x="577" 
d="M468.5 637q64.5 -68 64.5 -197q0 -120 -42 -222.5t-122.5 -163.5t-191.5 -61q-49 0 -69.5 23.5t-20.5 72.5q111 0 180 50t99 141q-54 -31 -115 -31q-95 0 -158 54t-63 174q0 71 33.5 122.5t91.5 78.5t129 27q120 0 184.5 -68zM385 381q3 29 3 59q0 62 -9 97.5t-32 52
t-65 16.5q-53 0 -80 -35t-27 -104q0 -60 28 -89.5t78 -29.5q53 0 104 33z" />
    <glyph glyph-name="colon" unicode=":" horiz-adv-x="324" 
d="M70 434v15q0 78 78 78h14q78 0 78 -78v-15q0 -78 -78 -78h-14q-78 0 -78 78zM70 72v15q0 78 78 78h14q78 0 78 -78v-15q0 -78 -78 -78h-14q-78 0 -78 78z" />
    <glyph glyph-name="semicolon" unicode=";" horiz-adv-x="324" 
d="M218 143.5q21 -21.5 21 -59.5v-19q0 -46 -12.5 -80t-41.5 -78q-17 -25 -32.5 -37.5t-33.5 -12.5q-28 0 -48 18q41 45 57.5 67.5t21.5 51.5h-10q-33 0 -52 21t-19 55v19q0 34 20 55t53 21h21q34 0 55 -21.5zM70 434v15q0 78 78 78h14q78 0 78 -78v-15q0 -78 -78 -78h-14
q-78 0 -78 78z" />
    <glyph glyph-name="less" unicode="&#x3c;" horiz-adv-x="600" 
d="M550 498l-383 -194l383 -196v-115l-500 259v104l500 257v-115z" />
    <glyph glyph-name="equal" unicode="=" horiz-adv-x="600" 
d="M70 475h460v-82h-460v82zM70 271h460v-82h-460v82z" />
    <glyph glyph-name="greater" unicode="&#x3e;" horiz-adv-x="600" 
d="M550 356v-104l-500 -259v115l383 196l-383 194v115z" />
    <glyph glyph-name="question" unicode="?" horiz-adv-x="475" 
d="M155 249q0 40 13 70.5t31 51.5t48 48q34 31 50.5 53.5t16.5 53.5q0 41 -19 61t-59 20q-43 0 -61.5 -25.5t-22.5 -72.5l-129 29q2 49 28.5 88t75.5 61t115 22q98 0 158.5 -48t60.5 -132q0 -46 -13.5 -77t-33 -49.5t-51.5 -41.5q-28 -20 -44 -34.5t-27 -37t-11 -54.5v-16
h-126v30zM135 72v15q0 78 78 78h14q78 0 78 -78v-15q0 -78 -78 -78h-14q-78 0 -78 78z" />
    <glyph glyph-name="at" unicode="@" horiz-adv-x="834" 
d="M566 287q-1 -7 -3 -19.5t-2 -20.5q0 -33 39 -33q51 0 84.5 48.5t33.5 135.5q0 76 -33.5 132.5t-97.5 87.5t-154 31q-91 0 -160.5 -37t-108 -104.5t-38.5 -157.5q0 -148 82 -225t237 -77q70 0 113 13.5t80 41.5q15 -6 24 -17t9 -28q0 -20 -31 -38t-83 -29t-112 -11
q-185 0 -289 95t-104 277q0 101 50.5 184.5t138 132t191.5 48.5q108 0 190 -43t126 -116t44 -162q0 -78 -26.5 -135.5t-71.5 -87.5t-99 -30q-36 0 -63 18t-40 46q-18 -29 -47 -46.5t-66 -17.5q-67 0 -109 44t-42 122q0 67 24 119t66.5 81.5t96.5 29.5q58 0 86 -39l4 23h94z
M462 267q22 39 22 98q0 44 -16.5 66.5t-43.5 22.5q-42 0 -66.5 -38t-24.5 -98q0 -43 15.5 -66.5t45.5 -23.5q46 0 68 39z" />
    <glyph glyph-name="A" unicode="A" horiz-adv-x="660" 
d="M466 173h-272q-14 -66 -29 -173h-150q38 363 238 700h155q199 -335 237 -700h-150q-15 107 -29 173zM442 283q-42 165 -112 303q-70 -138 -112 -303h224z" />
    <glyph glyph-name="B" unicode="B" horiz-adv-x="625" 
d="M558.5 303.5q33.5 -43.5 33.5 -99.5q0 -97 -67 -150.5t-189 -53.5h-260v700h250q108 0 171 -52.5t63 -141.5q0 -51 -23 -89t-64 -55q52 -15 85.5 -58.5zM375.5 573q-28.5 21 -89.5 21h-56v-184h53q63 0 92 23t29 73q0 46 -28.5 67zM385.5 114.5q27.5 8.5 39 29.5t11.5 60
q0 55 -29.5 77.5t-102.5 22.5h-74v-198h76q52 0 79.5 8.5z" />
    <glyph glyph-name="C" unicode="C" horiz-adv-x="636" 
d="M137.5 83q-85.5 93 -85.5 266q0 113 39.5 194t113.5 124t177 43q63 0 121.5 -21.5t92.5 -57.5q-5 -32 -25 -60t-37 -28q-14 0 -26 9q-34 26 -63.5 37t-64.5 11q-170 0 -170 -251q0 -249 170 -249q45 0 86.5 18t72.5 52q23 -11 37 -30.5t14 -40.5q0 -29 -28.5 -54
t-76.5 -40t-103 -15q-159 0 -244.5 93z" />
    <glyph glyph-name="D" unicode="D" horiz-adv-x="682" 
d="M486 658q77 -42 118 -120.5t41 -187.5q0 -105 -42.5 -184.5t-119.5 -122.5t-180 -43h-237v700h237q106 0 183 -42zM437 169.5q54 63.5 54 179.5q0 245 -208 245h-63v-488h63q100 0 154 63.5z" />
    <glyph glyph-name="E" unicode="E" horiz-adv-x="560" 
d="M515 106q0 -61 -11 -83.5t-41 -22.5h-397v700h438v-106h-284v-180h236v-106h-236v-202h295z" />
    <glyph glyph-name="F" unicode="F" horiz-adv-x="530" 
d="M220 594v-185h235v-106h-235v-303h-154v700h432v-106h-278z" />
    <glyph glyph-name="G" unicode="G" horiz-adv-x="686" 
d="M634 384v-311q-90 -83 -252 -83q-163 0 -246.5 91t-83.5 269q0 108 42 189.5t119 126t179 44.5q76 0 137 -18.5t102 -54.5q-8 -31 -30.5 -60t-37.5 -29q-7 0 -12.5 2t-15.5 8q-34 22 -69 32t-76 10q-88 0 -134 -64t-46 -186q0 -250 170 -250q72 0 102 22v156h-61
q-31 0 -44 23.5t-13 82.5h270z" />
    <glyph glyph-name="H" unicode="H" horiz-adv-x="700" 
d="M634 700v-700h-154v300h-260v-300h-154v700h154v-290h260v290h154z" />
    <glyph glyph-name="I" unicode="I" horiz-adv-x="350" 
d="M98 700h154v-700h-154v700z" />
    <glyph glyph-name="J" unicode="J" horiz-adv-x="447" 
d="M78 -1.5q-47 8.5 -64 18.5q0 56 10 76.5t27 20.5q8 0 18.5 -2t15.5 -3q36 -9 64 -9q41 0 62.5 24t21.5 69v507h154v-507q0 -59 -28 -105t-78 -72t-114 -26q-42 0 -89 8.5z" />
    <glyph glyph-name="K" unicode="K" horiz-adv-x="670" 
d="M655 5q-27 -15 -100 -15q-56 0 -75 32l-132 216q-18 30 -29.5 42t-25.5 16t-42 4h-7v-300h-154v700h154v-298h45l195 298h163l-229 -335q41 -29 74 -86z" />
    <glyph glyph-name="L" unicode="L" horiz-adv-x="513" 
d="M498 106v-106h-412v700h154v-594h258z" />
    <glyph glyph-name="M" unicode="M" horiz-adv-x="846" 
d="M775 377.5q22 -159.5 21 -377.5h-156v40q0 174 -8 282.5t-29 217.5q-41 -116 -66 -203t-56 -227h-122q-28 138 -51.5 225t-64.5 203q-21 -112 -29.5 -226.5t-11.5 -311.5h-152q3 222 24.5 381t70.5 319h172q48 -130 68 -195.5t34 -141.5q18 76 39.5 142t70.5 195h172
q52 -163 74 -322.5z" />
    <glyph glyph-name="N" unicode="N" horiz-adv-x="700" 
d="M632 64q2 -28 2 -37q0 -27 -26 -27h-130v34q0 50 -39 111l-221 340v-485h-152v700h138q13 0 21.5 -3.5t16.5 -16.5l236 -359v379h152v-563q0 -31 2 -73z" />
    <glyph glyph-name="O" unicode="O" horiz-adv-x="680" 
d="M117.5 85.5q-79.5 95.5 -79.5 268.5q0 169 79.5 262.5t222.5 93.5t222.5 -93.5t79.5 -262.5q0 -173 -79.5 -268.5t-222.5 -95.5t-222.5 95.5zM449.5 160.5q34.5 60.5 34.5 193.5q0 130 -34 188t-110 58t-110 -58t-34 -188q0 -133 34.5 -193.5t109.5 -60.5t109.5 60.5z
" />
    <glyph glyph-name="P" unicode="P" horiz-adv-x="615" 
d="M501 642q71 -58 71 -170q0 -115 -72.5 -178t-205.5 -63h-64v-231h-154v700h218q136 0 207 -58zM385 375q31 30 31 97q0 66 -31 95t-101 29h-54v-251h54q70 0 101 30z" />
    <glyph glyph-name="Q" unicode="Q" horiz-adv-x="680" 
d="M584 -51q-24 -41 -84 -41q-31 0 -52 9.5t-38 29.5q-14 15 -32 45q-24 -2 -38 -2q-143 0 -222.5 95.5t-79.5 268.5q0 169 79.5 262.5t222.5 93.5t222.5 -93.5t79.5 -262.5q0 -115 -36 -197t-103 -124q20 -22 81 -84zM224.5 172q28.5 -61 90.5 -70l-41 77h120
q17 -30 31 -50q59 55 59 225q0 130 -34 188t-110 58t-110 -58t-34 -188q0 -121 28.5 -182z" />
    <glyph glyph-name="R" unicode="R" horiz-adv-x="640" 
d="M615 13q-10 -9 -35 -15t-52 -6q-34 0 -52 9t-28 31l-74 166q-17 37 -36 50t-56 13h-52v-261h-154v700h238q134 0 206 -57t72 -163q0 -65 -31.5 -111.5t-91.5 -70.5q27 -28 45 -68zM304 369q70 0 101 26t31 85t-31 85.5t-101 26.5h-74v-223h74z" />
    <glyph glyph-name="S" unicode="S" horiz-adv-x="642" 
d="M139 32q-70 42 -70 115q0 35 29.5 55t83.5 21q6 -59 45.5 -91t106.5 -32q123 0 123 91q0 36 -33.5 59t-116.5 47q-118 33 -173 84.5t-55 132.5q0 91 70.5 143.5t192.5 52.5q98 0 168 -46.5t96 -129.5q-17 -17 -47 -30t-53 -13q-18 0 -28 7.5t-21 28.5q-20 39 -46 56
t-69 17q-107 0 -107 -71q0 -28 11 -45.5t38 -32t82 -32.5q100 -33 153 -60.5t74.5 -59.5t21.5 -79q0 -68 -35.5 -120t-99.5 -81t-148 -29q-123 0 -193 42z" />
    <glyph glyph-name="T" unicode="T" horiz-adv-x="534" 
d="M523 656q0 -34 -11 -50t-35 -16h-134v-590h-152v590h-176v110h504q4 -24 4 -44z" />
    <glyph glyph-name="U" unicode="U" horiz-adv-x="711" 
d="M146.5 55.5q-70.5 65.5 -70.5 195.5v449h154v-471q0 -62 32.5 -95.5t93.5 -33.5q125 0 125 129v471h154v-449q0 -132 -69 -196.5t-210 -64.5q-139 0 -209.5 65.5z" />
    <glyph glyph-name="V" unicode="V" horiz-adv-x="638" 
d="M618 700q-19 -207 -76 -379t-155 -321h-135q-97 147 -154 318.5t-78 381.5h158q18 -170 54 -308t87 -233q51 95 87 233t54 308h158z" />
    <glyph glyph-name="W" unicode="W" horiz-adv-x="896" 
d="M881 700q-24 -224 -60 -387t-95 -313h-162q-47 140 -70.5 228t-40.5 191q-19 -112 -43 -201.5t-68 -217.5h-162q-61 147 -99 309.5t-66 390.5h152q21 -206 40 -314.5t54 -229.5q41 125 65 226.5t64 317.5h122q48 -231 72 -329.5t61 -213.5q34 119 51 227t37 316h148z" />
    <glyph glyph-name="X" unicode="X" horiz-adv-x="602" 
d="M441 0q-13 81 -48.5 146.5t-91.5 129.5q-56 -64 -91.5 -129.5t-48.5 -146.5h-157q15 82 46 147.5t69.5 115t94.5 108.5q-80 86 -127.5 158.5t-67.5 170.5h155q15 -69 46.5 -125t80.5 -112q49 56 80.5 112t46.5 125h155q-20 -98 -67.5 -170.5t-127.5 -158.5
q56 -59 94.5 -108.5t69.5 -115t46 -147.5h-157z" />
    <glyph glyph-name="Y" unicode="Y" horiz-adv-x="590" 
d="M580 700l-209 -406v-294h-152v294l-209 406h158l128 -270l127 270h157z" />
    <glyph glyph-name="Z" unicode="Z" horiz-adv-x="580" 
d="M538 100v-100h-494v100l322 500h-324v100h488v-104l-316 -496h324z" />
    <glyph glyph-name="bracketleft" unicode="[" horiz-adv-x="389" 
d="M72 852h243v-90h-93v-767h93v-90h-243v947z" />
    <glyph glyph-name="backslash" unicode="\" horiz-adv-x="334" 
d="M260 -55l-290 866h104l290 -866h-104z" />
    <glyph glyph-name="bracketright" unicode="]" horiz-adv-x="389" 
d="M74 -95v90h93v767h-93v90h243v-947h-243z" />
    <glyph glyph-name="asciicircum" unicode="^" horiz-adv-x="657" 
d="M258 791h139l218 -467h-152l-138 287l-131 -287h-152z" />
    <glyph glyph-name="underscore" unicode="_" horiz-adv-x="684" 
d="M0 -102h684v-100h-684v100z" />
    <glyph glyph-name="grave" unicode="`" horiz-adv-x="243" 
d="M-44 773h163l61 -151h-106z" />
    <glyph glyph-name="a" unicode="a" horiz-adv-x="568" 
d="M512.5 89q6.5 -36 26.5 -62q-21 -15 -54 -24.5t-60 -9.5q-25 0 -40 18t-22 57q-27 -42 -64 -60t-96 -18q-73 0 -118 39.5t-45 103.5q0 90 75.5 134.5t242.5 53.5v52q0 41 -21.5 61t-65.5 20q-32 0 -63.5 -12.5t-77.5 -43.5q-5 -4 -14 -4q-18 0 -38.5 24t-36.5 63
q39 34 109.5 56.5t139.5 22.5q104 0 160 -48.5t56 -138.5v-166q0 -82 6.5 -118zM310.5 107q25.5 21 47.5 65v74q-83 -3 -125.5 -27.5t-42.5 -69.5q0 -29 18 -46t47 -17q30 0 55.5 21z" />
    <glyph glyph-name="b" unicode="b" horiz-adv-x="610" 
d="M465 525q50 -35 77.5 -100t27.5 -151t-27.5 -150t-78 -99t-117.5 -35q-42 0 -80 20t-61 54q-7 -37 -20.5 -54t-36.5 -17q-28 0 -59.5 9t-59.5 25q20 26 26.5 62.5t6.5 117.5v584h148v-286q30 29 62.5 42t74.5 13q67 0 117 -35zM396 131.5q24 45.5 24 142.5
q0 192 -108 192q-29 0 -57 -14.5t-44 -37.5v-251q41 -77 111 -77q50 0 74 45.5z" />
    <glyph glyph-name="c" unicode="c" horiz-adv-x="577" 
d="M30 278q0 132 71 207t196 75q98 0 161.5 -48.5t74.5 -131.5q-58 -35 -96 -35q-16 0 -26.5 10t-17.5 32q-15 42 -37 59.5t-59 17.5q-56 0 -86.5 -48t-30.5 -138q0 -97 30.5 -142.5t95.5 -45.5q45 0 71 30.5t39 97.5q55 0 79 -20t24 -65q0 -38 -29.5 -71t-78.5 -52.5
t-105 -19.5q-276 0 -276 288z" />
    <glyph glyph-name="d" unicode="d" horiz-adv-x="598" 
d="M543.5 89.5q6.5 -36.5 26.5 -62.5q-28 -16 -59.5 -25t-59.5 -9q-23 0 -36.5 17t-20.5 53q-23 -36 -59 -54.5t-82 -18.5q-106 0 -164.5 74.5t-58.5 208.5q0 87 31 152t88 100t133 35q60 0 107 -26v257h148v-584q0 -81 6.5 -117.5zM389 163v273q-35 30 -91 30t-87 -50.5
t-31 -142.5q0 -96 24 -141.5t74 -45.5q70 0 111 77z" />
    <glyph glyph-name="e" unicode="e" horiz-adv-x="580" 
d="M545 248h-354q5 -76 36.5 -118t82.5 -42q23 0 38.5 6t32 21.5t43.5 50.5q5 8 21 8q17 0 41.5 -11.5t52.5 -32.5q-65 -140 -229 -140q-126 0 -198 76.5t-72 209.5q0 87 32.5 151t93 98.5t143.5 34.5q115 0 178 -65t63 -184q0 -14 -5 -63zM400 332q0 134 -94 134
q-48 0 -77 -34t-36 -100h207z" />
    <glyph glyph-name="f" unicode="f" horiz-adv-x="365" 
d="M247.5 673q-14.5 -21 -14.5 -60v-63h104v-92h-104v-458h-148v458h-83v92h83v64q0 85 44.5 131.5t127.5 46.5q57 0 91.5 -18.5t34.5 -48.5q0 -13 -4 -25.5t-11 -20.5q-34 15 -79 15q-27 0 -41.5 -21z" />
    <glyph glyph-name="g" unicode="g" horiz-adv-x="585" 
d="M492 84.5q64 -40.5 64 -115.5q0 -81 -72 -128.5t-195 -47.5q-124 0 -191.5 39.5t-67.5 112.5q0 94 134 107v3q-41 8 -63.5 28.5t-22.5 49.5q0 27 22 47.5t59 30.5q-49 25 -78 65t-29 88q0 94 64.5 145t181.5 51q59 0 108 -20q23 31 54.5 50t59.5 19q36 0 50.5 -25.5
t14.5 -88.5q-68 0 -99 -16q34 -45 34 -103q0 -92 -62.5 -142t-178.5 -50q-47 0 -64 -6.5t-17 -24.5q0 -13 8 -18.5t30.5 -7.5t72.5 -2q119 0 183 -40.5zM202 372q0 -47 20 -69.5t63 -22.5t63.5 22.5t20.5 69.5q0 48 -20.5 71t-63.5 23q-83 0 -83 -94zM382.5 -92
q32.5 19 32.5 55q0 70 -122 70q-112 0 -112 -70q0 -39 25.5 -56.5t82.5 -17.5q61 0 93.5 19z" />
    <glyph glyph-name="h" unicode="h" horiz-adv-x="630" 
d="M507 516q42 -44 42 -120v-396h-148v379q0 40 -15 57.5t-49 17.5q-67 0 -138 -58v-396h-148v791h148v-308q38 35 90.5 56t103.5 21q72 0 114 -44z" />
    <glyph glyph-name="i" unicode="i" horiz-adv-x="288" 
d="M70 550h148v-550h-148v550zM59 729v15q0 78 78 78h14q78 0 78 -78v-15q0 -78 -78 -78h-14q-78 0 -78 78z" />
    <glyph glyph-name="j" unicode="j" horiz-adv-x="270" 
d="M-34.5 -204.5q-29.5 7.5 -41.5 19.5q-8 8 -8 21q0 12 6.5 25.5t12.5 16.5q12 -6 25.5 -9t36.5 -3q30 0 46.5 18t16.5 54v612h148v-603q0 -71 -45 -115t-129 -44q-39 0 -68.5 7.5zM49 729v15q0 78 78 78h14q78 0 78 -78v-15q0 -78 -78 -78h-14q-78 0 -78 78z" />
    <glyph glyph-name="k" unicode="k" horiz-adv-x="617" 
d="M608 0q-13 0 -73 -3q-28 -2 -37 -2q-27 0 -43 10t-28 30l-78 141q-15 28 -36.5 39.5t-67.5 8.5l-26 -2v-222h-148v791h148v-467l22 1q37 2 55 14t35 47l80 164h164l-110 -197q-16 -28 -28.5 -44t-34.5 -28q30 -8 47 -22t32 -40z" />
    <glyph glyph-name="l" unicode="l" horiz-adv-x="268" 
d="M60 791h148v-791h-148v791z" />
    <glyph glyph-name="m" unicode="m" horiz-adv-x="912" 
d="M795.5 513.5q45.5 -46.5 45.5 -128.5v-385h-149v382q0 49 -13.5 66.5t-51.5 17.5q-57 0 -96 -50v-12v-404h-148v392q0 42 -11.5 58t-42.5 16q-54 0 -109 -65v-401h-148v353q0 142 -12 175q19 11 48 18.5t53 7.5q27 0 40.5 -15.5t17.5 -52.5q36 39 75 56.5t87 17.5
q46 0 80 -18.5t52 -53.5q56 72 158 72q79 0 124.5 -46.5z" />
    <glyph glyph-name="n" unicode="n" horiz-adv-x="610" 
d="M544 63q4 -25 15 -46q-59 -22 -122 -22q-25 0 -35 24t-10 83v261q0 52 -15.5 72.5t-54.5 20.5q-52 0 -114 -51v-405h-148v370q0 67 -2.5 103t-9.5 58q74 23 121 23q21 0 30 -13.5t9 -44.5v-12q51 43 86.5 59.5t74.5 16.5q86 0 128.5 -46.5t42.5 -141.5v-234q0 -50 4 -75z
" />
    <glyph glyph-name="o" unicode="o" horiz-adv-x="568" 
d="M96.5 65q-66.5 75 -66.5 211t66.5 210t187.5 74t187.5 -74t66.5 -210t-66.5 -211t-187.5 -75t-187.5 75zM363.5 131q24.5 45 24.5 145q0 99 -24.5 143.5t-79.5 44.5t-79.5 -44t-24.5 -144t24.5 -145t79.5 -45t79.5 45z" />
    <glyph glyph-name="p" unicode="p" horiz-adv-x="598" 
d="M515 490.5q55 -69.5 55 -204.5q0 -88 -32 -155t-90 -104t-134 -37q-42 0 -103 17v-235h-148v568q0 81 -6.5 117.5t-26.5 62.5q28 16 59.5 25t59.5 9q21 0 34 -14t20 -43q60 63 150 63q107 0 162 -69.5zM387.5 137q32.5 51 32.5 149q0 93 -24 136.5t-76 43.5
q-32 0 -62 -15t-47 -37v-13v-297q41 -18 82 -18q62 0 94.5 51z" />
    <glyph glyph-name="q" unicode="q" horiz-adv-x="608" 
d="M510.5 545q31.5 -9 59.5 -25q-20 -26 -26.5 -62.5t-6.5 -117.5v-568h-148v269q-26 -24 -61.5 -37.5t-74.5 -13.5q-106 0 -164.5 74.5t-58.5 208.5q0 86 27.5 151t77.5 100.5t117 35.5q54 0 91 -15t55 -44q7 28 20 40.5t33 12.5q28 0 59.5 -9zM389 144v257v11
q-35 54 -101 54q-108 0 -108 -193q0 -96 24 -141.5t74 -45.5q66 0 111 58z" />
    <glyph glyph-name="r" unicode="r" horiz-adv-x="440" 
d="M406 536.5q22 -20.5 22 -65.5q0 -17 -4.5 -33.5t-12.5 -25.5q-12 7 -27 10t-43 3q-65 0 -96.5 -40t-31.5 -122v-263h-148v550h148v-73q20 39 52 59.5t71 20.5q48 0 70 -20.5z" />
    <glyph glyph-name="s" unicode="s" horiz-adv-x="505" 
d="M90.5 20q-56.5 30 -56.5 77q0 28 19.5 47.5t56.5 21.5q21 -40 54.5 -60t84.5 -20q88 0 88 66q0 27 -25 41t-82 33q-58 19 -95.5 37t-64.5 52.5t-27 89.5q0 47 29.5 82.5t78 54t105.5 18.5q73 0 128 -28t86 -75q-13 -25 -35.5 -43.5t-40.5 -18.5q-10 0 -17 3.5t-14 11.5
q-45 56 -103 56q-38 0 -58.5 -14.5t-20.5 -43.5q0 -31 27.5 -47t86.5 -33q56 -15 92.5 -31.5t62 -49t25.5 -85.5q0 -83 -59.5 -127.5t-170.5 -44.5q-98 0 -154.5 30z" />
    <glyph glyph-name="t" unicode="t" horiz-adv-x="405" 
d="M389 84q6 -10 6 -24q0 -21 -13 -34q-16 -16 -52.5 -26t-80.5 -10q-69 0 -111 38.5t-42 102.5v325h-84v94h84v150h148v-150h104v-94h-104v-312q0 -35 11.5 -49.5t40.5 -14.5q32 0 76 17q11 -3 17 -13z" />
    <glyph glyph-name="u" unicode="u" horiz-adv-x="630" 
d="M560.5 61q3.5 -26 11.5 -44q-20 -10 -48 -16t-53 -6q-29 0 -43 14t-18 47q-29 -32 -70.5 -49t-90.5 -17q-87 0 -133 47.5t-46 137.5v375h148v-368q0 -53 16.5 -75.5t56.5 -22.5q71 0 117 72v394h149v-417q0 -46 3.5 -72z" />
    <glyph glyph-name="v" unicode="v" horiz-adv-x="580" 
d="M558 550q-12 -160 -58 -296.5t-136 -253.5h-140q-92 118 -140.5 254.5t-61.5 295.5h155q4 -116 31.5 -218.5t87.5 -200.5q57 98 81.5 200.5t25.5 218.5h155z" />
    <glyph glyph-name="w" unicode="w" horiz-adv-x="800" 
d="M780 550q-7 -154 -41.5 -290t-105.5 -260h-105q-82 132 -120 289q-40 -159 -122 -289h-105q-74 123 -112 259t-49 291h150q10 -131 24 -218t52 -170q79 175 100 388h126q23 -216 104 -391q25 58 38.5 123t17.5 121.5t8 146.5h140z" />
    <glyph glyph-name="x" unicode="x" horiz-adv-x="520" 
d="M366 0q-4 56 -31.5 106t-74.5 102q-47 -52 -74.5 -102t-31.5 -106h-138q5 81 48.5 148.5t117.5 140.5q-51 51 -83 88.5t-54.5 81t-26.5 91.5h138q1 -46 28 -89.5t76 -93.5q49 50 76 93.5t28 89.5h138q-4 -48 -26.5 -91.5t-54.5 -81t-83 -88.5q74 -73 117.5 -140.5
t48.5 -148.5h-138z" />
    <glyph glyph-name="y" unicode="y" horiz-adv-x="535" 
d="M539 550l-213 -592q-34 -94 -81 -133t-127 -39q-50 0 -81 20t-31 52q0 17 6 30.5t21 31.5q25 -17 61 -17q38 0 59.5 22.5t41.5 83.5l-196 541h152l119 -368l117 368h152z" />
    <glyph glyph-name="z" unicode="z" horiz-adv-x="520" 
d="M490 98v-98h-460v88l289 364h-263v98h426v-87l-298 -365h306z" />
    <glyph glyph-name="braceleft" unicode="{" horiz-adv-x="364" 
d="M138.5 -74.5q-34.5 36.5 -34.5 99.5v213q0 37 -17 59.5t-59 29.5v57q42 7 59 29.5t17 60.5v213q0 62 34.5 98.5t101.5 36.5h98v-90h-25q-64 0 -64 -72v-186q0 -52 -22.5 -79t-63.5 -38v-3q86 -19 86 -116v-186q0 -72 64 -72h25v-91h-98q-67 0 -101.5 36.5z" />
    <glyph glyph-name="bar" unicode="|" horiz-adv-x="283" 
d="M72 802h139v-814h-139v814z" />
    <glyph glyph-name="braceright" unicode="}" horiz-adv-x="364" 
d="M26 -111v91h25q64 0 64 72v186q0 97 86 116v3q-41 11 -63.5 38t-22.5 79v186q0 72 -64 72h-25v90h98q67 0 101.5 -36.5t34.5 -98.5v-213q0 -38 17 -60.5t59 -29.5v-57q-42 -7 -59 -29.5t-17 -59.5v-213q0 -63 -34.5 -99.5t-101.5 -36.5h-98z" />
    <glyph glyph-name="asciitilde" unicode="~" horiz-adv-x="600" 
d="M50 275q18 39 55.5 60t86.5 21q31 0 56 -8.5t59 -24.5q27 -14 47 -21t42 -7q37 0 57 15t40 50l62 -52q-22 -42 -59.5 -67t-92.5 -25q-36 0 -61 8.5t-59 25.5q-29 14 -45.5 20t-38.5 6q-31 0 -56 -17t-39 -46z" />
    <glyph glyph-name="uni00A0" unicode="&#xa0;" horiz-adv-x="258" 
 />
    <glyph glyph-name="exclamdown" unicode="&#xa1;" horiz-adv-x="243" 
d="M208 488v-15q0 -78 -78 -78h-14q-78 0 -78 78v15q0 78 78 78h14q78 0 78 -78zM206 -140h-166l35 474h96z" />
    <glyph glyph-name="cent" unicode="&#xa2;" horiz-adv-x="547" 
d="M495 198q24 -20 24 -65q0 -38 -29.5 -71t-78.5 -52.5t-105 -19.5q-54 0 -94 10l-26 -80h-60l33 99q-129 62 -129 259q0 132 71 207t196 75q14 0 40 -2l27 80h59l-30 -92q59 -20 95.5 -63t44.5 -103q-58 -35 -96 -35q-16 0 -26.5 10t-17.5 32q-14 40 -34 57l-113 -341
q25 -13 60 -13q45 0 71 30.5t39 97.5q55 0 79 -20zM202 150l104 314h-9q-56 0 -86.5 -48t-30.5 -138q0 -83 22 -128z" />
    <glyph glyph-name="sterling" unicode="&#xa3;" horiz-adv-x="609" 
d="M556.5 99.5q-23.5 -48.5 -74.5 -79t-128 -30.5q-55 0 -95.5 10t-71.5 32q-70 -45 -171 -42v109q45 2 71 12t38.5 35t12.5 73q0 39 -14 98h-110v78h91q-14 61 -14 102q0 66 31 114t84.5 73.5t118.5 25.5q96 0 156 -48t75 -132q-11 -11 -39 -24t-46 -13q-29 0 -38 27
q-16 48 -40.5 70t-68.5 22q-39 0 -63 -28t-24 -80q0 -46 14 -109h123v-78h-104q14 -61 14 -99q0 -59 -24 -106q39 -24 84 -24q109 0 112 125l122 -12q2 -53 -21.5 -101.5z" />
    <glyph glyph-name="currency" unicode="&#xa4;" horiz-adv-x="609" 
d="M33 122l59 59q-59 67 -59 172q0 98 59 170l-59 59l40 42l62 -61q36 30 79 45.5t90 15.5q95 0 170 -61l60 61l42 -42l-59 -59q59 -72 59 -170q0 -105 -59 -172l59 -59l-42 -41l-60 59q-77 -59 -170 -59q-96 0 -169 59l-62 -59zM404.5 249.5q39.5 40.5 39.5 103.5
t-39.5 103.5t-100.5 40.5t-100 -40.5t-39 -103.5t39 -103.5t100 -40.5t100.5 40.5z" />
    <glyph glyph-name="yen" unicode="&#xa5;" horiz-adv-x="590" 
d="M403 356h109v-56h-138l-3 -6v-70h141v-56h-141v-168h-152v168h-141v56h141v70l-3 6h-138v56h109l-177 344h158l128 -270l127 270h157z" />
    <glyph glyph-name="brokenbar" unicode="&#xa6;" horiz-adv-x="283" 
d="M72 802h139v-307h-139v307zM72 295h139v-307h-139v307z" />
    <glyph glyph-name="section" unicode="&#xa7;" horiz-adv-x="500" 
d="M261 383l-113 42q-44 17 -70.5 50t-26.5 82q0 69 54 109.5t140 40.5q99 0 148.5 -38.5t54.5 -103.5l-124 -9q-5 31 -21 47t-58 16q-30 0 -49.5 -13t-19.5 -39q0 -25 16 -39.5t52 -27.5l122 -46q60 -23 79.5 -65t19.5 -115h-135q0 83 -69 109zM108.5 -49
q-52.5 39 -57.5 103l124 9q2 -27 22 -45t57 -18q31 0 50 17t19 41q0 27 -13.5 43.5t-44.5 27.5l-122 46q-63 24 -85.5 62.5t-22.5 107.5h135q0 -39 22.5 -65t65.5 -44l103 -42q54 -22 75.5 -51.5t21.5 -80.5q0 -71 -53 -110.5t-151 -39.5q-93 0 -145.5 39z" />
    <glyph glyph-name="dieresis" unicode="&#xa8;" horiz-adv-x="342" 
d="M0 705v13q0 65 65 65h12q65 0 65 -65v-13q0 -65 -65 -65h-12q-65 0 -65 65zM200 705v13q0 65 65 65h12q65 0 65 -65v-13q0 -65 -65 -65h-12q-65 0 -65 65z" />
    <glyph glyph-name="copyright" unicode="&#xa9;" horiz-adv-x="774" 
d="M201 36q-82 46 -128 128t-46 186t46 186t128 128t186 46t186 -46t128 -128t46 -186t-46 -186t-128 -128t-186 -46t-186 46zM543 78.5q69 39.5 108 110.5t39 161t-39 161t-108 110.5t-156 39.5t-156 -39.5t-107.5 -110.5t-38.5 -161t38.5 -161t107.5 -110.5t156 -39.5
t156 39.5zM236 190.5q-55 58.5 -55 160.5q0 101 53 158.5t161 57.5q90 0 139.5 -42.5t52.5 -112.5l-100 -19q-5 44 -25.5 64.5t-65.5 20.5q-51 0 -74.5 -28t-23.5 -99q0 -130 101 -130q38 0 58 16.5t27 52.5l100 -19q-7 -61 -55 -100t-130 -39q-108 0 -163 58.5z" />
    <glyph glyph-name="ordfeminine" unicode="&#xaa;" horiz-adv-x="380" 
d="M366 380q-31 -20 -75 -20q-43 0 -51 39q-35 -40 -105 -40q-49 0 -79 26t-30 71q0 60 50.5 86.5t161.5 28.5v13q0 53 -51 53q-17 0 -32 -5.5t-25.5 -11t-13.5 -6.5q-7 -4 -18 -10t-19 -6q-12 0 -25.5 21.5t-19.5 45.5q91 47 169 47q71 0 110.5 -30t39.5 -89v-147
q0 -53 13 -66zM238 460v49q-53 -1 -75 -12.5t-22 -28.5q0 -16 9 -25.5t27 -9.5q36 0 61 27z" />
    <glyph glyph-name="guillemotleft" unicode="&#xab;" horiz-adv-x="570" 
d="M255 288l128 164h142l-119 -164l119 -171h-142zM40 288l128 164h142l-119 -164l119 -171h-142z" />
    <glyph glyph-name="logicalnot" unicode="&#xac;" horiz-adv-x="600" 
d="M398 287h-348v100h490v-290h-142v190z" />
    <glyph glyph-name="uni00AD" unicode="&#xad;" horiz-adv-x="380" 
d="M40 347h300v-80h-300v80z" />
    <glyph glyph-name="registered" unicode="&#xae;" horiz-adv-x="774" 
d="M568.5 661q82.5 -49 130.5 -131.5t48 -179.5t-48 -179.5t-130.5 -131.5t-181.5 -49q-98 0 -180.5 49t-131 131.5t-48.5 179.5t48.5 179.5t131 131.5t180.5 49q99 0 181.5 -49zM541.5 80.5q69.5 41.5 109 112.5t39.5 157t-39.5 157t-109 112.5t-154.5 41.5
q-84 0 -153 -41.5t-109 -113t-40 -156.5t40 -156.5t109 -113t153 -41.5q85 0 154.5 41.5zM556 340q-20 -30 -55 -46l72 -149h-122l-60 132h-39v-132h-117v398h183q78 0 118 -36.5t40 -96.5q0 -40 -20 -70zM352 364h59q20 0 33 13t13 34q0 20 -11.5 32.5t-30.5 12.5h-63v-92z
" />
    <glyph glyph-name="macron" unicode="&#xaf;" horiz-adv-x="243" 
d="M-42 744h326v-100h-326v100z" />
    <glyph glyph-name="degree" unicode="&#xb0;" horiz-adv-x="438" 
d="M137.5 503q-36.5 22 -57.5 58.5t-21 80.5q0 43 21 80t57.5 58.5t81.5 21.5t81.5 -21.5t57.5 -58.5t21 -80q0 -44 -21 -80.5t-57.5 -58.5t-81.5 -22t-81.5 22zM284 574.5q25 26.5 25 67.5q0 40 -25 66.5t-65 26.5t-65.5 -26.5t-25.5 -66.5q0 -41 25.5 -67.5t65.5 -26.5
t65 26.5z" />
    <glyph glyph-name="plusminus" unicode="&#xb1;" horiz-adv-x="600" 
d="M260 338h-220v79h220v212h81v-212h219v-79h-219v-213h-81v213zM40 79h520v-79h-520v79z" />
    <glyph glyph-name="uni00B2" unicode="&#xb2;" horiz-adv-x="377" 
d="M316.5 465q-38.5 -48 -103.5 -93h137v-90h-318v64q69 43 107.5 72t65 67t26.5 85q0 24 -16 37t-40 13q-27 0 -41 -21t-14 -60q-47 0 -69.5 14t-22.5 51q0 26 18.5 50.5t53.5 40t83 15.5q80 0 126 -34t46 -101q0 -62 -38.5 -110z" />
    <glyph glyph-name="uni00B3" unicode="&#xb3;" horiz-adv-x="380" 
d="M360 410q0 -60 -44 -96t-142 -36q-77 0 -118 19.5t-41 50.5q0 20 12 32.5t28 12.5q18 -15 47.5 -24.5t69.5 -9.5q73 0 73 56q0 28 -12.5 39t-39.5 11l-58 -2q-11 0 -22.5 24.5t-11.5 37.5q0 17 16 17h63q51 0 51 50q0 19 -13 31t-35 12q-28 0 -53.5 -14.5t-46.5 -35.5
q-24 0 -37 12.5t-13 34.5q0 37 44 57.5t108 20.5q75 0 117.5 -31t42.5 -81q0 -68 -53 -91q68 -21 68 -97z" />
    <glyph glyph-name="acute" unicode="&#xb4;" horiz-adv-x="243" 
d="M134 773h165l-111 -151h-126z" />
    <glyph glyph-name="paragraph" unicode="&#xb6;" horiz-adv-x="580" 
d="M186 328q-43 5 -81.5 33t-61.5 73.5t-23 100.5q0 103 64 159t180 56h316v-90h-74v-660h-120v660h-80v-660h-120v328z" />
    <glyph glyph-name="periodcentered" unicode="&#xb7;" horiz-adv-x="308" 
d="M70 310v15q0 78 78 78h14q78 0 78 -78v-15q0 -78 -78 -78h-14q-78 0 -78 78z" />
    <glyph glyph-name="cedilla" unicode="&#xb8;" horiz-adv-x="253" 
d="M221.5 -74.5q28.5 -23.5 28.5 -61.5q0 -103 -141 -103q-104 0 -104 54q0 13 4 22q12 -5 35 -8t49 -3q31 0 42.5 8t11.5 28q0 11 -8.5 18.5t-24.5 7.5q-14 0 -28 -5l-37 42l47 75h88l-48 -51h12q45 0 73.5 -23.5z" />
    <glyph glyph-name="uni00B9" unicode="&#xb9;" horiz-adv-x="379" 
d="M332 370v-88h-296v88h90v232q-40 -36 -72 -36q-65 0 -65 79q34 3 81 22t69 43h109v-340h84z" />
    <glyph glyph-name="ordmasculine" unicode="&#xba;" horiz-adv-x="380" 
d="M61 405.5q-45 48.5 -45 127.5q0 80 45 128.5t130 48.5q84 0 128.5 -48.5t44.5 -128.5q0 -79 -44.5 -127.5t-128.5 -48.5q-85 0 -130 48.5zM235 455q13 23 13 78t-13 78.5t-44 23.5q-32 0 -45.5 -23.5t-13.5 -78.5t13.5 -78t45.5 -23q31 0 44 23z" />
    <glyph glyph-name="guillemotright" unicode="&#xbb;" horiz-adv-x="570" 
d="M45 117l119 171l-119 164h142l128 -164l-128 -171h-142zM260 117l119 171l-119 164h142l128 -164l-128 -171h-142z" />
    <glyph glyph-name="onequarter" unicode="&#xbc;" horiz-adv-x="976" 
d="M332 370v-88h-296v88h90v232q-40 -36 -72 -36q-65 0 -65 79q34 3 81 22t69 43h109v-340h84zM612 700h112l-328 -700h-112zM965 78h-40v-78h-122v78h-201v54q63 78 89 140t26 151q28 2 37 2q44 0 63.5 -14t19.5 -49q0 -57 -29 -109.5t-74 -96.5h69v69h122v-69h40v-78z" />
    <glyph glyph-name="onehalf" unicode="&#xbd;" horiz-adv-x="966" 
d="M332 370v-88h-296v88h90v232q-40 -36 -72 -36q-65 0 -65 79q34 3 81 22t69 43h109v-340h84zM612 700h112l-328 -700h-112zM905.5 184q-38.5 -48 -103.5 -93h137v-90h-318v64q69 43 107.5 72t65 67t26.5 85q0 24 -16 37t-40 13q-27 0 -41 -21t-14 -60q-47 0 -69.5 14
t-22.5 51q0 26 18.5 50.5t53.5 40t83 15.5q80 0 126 -34t46 -101q0 -62 -38.5 -110z" />
    <glyph glyph-name="threequarters" unicode="&#xbe;" horiz-adv-x="967" 
d="M360 410q0 -60 -44 -96t-142 -36q-77 0 -118 19.5t-41 50.5q0 20 12 32.5t28 12.5q18 -15 47.5 -24.5t69.5 -9.5q73 0 73 56q0 28 -12.5 39t-39.5 11l-58 -2q-11 0 -22.5 24.5t-11.5 37.5q0 17 16 17h63q51 0 51 50q0 19 -13 31t-35 12q-28 0 -53.5 -14.5t-46.5 -35.5
q-24 0 -37 12.5t-13 34.5q0 37 44 57.5t108 20.5q75 0 117.5 -31t42.5 -81q0 -68 -53 -91q68 -21 68 -97zM613 700h112l-328 -700h-112zM956 78h-40v-78h-122v78h-201v54q63 78 89 140t26 151q28 2 37 2q44 0 63.5 -14t19.5 -49q0 -57 -29 -109.5t-74 -96.5h69v69h122v-69
h40v-78z" />
    <glyph glyph-name="questiondown" unicode="&#xbf;" horiz-adv-x="475" 
d="M340 480v-15q0 -78 -78 -78h-14q-78 0 -78 78v15q0 78 78 78h14q78 0 78 -78zM320 303q0 -40 -13 -70.5t-31 -51.5t-48 -48q-34 -31 -50.5 -53.5t-16.5 -53.5q0 -41 19 -61t59 -20q43 0 61.5 25.5t22.5 72.5l129 -29q-2 -49 -28.5 -88t-75.5 -61t-115 -22
q-98 0 -158.5 48t-60.5 132q0 46 13.5 77t33 49.5t51.5 41.5q28 20 44 34.5t27 37t11 54.5v16h126v-30z" />
    <glyph glyph-name="Agrave" unicode="&#xc0;" horiz-adv-x="660" 
d="M466 173h-272q-14 -66 -29 -173h-150q38 363 238 700h155q199 -335 237 -700h-150q-15 107 -29 173zM442 283q-42 165 -112 303q-70 -138 -112 -303h224zM172 883h163l61 -151h-106z" />
    <glyph glyph-name="Aacute" unicode="&#xc1;" horiz-adv-x="660" 
d="M466 173h-272q-14 -66 -29 -173h-150q38 363 238 700h155q199 -335 237 -700h-150q-15 107 -29 173zM442 283q-42 165 -112 303q-70 -138 -112 -303h224zM337 883h165l-111 -151h-126z" />
    <glyph glyph-name="Acircumflex" unicode="&#xc2;" horiz-adv-x="660" 
d="M466 173h-272q-14 -66 -29 -173h-150q38 363 238 700h155q199 -335 237 -700h-150q-15 107 -29 173zM442 283q-42 165 -112 303q-70 -138 -112 -303h224zM254 885h153l91 -153h-104l-63 83l-65 -83h-104z" />
    <glyph glyph-name="Atilde" unicode="&#xc3;" horiz-adv-x="660" 
d="M466 173h-272q-14 -66 -29 -173h-150q38 363 238 700h155q199 -335 237 -700h-150q-15 107 -29 173zM442 283q-42 165 -112 303q-70 -138 -112 -303h224zM188.5 765.5q-17.5 17.5 -17.5 46.5q0 36 24.5 56t62.5 20q22 0 38 -5t37 -14q15 -7 26 -11t24 -4q21 0 29 9.5
t9 27.5q37 0 53.5 -13.5t16.5 -46.5q0 -31 -23 -56t-62 -25q-23 0 -39.5 5t-38.5 14q-16 7 -28 11t-26 4q-19 0 -28 -10t-9 -26q-31 0 -48.5 17.5z" />
    <glyph glyph-name="Adieresis" unicode="&#xc4;" horiz-adv-x="660" 
d="M466 173h-272q-14 -66 -29 -173h-150q38 363 238 700h155q199 -335 237 -700h-150q-15 107 -29 173zM442 283q-42 165 -112 303q-70 -138 -112 -303h224zM160 815v13q0 65 65 65h12q65 0 65 -65v-13q0 -65 -65 -65h-12q-65 0 -65 65zM360 815v13q0 65 65 65h12
q65 0 65 -65v-13q0 -65 -65 -65h-12q-65 0 -65 65z" />
    <glyph glyph-name="Aring" unicode="&#xc5;" horiz-adv-x="660" 
d="M466 173h-272q-14 -66 -29 -173h-150q38 363 238 700h155q199 -335 237 -700h-150q-15 107 -29 173zM442 283q-42 165 -112 303q-70 -138 -112 -303h224zM236 783q-38 37 -38 94t38.5 94.5t93.5 37.5q36 0 66 -17t48 -47t18 -68q0 -57 -38.5 -94t-93.5 -37q-56 0 -94 37z
M360.5 846.5q12.5 12.5 12.5 30.5q0 19 -12.5 31t-30.5 12q-19 0 -31.5 -12t-12.5 -31q0 -18 12.5 -30.5t31.5 -12.5q18 0 30.5 12.5z" />
    <glyph glyph-name="AE" unicode="&#xc6;" horiz-adv-x="970" 
d="M925 100q0 -55 -13.5 -77.5t-58.5 -22.5h-378v206h-252q-34 -100 -54 -206h-154q42 210 129.5 388.5t245.5 311.5h530v-100h-300v-197h257v-100h-257v-203h305zM475 306v294h-9q-121 -107 -204 -294h213z" />
    <glyph glyph-name="Ccedilla" unicode="&#xc7;" horiz-adv-x="636" 
d="M576 139.5q14 -19.5 14 -40.5q0 -39 -50 -69.5t-122 -37.5l-40 -43h12q45 0 73.5 -23.5t28.5 -61.5q0 -103 -141 -103q-104 0 -104 54q0 13 4 22q12 -5 35 -8t49 -3q31 0 42.5 8t11.5 28q0 11 -8.5 18.5t-24.5 7.5q-14 0 -28 -5l-37 42l42 67q-136 14 -208.5 106
t-72.5 251q0 113 39.5 194t113.5 124t177 43q63 0 121.5 -21.5t92.5 -57.5q-5 -32 -25 -60t-37 -28q-14 0 -26 9q-34 26 -63.5 37t-64.5 11q-170 0 -170 -251q0 -249 170 -249q45 0 86.5 18t72.5 52q23 -11 37 -30.5z" />
    <glyph glyph-name="Egrave" unicode="&#xc8;" horiz-adv-x="560" 
d="M515 106q0 -61 -11 -83.5t-41 -22.5h-397v700h438v-106h-284v-180h236v-106h-236v-202h295zM122 893h163l61 -151h-106z" />
    <glyph glyph-name="Eacute" unicode="&#xc9;" horiz-adv-x="560" 
d="M515 106q0 -61 -11 -83.5t-41 -22.5h-397v700h438v-106h-284v-180h236v-106h-236v-202h295zM287 893h165l-111 -151h-126z" />
    <glyph glyph-name="Ecircumflex" unicode="&#xca;" horiz-adv-x="560" 
d="M515 106q0 -61 -11 -83.5t-41 -22.5h-397v700h438v-106h-284v-180h236v-106h-236v-202h295zM204 895h153l91 -153h-104l-63 83l-65 -83h-104z" />
    <glyph glyph-name="Edieresis" unicode="&#xcb;" horiz-adv-x="560" 
d="M515 106q0 -61 -11 -83.5t-41 -22.5h-397v700h438v-106h-284v-180h236v-106h-236v-202h295zM110 825v13q0 65 65 65h12q65 0 65 -65v-13q0 -65 -65 -65h-12q-65 0 -65 65zM310 825v13q0 65 65 65h12q65 0 65 -65v-13q0 -65 -65 -65h-12q-65 0 -65 65z" />
    <glyph glyph-name="Igrave" unicode="&#xcc;" horiz-adv-x="350" 
d="M98 700h154v-700h-154v700zM17 893h163l61 -151h-106z" />
    <glyph glyph-name="Iacute" unicode="&#xcd;" horiz-adv-x="350" 
d="M98 700h154v-700h-154v700zM182 893h165l-111 -151h-126z" />
    <glyph glyph-name="Icircumflex" unicode="&#xce;" horiz-adv-x="350" 
d="M98 700h154v-700h-154v700zM99 895h153l91 -153h-104l-63 83l-65 -83h-104z" />
    <glyph glyph-name="Idieresis" unicode="&#xcf;" horiz-adv-x="350" 
d="M98 700h154v-700h-154v700zM5 825v13q0 65 65 65h12q65 0 65 -65v-13q0 -65 -65 -65h-12q-65 0 -65 65zM205 825v13q0 65 65 65h12q65 0 65 -65v-13q0 -65 -65 -65h-12q-65 0 -65 65z" />
    <glyph glyph-name="Eth" unicode="&#xd0;" horiz-adv-x="672" 
d="M486 658q77 -42 118 -120.5t41 -187.5q0 -105 -42.5 -184.5t-119.5 -122.5t-180 -43h-237v307h-65v97h65v296h237q106 0 183 -42zM437 169.5q54 63.5 54 179.5q0 245 -208 245h-63v-190h126v-97h-126v-201h63q100 0 154 63.5z" />
    <glyph glyph-name="Ntilde" unicode="&#xd1;" horiz-adv-x="700" 
d="M632 64q2 -28 2 -37q0 -27 -26 -27h-130v34q0 50 -39 111l-221 340v-485h-152v700h138q13 0 21.5 -3.5t16.5 -16.5l236 -359v379h152v-563q0 -31 2 -73zM207.5 765.5q-17.5 17.5 -17.5 46.5q0 36 24.5 56t62.5 20q22 0 38 -5t37 -14q15 -7 26 -11t24 -4q21 0 29 9.5
t9 27.5q37 0 53.5 -13.5t16.5 -46.5q0 -31 -23 -56t-62 -25q-23 0 -39.5 5t-38.5 14q-16 7 -28 11t-26 4q-19 0 -28 -10t-9 -26q-31 0 -48.5 17.5z" />
    <glyph glyph-name="Ograve" unicode="&#xd2;" horiz-adv-x="680" 
d="M117.5 85.5q-79.5 95.5 -79.5 268.5q0 169 79.5 262.5t222.5 93.5t222.5 -93.5t79.5 -262.5q0 -173 -79.5 -268.5t-222.5 -95.5t-222.5 95.5zM449.5 160.5q34.5 60.5 34.5 193.5q0 130 -34 188t-110 58t-110 -58t-34 -188q0 -133 34.5 -193.5t109.5 -60.5t109.5 60.5z
M182 893h163l61 -151h-106z" />
    <glyph glyph-name="Oacute" unicode="&#xd3;" horiz-adv-x="680" 
d="M117.5 85.5q-79.5 95.5 -79.5 268.5q0 169 79.5 262.5t222.5 93.5t222.5 -93.5t79.5 -262.5q0 -173 -79.5 -268.5t-222.5 -95.5t-222.5 95.5zM449.5 160.5q34.5 60.5 34.5 193.5q0 130 -34 188t-110 58t-110 -58t-34 -188q0 -133 34.5 -193.5t109.5 -60.5t109.5 60.5z
M347 893h165l-111 -151h-126z" />
    <glyph glyph-name="Ocircumflex" unicode="&#xd4;" horiz-adv-x="680" 
d="M117.5 85.5q-79.5 95.5 -79.5 268.5q0 169 79.5 262.5t222.5 93.5t222.5 -93.5t79.5 -262.5q0 -173 -79.5 -268.5t-222.5 -95.5t-222.5 95.5zM449.5 160.5q34.5 60.5 34.5 193.5q0 130 -34 188t-110 58t-110 -58t-34 -188q0 -133 34.5 -193.5t109.5 -60.5t109.5 60.5z
M264 895h153l91 -153h-104l-63 83l-65 -83h-104z" />
    <glyph glyph-name="Otilde" unicode="&#xd5;" horiz-adv-x="680" 
d="M117.5 85.5q-79.5 95.5 -79.5 268.5q0 169 79.5 262.5t222.5 93.5t222.5 -93.5t79.5 -262.5q0 -173 -79.5 -268.5t-222.5 -95.5t-222.5 95.5zM449.5 160.5q34.5 60.5 34.5 193.5q0 130 -34 188t-110 58t-110 -58t-34 -188q0 -133 34.5 -193.5t109.5 -60.5t109.5 60.5z
M198.5 775.5q-17.5 17.5 -17.5 46.5q0 36 24.5 56t62.5 20q22 0 38 -5t37 -14q15 -7 26 -11t24 -4q21 0 29 9.5t9 27.5q37 0 53.5 -13.5t16.5 -46.5q0 -31 -23 -56t-62 -25q-23 0 -39.5 5t-38.5 14q-16 7 -28 11t-26 4q-19 0 -28 -10t-9 -26q-31 0 -48.5 17.5z" />
    <glyph glyph-name="Odieresis" unicode="&#xd6;" horiz-adv-x="680" 
d="M117.5 85.5q-79.5 95.5 -79.5 268.5q0 169 79.5 262.5t222.5 93.5t222.5 -93.5t79.5 -262.5q0 -173 -79.5 -268.5t-222.5 -95.5t-222.5 95.5zM449.5 160.5q34.5 60.5 34.5 193.5q0 130 -34 188t-110 58t-110 -58t-34 -188q0 -133 34.5 -193.5t109.5 -60.5t109.5 60.5z
M170 825v13q0 65 65 65h12q65 0 65 -65v-13q0 -65 -65 -65h-12q-65 0 -65 65zM370 825v13q0 65 65 65h12q65 0 65 -65v-13q0 -65 -65 -65h-12q-65 0 -65 65z" />
    <glyph glyph-name="multiply" unicode="&#xd7;" horiz-adv-x="600" 
d="M95 176l148 148l-148 148l57 57l148 -148l148 148l57 -57l-148 -148l148 -148l-57 -57l-148 148l-148 -148z" />
    <glyph glyph-name="Oslash" unicode="&#xd8;" horiz-adv-x="680" 
d="M642 354q0 -173 -79.5 -268.5t-222.5 -95.5q-108 0 -182 57l-33 -47h-72l62 88q-77 95 -77 266q0 169 79.5 262.5t222.5 93.5q106 0 178 -52l31 43h72l-59 -84q80 -94 80 -263zM209 220l234 332q-33 48 -103 48q-76 0 -110 -58t-34 -188q0 -82 13 -134zM449.5 160.5
q34.5 60.5 34.5 193.5q0 83 -13 135l-237 -335q35 -54 106 -54q75 0 109.5 60.5z" />
    <glyph glyph-name="Ugrave" unicode="&#xd9;" horiz-adv-x="711" 
d="M146.5 55.5q-70.5 65.5 -70.5 195.5v449h154v-471q0 -62 32.5 -95.5t93.5 -33.5q125 0 125 129v471h154v-449q0 -132 -69 -196.5t-210 -64.5q-139 0 -209.5 65.5zM196 893h163l61 -151h-106z" />
    <glyph glyph-name="Uacute" unicode="&#xda;" horiz-adv-x="711" 
d="M146.5 55.5q-70.5 65.5 -70.5 195.5v449h154v-471q0 -62 32.5 -95.5t93.5 -33.5q125 0 125 129v471h154v-449q0 -132 -69 -196.5t-210 -64.5q-139 0 -209.5 65.5zM361 893h165l-111 -151h-126z" />
    <glyph glyph-name="Ucircumflex" unicode="&#xdb;" horiz-adv-x="711" 
d="M146.5 55.5q-70.5 65.5 -70.5 195.5v449h154v-471q0 -62 32.5 -95.5t93.5 -33.5q125 0 125 129v471h154v-449q0 -132 -69 -196.5t-210 -64.5q-139 0 -209.5 65.5zM278 895h153l91 -153h-104l-63 83l-65 -83h-104z" />
    <glyph glyph-name="Udieresis" unicode="&#xdc;" horiz-adv-x="711" 
d="M146.5 55.5q-70.5 65.5 -70.5 195.5v449h154v-471q0 -62 32.5 -95.5t93.5 -33.5q125 0 125 129v471h154v-449q0 -132 -69 -196.5t-210 -64.5q-139 0 -209.5 65.5zM184 825v13q0 65 65 65h12q65 0 65 -65v-13q0 -65 -65 -65h-12q-65 0 -65 65zM384 825v13q0 65 65 65h12
q65 0 65 -65v-13q0 -65 -65 -65h-12q-65 0 -65 65z" />
    <glyph glyph-name="Yacute" unicode="&#xdd;" horiz-adv-x="590" 
d="M580 700l-209 -406v-294h-152v294l-209 406h158l128 -270l127 270h157zM302 883h165l-111 -151h-126z" />
    <glyph glyph-name="Thorn" unicode="&#xde;" horiz-adv-x="641" 
d="M501.5 541.5q70.5 -58.5 70.5 -169.5q0 -114 -71.5 -177.5t-206.5 -63.5h-68v-131h-150v700h150v-100h68q137 0 207.5 -58.5zM387.5 273q32.5 30 32.5 99q0 67 -31.5 91.5t-104.5 24.5h-58v-245h58q71 0 103.5 30z" />
    <glyph glyph-name="germandbls" unicode="&#xdf;" horiz-adv-x="637" 
d="M552 303.5q31 -41.5 31 -104.5q0 -103 -58.5 -158t-152.5 -55q-149 0 -149 91q0 17 9 30t22 16q18 -18 44.5 -29.5t57.5 -11.5q48 0 75 29.5t27 79.5q0 61 -25 87.5t-83 26.5q-8 0 -28 -2l-24 -1q-13 0 -23 34.5t-10 53.5q0 9 7 9h49q52 0 83 32t31 92q0 48 -27.5 81
t-86.5 33q-64 0 -96.5 -35.5t-32.5 -99.5v-502h-128v502q0 71 34 123t93 79t132 27q74 0 128 -25.5t82.5 -71t28.5 -104.5q0 -61 -25 -105.5t-72 -65.5q56 -14 87 -55.5z" />
    <glyph glyph-name="agrave" unicode="&#xe0;" horiz-adv-x="568" 
d="M512.5 89q6.5 -36 26.5 -62q-21 -15 -54 -24.5t-60 -9.5q-25 0 -40 18t-22 57q-27 -42 -64 -60t-96 -18q-73 0 -118 39.5t-45 103.5q0 90 75.5 134.5t242.5 53.5v52q0 41 -21.5 61t-65.5 20q-32 0 -63.5 -12.5t-77.5 -43.5q-5 -4 -14 -4q-18 0 -38.5 24t-36.5 63
q39 34 109.5 56.5t139.5 22.5q104 0 160 -48.5t56 -138.5v-166q0 -82 6.5 -118zM310.5 107q25.5 21 47.5 65v74q-83 -3 -125.5 -27.5t-42.5 -69.5q0 -29 18 -46t47 -17q30 0 55.5 21zM119 773h163l61 -151h-106z" />
    <glyph glyph-name="aacute" unicode="&#xe1;" horiz-adv-x="568" 
d="M512.5 89q6.5 -36 26.5 -62q-21 -15 -54 -24.5t-60 -9.5q-25 0 -40 18t-22 57q-27 -42 -64 -60t-96 -18q-73 0 -118 39.5t-45 103.5q0 90 75.5 134.5t242.5 53.5v52q0 41 -21.5 61t-65.5 20q-32 0 -63.5 -12.5t-77.5 -43.5q-5 -4 -14 -4q-18 0 -38.5 24t-36.5 63
q39 34 109.5 56.5t139.5 22.5q104 0 160 -48.5t56 -138.5v-166q0 -82 6.5 -118zM310.5 107q25.5 21 47.5 65v74q-83 -3 -125.5 -27.5t-42.5 -69.5q0 -29 18 -46t47 -17q30 0 55.5 21zM284 773h165l-111 -151h-126z" />
    <glyph glyph-name="acircumflex" unicode="&#xe2;" horiz-adv-x="568" 
d="M512.5 89q6.5 -36 26.5 -62q-21 -15 -54 -24.5t-60 -9.5q-25 0 -40 18t-22 57q-27 -42 -64 -60t-96 -18q-73 0 -118 39.5t-45 103.5q0 90 75.5 134.5t242.5 53.5v52q0 41 -21.5 61t-65.5 20q-32 0 -63.5 -12.5t-77.5 -43.5q-5 -4 -14 -4q-18 0 -38.5 24t-36.5 63
q39 34 109.5 56.5t139.5 22.5q104 0 160 -48.5t56 -138.5v-166q0 -82 6.5 -118zM310.5 107q25.5 21 47.5 65v74q-83 -3 -125.5 -27.5t-42.5 -69.5q0 -29 18 -46t47 -17q30 0 55.5 21zM201 775h153l91 -153h-104l-63 83l-65 -83h-104z" />
    <glyph glyph-name="atilde" unicode="&#xe3;" horiz-adv-x="568" 
d="M512.5 89q6.5 -36 26.5 -62q-21 -15 -54 -24.5t-60 -9.5q-25 0 -40 18t-22 57q-27 -42 -64 -60t-96 -18q-73 0 -118 39.5t-45 103.5q0 90 75.5 134.5t242.5 53.5v52q0 41 -21.5 61t-65.5 20q-32 0 -63.5 -12.5t-77.5 -43.5q-5 -4 -14 -4q-18 0 -38.5 24t-36.5 63
q39 34 109.5 56.5t139.5 22.5q104 0 160 -48.5t56 -138.5v-166q0 -82 6.5 -118zM310.5 107q25.5 21 47.5 65v74q-83 -3 -125.5 -27.5t-42.5 -69.5q0 -29 18 -46t47 -17q30 0 55.5 21zM135.5 655.5q-17.5 17.5 -17.5 46.5q0 36 24.5 56t62.5 20q22 0 38 -5t37 -14
q15 -7 26 -11t24 -4q21 0 29 9.5t9 27.5q37 0 53.5 -13.5t16.5 -46.5q0 -31 -23 -56t-62 -25q-23 0 -39.5 5t-38.5 14q-16 7 -28 11t-26 4q-19 0 -28 -10t-9 -26q-31 0 -48.5 17.5z" />
    <glyph glyph-name="adieresis" unicode="&#xe4;" horiz-adv-x="568" 
d="M512.5 89q6.5 -36 26.5 -62q-21 -15 -54 -24.5t-60 -9.5q-25 0 -40 18t-22 57q-27 -42 -64 -60t-96 -18q-73 0 -118 39.5t-45 103.5q0 90 75.5 134.5t242.5 53.5v52q0 41 -21.5 61t-65.5 20q-32 0 -63.5 -12.5t-77.5 -43.5q-5 -4 -14 -4q-18 0 -38.5 24t-36.5 63
q39 34 109.5 56.5t139.5 22.5q104 0 160 -48.5t56 -138.5v-166q0 -82 6.5 -118zM310.5 107q25.5 21 47.5 65v74q-83 -3 -125.5 -27.5t-42.5 -69.5q0 -29 18 -46t47 -17q30 0 55.5 21zM107 705v13q0 65 65 65h12q65 0 65 -65v-13q0 -65 -65 -65h-12q-65 0 -65 65zM307 705v13
q0 65 65 65h12q65 0 65 -65v-13q0 -65 -65 -65h-12q-65 0 -65 65z" />
    <glyph glyph-name="aring" unicode="&#xe5;" horiz-adv-x="568" 
d="M512.5 89q6.5 -36 26.5 -62q-21 -15 -54 -24.5t-60 -9.5q-25 0 -40 18t-22 57q-27 -42 -64 -60t-96 -18q-73 0 -118 39.5t-45 103.5q0 90 75.5 134.5t242.5 53.5v52q0 41 -21.5 61t-65.5 20q-32 0 -63.5 -12.5t-77.5 -43.5q-5 -4 -14 -4q-18 0 -38.5 24t-36.5 63
q39 34 109.5 56.5t139.5 22.5q104 0 160 -48.5t56 -138.5v-166q0 -82 6.5 -118zM310.5 107q25.5 21 47.5 65v74q-83 -3 -125.5 -27.5t-42.5 -69.5q0 -29 18 -46t47 -17q30 0 55.5 21zM183 673q-38 37 -38 94t38.5 94.5t93.5 37.5q36 0 66 -17t48 -47t18 -68q0 -57 -38.5 -94
t-93.5 -37q-56 0 -94 37zM307.5 736.5q12.5 12.5 12.5 30.5q0 19 -12.5 31t-30.5 12q-19 0 -31.5 -12t-12.5 -31q0 -18 12.5 -30.5t31.5 -12.5q18 0 30.5 12.5z" />
    <glyph glyph-name="ae" unicode="&#xe6;" horiz-adv-x="890" 
d="M853 248h-339q8 -162 106 -162q38 0 59 16t35 35.5t20 26.5q8 9 21 9q19 0 44.5 -13t49.5 -32q-65 -140 -229 -140q-124 0 -192 77q-33 -35 -82 -56t-113 -21q-90 0 -141.5 37.5t-51.5 106.5q0 97 79 146.5t244 52.5v42q0 39 -20 60t-59 21q-37 0 -66.5 -12t-72.5 -38
l-18 -11q-8 -4 -13 -4q-18 0 -37.5 25.5t-35.5 66.5q46 33 111 56t138 23q51 0 93 -15t71 -42q69 57 175 57q105 0 168 -60t63 -178q0 -37 -7 -74zM710 332q0 66 -20 100t-64 34q-96 0 -110 -134h194zM327.5 107.5q31.5 23.5 46.5 68.5q-8 31 -10 72q-174 -5 -174 -100
q0 -29 18 -46.5t47 -17.5q41 0 72.5 23.5z" />
    <glyph glyph-name="ccedilla" unicode="&#xe7;" horiz-adv-x="577" 
d="M495 198q24 -20 24 -65q0 -49 -47 -88t-116 -51l-43 -45h12q45 0 73.5 -23.5t28.5 -61.5q0 -103 -141 -103q-104 0 -104 54q0 13 4 22q12 -5 35 -8t49 -3q31 0 42.5 8t11.5 28q0 11 -8.5 18.5t-24.5 7.5q-14 0 -28 -5l-37 42l42 66q-238 19 -238 287q0 132 71 207t196 75
q98 0 161.5 -48.5t74.5 -131.5q-58 -35 -96 -35q-16 0 -26.5 10t-17.5 32q-15 42 -37 59.5t-59 17.5q-56 0 -86.5 -48t-30.5 -138q0 -97 30.5 -142.5t95.5 -45.5q45 0 71 30.5t39 97.5q55 0 79 -20z" />
    <glyph glyph-name="egrave" unicode="&#xe8;" horiz-adv-x="580" 
d="M545 248h-354q5 -76 36.5 -118t82.5 -42q23 0 38.5 6t32 21.5t43.5 50.5q5 8 21 8q17 0 41.5 -11.5t52.5 -32.5q-65 -140 -229 -140q-126 0 -198 76.5t-72 209.5q0 87 32.5 151t93 98.5t143.5 34.5q115 0 178 -65t63 -184q0 -14 -5 -63zM400 332q0 134 -94 134
q-48 0 -77 -34t-36 -100h207zM138 773h163l61 -151h-106z" />
    <glyph glyph-name="eacute" unicode="&#xe9;" horiz-adv-x="580" 
d="M545 248h-354q5 -76 36.5 -118t82.5 -42q23 0 38.5 6t32 21.5t43.5 50.5q5 8 21 8q17 0 41.5 -11.5t52.5 -32.5q-65 -140 -229 -140q-126 0 -198 76.5t-72 209.5q0 87 32.5 151t93 98.5t143.5 34.5q115 0 178 -65t63 -184q0 -14 -5 -63zM400 332q0 134 -94 134
q-48 0 -77 -34t-36 -100h207zM303 773h165l-111 -151h-126z" />
    <glyph glyph-name="ecircumflex" unicode="&#xea;" horiz-adv-x="580" 
d="M545 248h-354q5 -76 36.5 -118t82.5 -42q23 0 38.5 6t32 21.5t43.5 50.5q5 8 21 8q17 0 41.5 -11.5t52.5 -32.5q-65 -140 -229 -140q-126 0 -198 76.5t-72 209.5q0 87 32.5 151t93 98.5t143.5 34.5q115 0 178 -65t63 -184q0 -14 -5 -63zM400 332q0 134 -94 134
q-48 0 -77 -34t-36 -100h207zM220 775h153l91 -153h-104l-63 83l-65 -83h-104z" />
    <glyph glyph-name="edieresis" unicode="&#xeb;" horiz-adv-x="580" 
d="M545 248h-354q5 -76 36.5 -118t82.5 -42q23 0 38.5 6t32 21.5t43.5 50.5q5 8 21 8q17 0 41.5 -11.5t52.5 -32.5q-65 -140 -229 -140q-126 0 -198 76.5t-72 209.5q0 87 32.5 151t93 98.5t143.5 34.5q115 0 178 -65t63 -184q0 -14 -5 -63zM400 332q0 134 -94 134
q-48 0 -77 -34t-36 -100h207zM126 705v13q0 65 65 65h12q65 0 65 -65v-13q0 -65 -65 -65h-12q-65 0 -65 65zM326 705v13q0 65 65 65h12q65 0 65 -65v-13q0 -65 -65 -65h-12q-65 0 -65 65z" />
    <glyph glyph-name="igrave" unicode="&#xec;" horiz-adv-x="288" 
d="M70 550h148v-550h-148v550zM-14 773h163l61 -151h-106z" />
    <glyph glyph-name="iacute" unicode="&#xed;" horiz-adv-x="288" 
d="M70 550h148v-550h-148v550zM151 773h165l-111 -151h-126z" />
    <glyph glyph-name="icircumflex" unicode="&#xee;" horiz-adv-x="288" 
d="M70 550h148v-550h-148v550zM68 775h153l91 -153h-104l-63 83l-65 -83h-104z" />
    <glyph glyph-name="idieresis" unicode="&#xef;" horiz-adv-x="288" 
d="M70 550h148v-550h-148v550zM-26 705v13q0 65 65 65h12q65 0 65 -65v-13q0 -65 -65 -65h-12q-65 0 -65 65zM174 705v13q0 65 65 65h12q65 0 65 -65v-13q0 -65 -65 -65h-12q-65 0 -65 65z" />
    <glyph glyph-name="eth" unicode="&#xf0;" horiz-adv-x="607" 
d="M528 514q39 -98 39 -209q0 -161 -64.5 -239t-198.5 -78q-130 0 -197 74.5t-67 202.5q0 79 29.5 141t89 98t145.5 36q27 0 50 -5q-23 37 -56 79l-75 -49l-44 61l66 43q-34 31 -73 58l106 77q41 -26 81 -59l77 50l43 -62l-64 -42q74 -79 113 -177zM390.5 123.5
q26.5 41.5 26.5 141.5q0 95 -27 138t-86 43q-60 0 -87 -43t-27 -138q0 -100 26.5 -141.5t87.5 -41.5q60 0 86.5 41.5z" />
    <glyph glyph-name="ntilde" unicode="&#xf1;" horiz-adv-x="610" 
d="M544 63q4 -25 15 -46q-59 -22 -122 -22q-25 0 -35 24t-10 83v261q0 52 -15.5 72.5t-54.5 20.5q-52 0 -114 -51v-405h-148v370q0 67 -2.5 103t-9.5 58q74 23 121 23q21 0 30 -13.5t9 -44.5v-12q51 43 86.5 59.5t74.5 16.5q86 0 128.5 -46.5t42.5 -141.5v-234q0 -50 4 -75z
M163.5 655.5q-17.5 17.5 -17.5 46.5q0 36 24.5 56t62.5 20q22 0 38 -5t37 -14q15 -7 26 -11t24 -4q21 0 29 9.5t9 27.5q37 0 53.5 -13.5t16.5 -46.5q0 -31 -23 -56t-62 -25q-23 0 -39.5 5t-38.5 14q-16 7 -28 11t-26 4q-19 0 -28 -10t-9 -26q-31 0 -48.5 17.5z" />
    <glyph glyph-name="ograve" unicode="&#xf2;" horiz-adv-x="568" 
d="M96.5 65q-66.5 75 -66.5 211t66.5 210t187.5 74t187.5 -74t66.5 -210t-66.5 -211t-187.5 -75t-187.5 75zM363.5 131q24.5 45 24.5 145q0 99 -24.5 143.5t-79.5 44.5t-79.5 -44t-24.5 -144t24.5 -145t79.5 -45t79.5 45zM126 773h163l61 -151h-106z" />
    <glyph glyph-name="oacute" unicode="&#xf3;" horiz-adv-x="568" 
d="M96.5 65q-66.5 75 -66.5 211t66.5 210t187.5 74t187.5 -74t66.5 -210t-66.5 -211t-187.5 -75t-187.5 75zM363.5 131q24.5 45 24.5 145q0 99 -24.5 143.5t-79.5 44.5t-79.5 -44t-24.5 -144t24.5 -145t79.5 -45t79.5 45zM291 773h165l-111 -151h-126z" />
    <glyph glyph-name="ocircumflex" unicode="&#xf4;" horiz-adv-x="568" 
d="M96.5 65q-66.5 75 -66.5 211t66.5 210t187.5 74t187.5 -74t66.5 -210t-66.5 -211t-187.5 -75t-187.5 75zM363.5 131q24.5 45 24.5 145q0 99 -24.5 143.5t-79.5 44.5t-79.5 -44t-24.5 -144t24.5 -145t79.5 -45t79.5 45zM208 775h153l91 -153h-104l-63 83l-65 -83h-104z
" />
    <glyph glyph-name="otilde" unicode="&#xf5;" horiz-adv-x="568" 
d="M96.5 65q-66.5 75 -66.5 211t66.5 210t187.5 74t187.5 -74t66.5 -210t-66.5 -211t-187.5 -75t-187.5 75zM363.5 131q24.5 45 24.5 145q0 99 -24.5 143.5t-79.5 44.5t-79.5 -44t-24.5 -144t24.5 -145t79.5 -45t79.5 45zM142.5 655.5q-17.5 17.5 -17.5 46.5q0 36 24.5 56
t62.5 20q22 0 38 -5t37 -14q15 -7 26 -11t24 -4q21 0 29 9.5t9 27.5q37 0 53.5 -13.5t16.5 -46.5q0 -31 -23 -56t-62 -25q-23 0 -39.5 5t-38.5 14q-16 7 -28 11t-26 4q-19 0 -28 -10t-9 -26q-31 0 -48.5 17.5z" />
    <glyph glyph-name="odieresis" unicode="&#xf6;" horiz-adv-x="568" 
d="M96.5 65q-66.5 75 -66.5 211t66.5 210t187.5 74t187.5 -74t66.5 -210t-66.5 -211t-187.5 -75t-187.5 75zM363.5 131q24.5 45 24.5 145q0 99 -24.5 143.5t-79.5 44.5t-79.5 -44t-24.5 -144t24.5 -145t79.5 -45t79.5 45zM114 705v13q0 65 65 65h12q65 0 65 -65v-13
q0 -65 -65 -65h-12q-65 0 -65 65zM314 705v13q0 65 65 65h12q65 0 65 -65v-13q0 -65 -65 -65h-12q-65 0 -65 65z" />
    <glyph glyph-name="divide" unicode="&#xf7;" horiz-adv-x="600" 
d="M243 470q-18 18 -18 46t18 45.5t46 17.5q29 0 47 -17.5t18 -45.5t-18.5 -46t-46.5 -18t-46 18zM70 364h460v-80h-460v80zM243 90.5q-18 17.5 -18 45.5t18 46.5t46 18.5q29 0 47 -18t18 -47q0 -28 -18 -45.5t-47 -17.5q-28 0 -46 17.5z" />
    <glyph glyph-name="oslash" unicode="&#xf8;" horiz-adv-x="568" 
d="M538 276q0 -136 -66.5 -211t-187.5 -75q-86 0 -148 40l-22 -30h-84l57 77q-57 74 -57 199q0 136 66.5 210t187.5 74q77 0 134 -31l16 21h84l-47 -64q67 -73 67 -210zM183 209l168 228q-24 27 -67 27q-55 0 -79.5 -44t-24.5 -144q0 -37 3 -67zM363.5 131q24.5 45 24.5 145
q0 54 -7 88l-174 -237q25 -41 77 -41q55 0 79.5 45z" />
    <glyph glyph-name="ugrave" unicode="&#xf9;" horiz-adv-x="630" 
d="M560.5 61q3.5 -26 11.5 -44q-20 -10 -48 -16t-53 -6q-29 0 -43 14t-18 47q-29 -32 -70.5 -49t-90.5 -17q-87 0 -133 47.5t-46 137.5v375h148v-368q0 -53 16.5 -75.5t56.5 -22.5q71 0 117 72v394h149v-417q0 -46 3.5 -72zM157 773h163l61 -151h-106z" />
    <glyph glyph-name="uacute" unicode="&#xfa;" horiz-adv-x="630" 
d="M560.5 61q3.5 -26 11.5 -44q-20 -10 -48 -16t-53 -6q-29 0 -43 14t-18 47q-29 -32 -70.5 -49t-90.5 -17q-87 0 -133 47.5t-46 137.5v375h148v-368q0 -53 16.5 -75.5t56.5 -22.5q71 0 117 72v394h149v-417q0 -46 3.5 -72zM322 773h165l-111 -151h-126z" />
    <glyph glyph-name="ucircumflex" unicode="&#xfb;" horiz-adv-x="630" 
d="M560.5 61q3.5 -26 11.5 -44q-20 -10 -48 -16t-53 -6q-29 0 -43 14t-18 47q-29 -32 -70.5 -49t-90.5 -17q-87 0 -133 47.5t-46 137.5v375h148v-368q0 -53 16.5 -75.5t56.5 -22.5q71 0 117 72v394h149v-417q0 -46 3.5 -72zM239 775h153l91 -153h-104l-63 83l-65 -83h-104z
" />
    <glyph glyph-name="udieresis" unicode="&#xfc;" horiz-adv-x="630" 
d="M560.5 61q3.5 -26 11.5 -44q-20 -10 -48 -16t-53 -6q-29 0 -43 14t-18 47q-29 -32 -70.5 -49t-90.5 -17q-87 0 -133 47.5t-46 137.5v375h148v-368q0 -53 16.5 -75.5t56.5 -22.5q71 0 117 72v394h149v-417q0 -46 3.5 -72zM145 705v13q0 65 65 65h12q65 0 65 -65v-13
q0 -65 -65 -65h-12q-65 0 -65 65zM345 705v13q0 65 65 65h12q65 0 65 -65v-13q0 -65 -65 -65h-12q-65 0 -65 65z" />
    <glyph glyph-name="yacute" unicode="&#xfd;" horiz-adv-x="535" 
d="M539 550l-213 -592q-34 -94 -81 -133t-127 -39q-50 0 -81 20t-31 52q0 17 6 30.5t21 31.5q25 -17 61 -17q38 0 59.5 22.5t41.5 83.5l-196 541h152l119 -368l117 368h152zM275 773h165l-111 -151h-126z" />
    <glyph glyph-name="thorn" unicode="&#xfe;" horiz-adv-x="609" 
d="M511 491q59 -69 59 -219q0 -145 -69.5 -214.5t-183.5 -69.5q-50 0 -106 23v-239h-148v1008h148v-275q25 25 57 40t80 15q104 0 163 -69zM387 125q33 41 33 147q0 105 -25 149.5t-73 44.5q-31 0 -61 -16.5t-50 -40.5v-302q41 -23 81 -23q62 0 95 41z" />
    <glyph glyph-name="ydieresis" unicode="&#xff;" horiz-adv-x="535" 
d="M539 550l-213 -592q-34 -94 -81 -133t-127 -39q-50 0 -81 20t-31 52q0 17 6 30.5t21 31.5q25 -17 61 -17q38 0 59.5 22.5t41.5 83.5l-196 541h152l119 -368l117 368h152zM98 705v13q0 65 65 65h12q65 0 65 -65v-13q0 -65 -65 -65h-12q-65 0 -65 65zM298 705v13
q0 65 65 65h12q65 0 65 -65v-13q0 -65 -65 -65h-12q-65 0 -65 65z" />
    <glyph glyph-name="Amacron" unicode="&#x100;" horiz-adv-x="660" 
d="M466 173h-272q-14 -66 -29 -173h-150q38 363 238 700h155q199 -335 237 -700h-150q-15 107 -29 173zM442 283q-42 165 -112 303q-70 -138 -112 -303h224zM167 854h326v-100h-326v100z" />
    <glyph glyph-name="amacron" unicode="&#x101;" horiz-adv-x="568" 
d="M512.5 89q6.5 -36 26.5 -62q-21 -15 -54 -24.5t-60 -9.5q-25 0 -40 18t-22 57q-27 -42 -64 -60t-96 -18q-73 0 -118 39.5t-45 103.5q0 90 75.5 134.5t242.5 53.5v52q0 41 -21.5 61t-65.5 20q-32 0 -63.5 -12.5t-77.5 -43.5q-5 -4 -14 -4q-18 0 -38.5 24t-36.5 63
q39 34 109.5 56.5t139.5 22.5q104 0 160 -48.5t56 -138.5v-166q0 -82 6.5 -118zM310.5 107q25.5 21 47.5 65v74q-83 -3 -125.5 -27.5t-42.5 -69.5q0 -29 18 -46t47 -17q30 0 55.5 21zM114 744h326v-100h-326v100z" />
    <glyph glyph-name="Abreve" unicode="&#x102;" horiz-adv-x="660" 
d="M466 173h-272q-14 -66 -29 -173h-150q38 363 238 700h155q199 -335 237 -700h-150q-15 107 -29 173zM442 283q-42 165 -112 303q-70 -138 -112 -303h224zM236.5 745.5q-39.5 14.5 -59.5 37.5t-20 49q0 29 23.5 45.5t62.5 16.5q2 -34 24.5 -53.5t62.5 -19.5q39 0 62 21.5
t26 56.5q44 0 65 -16t21 -50q0 -28 -21 -51.5t-60.5 -37t-92.5 -13.5q-54 0 -93.5 14.5z" />
    <glyph glyph-name="abreve" unicode="&#x103;" horiz-adv-x="568" 
d="M512.5 89q6.5 -36 26.5 -62q-21 -15 -54 -24.5t-60 -9.5q-25 0 -40 18t-22 57q-27 -42 -64 -60t-96 -18q-73 0 -118 39.5t-45 103.5q0 90 75.5 134.5t242.5 53.5v52q0 41 -21.5 61t-65.5 20q-32 0 -63.5 -12.5t-77.5 -43.5q-5 -4 -14 -4q-18 0 -38.5 24t-36.5 63
q39 34 109.5 56.5t139.5 22.5q104 0 160 -48.5t56 -138.5v-166q0 -82 6.5 -118zM310.5 107q25.5 21 47.5 65v74q-83 -3 -125.5 -27.5t-42.5 -69.5q0 -29 18 -46t47 -17q30 0 55.5 21zM183.5 635.5q-39.5 14.5 -59.5 37.5t-20 49q0 29 23.5 45.5t62.5 16.5q2 -34 24.5 -53.5
t62.5 -19.5q39 0 62 21.5t26 56.5q44 0 65 -16t21 -50q0 -28 -21 -51.5t-60.5 -37t-92.5 -13.5q-54 0 -93.5 14.5z" />
    <glyph glyph-name="Aogonek" unicode="&#x104;" horiz-adv-x="660" 
d="M466 173h-272q-14 -66 -29 -173h-150q38 363 238 700h155q199 -335 237 -700h-150q-15 107 -29 173zM442 283q-42 165 -112 303q-70 -138 -112 -303h224zM491 -127q0 79 93 127h61q-22 -28 -32.5 -50t-10.5 -48q0 -18 7.5 -28t21.5 -10q18 0 32 10q11 -8 16 -16t5 -20
q0 -23 -21.5 -35.5t-59.5 -12.5q-112 0 -112 83z" />
    <glyph glyph-name="aogonek" unicode="&#x105;" horiz-adv-x="568" 
d="M536 -132q5 -8 5 -20q0 -23 -21.5 -35.5t-59.5 -12.5q-112 0 -112 83q0 68 66 111q-20 4 -32.5 22t-18.5 52q-27 -42 -64 -60t-96 -18q-73 0 -118 39.5t-45 103.5q0 90 75.5 134.5t242.5 53.5v52q0 41 -21.5 61t-65.5 20q-32 0 -63.5 -12.5t-77.5 -43.5q-5 -4 -14 -4
q-18 0 -38.5 24t-36.5 63q39 34 109.5 56.5t139.5 22.5q104 0 160 -48.5t56 -138.5v-166q0 -82 6.5 -118t26.5 -62q-20 -13 -39 -19q-21 -26 -31 -48.5t-10 -47.5q0 -18 7.5 -28t21.5 -10q18 0 32 10q11 -8 16 -16zM310.5 107q25.5 21 47.5 65v74q-83 -3 -125.5 -27.5
t-42.5 -69.5q0 -29 18 -46t47 -17q30 0 55.5 21z" />
    <glyph glyph-name="Cacute" unicode="&#x106;" horiz-adv-x="636" 
d="M137.5 83q-85.5 93 -85.5 266q0 113 39.5 194t113.5 124t177 43q63 0 121.5 -21.5t92.5 -57.5q-5 -32 -25 -60t-37 -28q-14 0 -26 9q-34 26 -63.5 37t-64.5 11q-170 0 -170 -251q0 -249 170 -249q45 0 86.5 18t72.5 52q23 -11 37 -30.5t14 -40.5q0 -29 -28.5 -54
t-76.5 -40t-103 -15q-159 0 -244.5 93zM379 883h165l-111 -151h-126z" />
    <glyph glyph-name="cacute" unicode="&#x107;" horiz-adv-x="577" 
d="M30 278q0 132 71 207t196 75q98 0 161.5 -48.5t74.5 -131.5q-58 -35 -96 -35q-16 0 -26.5 10t-17.5 32q-15 42 -37 59.5t-59 17.5q-56 0 -86.5 -48t-30.5 -138q0 -97 30.5 -142.5t95.5 -45.5q45 0 71 30.5t39 97.5q55 0 79 -20t24 -65q0 -38 -29.5 -71t-78.5 -52.5
t-105 -19.5q-276 0 -276 288zM314 773h165l-111 -151h-126z" />
    <glyph glyph-name="Ccircumflex" unicode="&#x108;" horiz-adv-x="636" 
d="M137.5 83q-85.5 93 -85.5 266q0 113 39.5 194t113.5 124t177 43q63 0 121.5 -21.5t92.5 -57.5q-5 -32 -25 -60t-37 -28q-14 0 -26 9q-34 26 -63.5 37t-64.5 11q-170 0 -170 -251q0 -249 170 -249q45 0 86.5 18t72.5 52q23 -11 37 -30.5t14 -40.5q0 -29 -28.5 -54
t-76.5 -40t-103 -15q-159 0 -244.5 93zM296 885h153l91 -153h-104l-63 83l-65 -83h-104z" />
    <glyph glyph-name="ccircumflex" unicode="&#x109;" horiz-adv-x="577" 
d="M30 278q0 132 71 207t196 75q98 0 161.5 -48.5t74.5 -131.5q-58 -35 -96 -35q-16 0 -26.5 10t-17.5 32q-15 42 -37 59.5t-59 17.5q-56 0 -86.5 -48t-30.5 -138q0 -97 30.5 -142.5t95.5 -45.5q45 0 71 30.5t39 97.5q55 0 79 -20t24 -65q0 -38 -29.5 -71t-78.5 -52.5
t-105 -19.5q-276 0 -276 288zM231 775h153l91 -153h-104l-63 83l-65 -83h-104z" />
    <glyph glyph-name="Cdotaccent" unicode="&#x10a;" horiz-adv-x="636" 
d="M137.5 83q-85.5 93 -85.5 266q0 113 39.5 194t113.5 124t177 43q63 0 121.5 -21.5t92.5 -57.5q-5 -32 -25 -60t-37 -28q-14 0 -26 9q-34 26 -63.5 37t-64.5 11q-170 0 -170 -251q0 -249 170 -249q45 0 86.5 18t72.5 52q23 -11 37 -30.5t14 -40.5q0 -29 -28.5 -54
t-76.5 -40t-103 -15q-159 0 -244.5 93zM287 839v15q0 78 78 78h14q78 0 78 -78v-15q0 -78 -78 -78h-14q-78 0 -78 78z" />
    <glyph glyph-name="cdotaccent" unicode="&#x10b;" horiz-adv-x="577" 
d="M30 278q0 132 71 207t196 75q98 0 161.5 -48.5t74.5 -131.5q-58 -35 -96 -35q-16 0 -26.5 10t-17.5 32q-15 42 -37 59.5t-59 17.5q-56 0 -86.5 -48t-30.5 -138q0 -97 30.5 -142.5t95.5 -45.5q45 0 71 30.5t39 97.5q55 0 79 -20t24 -65q0 -38 -29.5 -71t-78.5 -52.5
t-105 -19.5q-276 0 -276 288zM222 729v15q0 78 78 78h14q78 0 78 -78v-15q0 -78 -78 -78h-14q-78 0 -78 78z" />
    <glyph glyph-name="Ccaron" unicode="&#x10c;" horiz-adv-x="636" 
d="M137.5 83q-85.5 93 -85.5 266q0 113 39.5 194t113.5 124t177 43q63 0 121.5 -21.5t92.5 -57.5q-5 -32 -25 -60t-37 -28q-14 0 -26 9q-34 26 -63.5 37t-64.5 11q-170 0 -170 -251q0 -249 170 -249q45 0 86.5 18t72.5 52q23 -11 37 -30.5t14 -40.5q0 -29 -28.5 -54
t-76.5 -40t-103 -15q-159 0 -244.5 93zM204 887h104l65 -83l63 83h104l-91 -153h-153z" />
    <glyph glyph-name="ccaron" unicode="&#x10d;" horiz-adv-x="577" 
d="M30 278q0 132 71 207t196 75q98 0 161.5 -48.5t74.5 -131.5q-58 -35 -96 -35q-16 0 -26.5 10t-17.5 32q-15 42 -37 59.5t-59 17.5q-56 0 -86.5 -48t-30.5 -138q0 -97 30.5 -142.5t95.5 -45.5q45 0 71 30.5t39 97.5q55 0 79 -20t24 -65q0 -38 -29.5 -71t-78.5 -52.5
t-105 -19.5q-276 0 -276 288zM139 777h104l65 -83l63 83h104l-91 -153h-153z" />
    <glyph glyph-name="Dcaron" unicode="&#x10e;" horiz-adv-x="672" 
d="M486 658q77 -42 118 -120.5t41 -187.5q0 -105 -42.5 -184.5t-119.5 -122.5t-180 -43h-237v700h237q106 0 183 -42zM437 169.5q54 63.5 54 179.5q0 245 -208 245h-63v-488h63q100 0 154 63.5zM168 877h104l65 -83l63 83h104l-91 -153h-153z" />
    <glyph glyph-name="dcaron" unicode="&#x10f;" horiz-adv-x="686" 
d="M543.5 89.5q6.5 -36.5 26.5 -62.5q-28 -16 -59.5 -25t-59.5 -9q-23 0 -36.5 17t-20.5 53q-23 -36 -59 -54.5t-82 -18.5q-106 0 -164.5 74.5t-58.5 208.5q0 87 31 152t88 100t133 35q60 0 107 -26v257h148v-584q0 -81 6.5 -117.5zM389 163v273q-35 30 -91 30t-87 -50.5
t-31 -142.5q0 -96 24 -141.5t74 -45.5q70 0 111 77zM606.5 472.5q-12.5 3.5 -19.5 8.5q9 18 16 47.5t7 55.5q0 48 -25 66q0 23 19.5 41.5t50.5 18.5q40 0 60 -23t20 -65q0 -33 -13 -68.5t-31 -55.5q-26 -29 -61 -29q-11 0 -23.5 3.5z" />
    <glyph glyph-name="Dcroat" unicode="&#x110;" horiz-adv-x="672" 
d="M486 658q77 -42 118 -120.5t41 -187.5q0 -105 -42.5 -184.5t-119.5 -122.5t-180 -43h-237v307h-65v97h65v296h237q106 0 183 -42zM437 169.5q54 63.5 54 179.5q0 245 -208 245h-63v-190h126v-97h-126v-201h63q100 0 154 63.5z" />
    <glyph glyph-name="dcroat" unicode="&#x111;" horiz-adv-x="602" 
d="M537 630v-423q0 -81 6.5 -117.5t26.5 -62.5q-28 -16 -59.5 -25t-59.5 -9q-23 0 -36.5 17t-20.5 53q-23 -36 -59 -54.5t-82 -18.5q-106 0 -164.5 74.5t-58.5 208.5q0 87 31 152t88 100t133 35q60 0 107 -26v96h-98v90h98v71h148v-71h65v-90h-65zM389 163v273
q-35 30 -91 30t-87 -50.5t-31 -142.5q0 -96 24 -141.5t74 -45.5q70 0 111 77z" />
    <glyph glyph-name="Emacron" unicode="&#x112;" horiz-adv-x="560" 
d="M515 106q0 -61 -11 -83.5t-41 -22.5h-397v700h438v-106h-284v-180h236v-106h-236v-202h295zM117 864h326v-100h-326v100z" />
    <glyph glyph-name="emacron" unicode="&#x113;" horiz-adv-x="580" 
d="M545 248h-354q5 -76 36.5 -118t82.5 -42q23 0 38.5 6t32 21.5t43.5 50.5q5 8 21 8q17 0 41.5 -11.5t52.5 -32.5q-65 -140 -229 -140q-126 0 -198 76.5t-72 209.5q0 87 32.5 151t93 98.5t143.5 34.5q115 0 178 -65t63 -184q0 -14 -5 -63zM400 332q0 134 -94 134
q-48 0 -77 -34t-36 -100h207zM133 744h326v-100h-326v100z" />
    <glyph glyph-name="Ebreve" unicode="&#x114;" horiz-adv-x="560" 
d="M515 106q0 -61 -11 -83.5t-41 -22.5h-397v700h438v-106h-284v-180h236v-106h-236v-202h295zM186.5 755.5q-39.5 14.5 -59.5 37.5t-20 49q0 29 23.5 45.5t62.5 16.5q2 -34 24.5 -53.5t62.5 -19.5q39 0 62 21.5t26 56.5q44 0 65 -16t21 -50q0 -28 -21 -51.5t-60.5 -37
t-92.5 -13.5q-54 0 -93.5 14.5z" />
    <glyph glyph-name="ebreve" unicode="&#x115;" horiz-adv-x="580" 
d="M545 248h-354q5 -76 36.5 -118t82.5 -42q23 0 38.5 6t32 21.5t43.5 50.5q5 8 21 8q17 0 41.5 -11.5t52.5 -32.5q-65 -140 -229 -140q-126 0 -198 76.5t-72 209.5q0 87 32.5 151t93 98.5t143.5 34.5q115 0 178 -65t63 -184q0 -14 -5 -63zM400 332q0 134 -94 134
q-48 0 -77 -34t-36 -100h207zM202.5 635.5q-39.5 14.5 -59.5 37.5t-20 49q0 29 23.5 45.5t62.5 16.5q2 -34 24.5 -53.5t62.5 -19.5q39 0 62 21.5t26 56.5q44 0 65 -16t21 -50q0 -28 -21 -51.5t-60.5 -37t-92.5 -13.5q-54 0 -93.5 14.5z" />
    <glyph glyph-name="Edotaccent" unicode="&#x116;" horiz-adv-x="560" 
d="M515 106q0 -61 -11 -83.5t-41 -22.5h-397v700h438v-106h-284v-180h236v-106h-236v-202h295zM195 849v15q0 78 78 78h14q78 0 78 -78v-15q0 -78 -78 -78h-14q-78 0 -78 78z" />
    <glyph glyph-name="edotaccent" unicode="&#x117;" horiz-adv-x="580" 
d="M545 248h-354q5 -76 36.5 -118t82.5 -42q23 0 38.5 6t32 21.5t43.5 50.5q5 8 21 8q17 0 41.5 -11.5t52.5 -32.5q-65 -140 -229 -140q-126 0 -198 76.5t-72 209.5q0 87 32.5 151t93 98.5t143.5 34.5q115 0 178 -65t63 -184q0 -14 -5 -63zM400 332q0 134 -94 134
q-48 0 -77 -34t-36 -100h207zM211 729v15q0 78 78 78h14q78 0 78 -78v-15q0 -78 -78 -78h-14q-78 0 -78 78z" />
    <glyph glyph-name="Eogonek" unicode="&#x118;" horiz-adv-x="560" 
d="M528 -132q5 -8 5 -20q0 -23 -21.5 -35.5t-59.5 -12.5q-112 0 -112 83q0 71 75 117h-349v700h438v-106h-284v-180h236v-106h-236v-202h295q0 -43 -5 -66t-18 -32q-21 -26 -31 -48.5t-10 -47.5q0 -18 7.5 -28t21.5 -10q18 0 32 10q11 -8 16 -16z" />
    <glyph glyph-name="eogonek" unicode="&#x119;" horiz-adv-x="580" 
d="M545 248h-354q5 -76 36.5 -118t82.5 -42q23 0 38.5 6t32 21.5t43.5 50.5q5 8 21 8q17 0 41.5 -11.5t52.5 -32.5q-47 -101 -145 -129q-18 -24 -27 -44.5t-9 -44.5q0 -18 7.5 -28t21.5 -10q18 0 32 10q11 -8 16 -16t5 -20q0 -23 -21.5 -35.5t-59.5 -12.5q-112 0 -112 83
q0 63 60 107q-125 1 -196 77t-71 209q0 87 32.5 151t93 98.5t143.5 34.5q115 0 178 -65t63 -184q0 -14 -5 -63zM400 332q0 134 -94 134q-48 0 -77 -34t-36 -100h207z" />
    <glyph glyph-name="Ecaron" unicode="&#x11a;" horiz-adv-x="560" 
d="M515 106q0 -61 -11 -83.5t-41 -22.5h-397v700h438v-106h-284v-180h236v-106h-236v-202h295zM112 897h104l65 -83l63 83h104l-91 -153h-153z" />
    <glyph glyph-name="ecaron" unicode="&#x11b;" horiz-adv-x="580" 
d="M545 248h-354q5 -76 36.5 -118t82.5 -42q23 0 38.5 6t32 21.5t43.5 50.5q5 8 21 8q17 0 41.5 -11.5t52.5 -32.5q-65 -140 -229 -140q-126 0 -198 76.5t-72 209.5q0 87 32.5 151t93 98.5t143.5 34.5q115 0 178 -65t63 -184q0 -14 -5 -63zM400 332q0 134 -94 134
q-48 0 -77 -34t-36 -100h207zM128 777h104l65 -83l63 83h104l-91 -153h-153z" />
    <glyph glyph-name="Gcircumflex" unicode="&#x11c;" horiz-adv-x="686" 
d="M634 384v-311q-90 -83 -252 -83q-163 0 -246.5 91t-83.5 269q0 108 42 189.5t119 126t179 44.5q76 0 137 -18.5t102 -54.5q-8 -31 -30.5 -60t-37.5 -29q-7 0 -12.5 2t-15.5 8q-34 22 -69 32t-76 10q-88 0 -134 -64t-46 -186q0 -250 170 -250q72 0 102 22v156h-61
q-31 0 -44 23.5t-13 82.5h270zM301 885h153l91 -153h-104l-63 83l-65 -83h-104z" />
    <glyph glyph-name="gcircumflex" unicode="&#x11d;" horiz-adv-x="585" 
d="M492 84.5q64 -40.5 64 -115.5q0 -81 -72 -128.5t-195 -47.5q-124 0 -191.5 39.5t-67.5 112.5q0 94 134 107v3q-41 8 -63.5 28.5t-22.5 49.5q0 27 22 47.5t59 30.5q-49 25 -78 65t-29 88q0 94 64.5 145t181.5 51q59 0 108 -20q23 31 54.5 50t59.5 19q36 0 50.5 -25.5
t14.5 -88.5q-68 0 -99 -16q34 -45 34 -103q0 -92 -62.5 -142t-178.5 -50q-47 0 -64 -6.5t-17 -24.5q0 -13 8 -18.5t30.5 -7.5t72.5 -2q119 0 183 -40.5zM202 372q0 -47 20 -69.5t63 -22.5t63.5 22.5t20.5 69.5q0 48 -20.5 71t-63.5 23q-83 0 -83 -94zM382.5 -92
q32.5 19 32.5 55q0 70 -122 70q-112 0 -112 -70q0 -39 25.5 -56.5t82.5 -17.5q61 0 93.5 19zM217 775h153l91 -153h-104l-63 83l-65 -83h-104z" />
    <glyph glyph-name="Gbreve" unicode="&#x11e;" horiz-adv-x="686" 
d="M634 384v-311q-90 -83 -252 -83q-163 0 -246.5 91t-83.5 269q0 108 42 189.5t119 126t179 44.5q76 0 137 -18.5t102 -54.5q-8 -31 -30.5 -60t-37.5 -29q-7 0 -12.5 2t-15.5 8q-34 22 -69 32t-76 10q-88 0 -134 -64t-46 -186q0 -250 170 -250q72 0 102 22v156h-61
q-31 0 -44 23.5t-13 82.5h270zM283.5 745.5q-39.5 14.5 -59.5 37.5t-20 49q0 29 23.5 45.5t62.5 16.5q2 -34 24.5 -53.5t62.5 -19.5q39 0 62 21.5t26 56.5q44 0 65 -16t21 -50q0 -28 -21 -51.5t-60.5 -37t-92.5 -13.5q-54 0 -93.5 14.5z" />
    <glyph glyph-name="gbreve" unicode="&#x11f;" horiz-adv-x="585" 
d="M492 84.5q64 -40.5 64 -115.5q0 -81 -72 -128.5t-195 -47.5q-124 0 -191.5 39.5t-67.5 112.5q0 94 134 107v3q-41 8 -63.5 28.5t-22.5 49.5q0 27 22 47.5t59 30.5q-49 25 -78 65t-29 88q0 94 64.5 145t181.5 51q59 0 108 -20q23 31 54.5 50t59.5 19q36 0 50.5 -25.5
t14.5 -88.5q-68 0 -99 -16q34 -45 34 -103q0 -92 -62.5 -142t-178.5 -50q-47 0 -64 -6.5t-17 -24.5q0 -13 8 -18.5t30.5 -7.5t72.5 -2q119 0 183 -40.5zM202 372q0 -47 20 -69.5t63 -22.5t63.5 22.5t20.5 69.5q0 48 -20.5 71t-63.5 23q-83 0 -83 -94zM382.5 -92
q32.5 19 32.5 55q0 70 -122 70q-112 0 -112 -70q0 -39 25.5 -56.5t82.5 -17.5q61 0 93.5 19zM199.5 635.5q-39.5 14.5 -59.5 37.5t-20 49q0 29 23.5 45.5t62.5 16.5q2 -34 24.5 -53.5t62.5 -19.5q39 0 62 21.5t26 56.5q44 0 65 -16t21 -50q0 -28 -21 -51.5t-60.5 -37
t-92.5 -13.5q-54 0 -93.5 14.5z" />
    <glyph glyph-name="Gdotaccent" unicode="&#x120;" horiz-adv-x="686" 
d="M634 384v-311q-90 -83 -252 -83q-163 0 -246.5 91t-83.5 269q0 108 42 189.5t119 126t179 44.5q76 0 137 -18.5t102 -54.5q-8 -31 -30.5 -60t-37.5 -29q-7 0 -12.5 2t-15.5 8q-34 22 -69 32t-76 10q-88 0 -134 -64t-46 -186q0 -250 170 -250q72 0 102 22v156h-61
q-31 0 -44 23.5t-13 82.5h270zM292 839v15q0 78 78 78h14q78 0 78 -78v-15q0 -78 -78 -78h-14q-78 0 -78 78z" />
    <glyph glyph-name="gdotaccent" unicode="&#x121;" horiz-adv-x="585" 
d="M492 84.5q64 -40.5 64 -115.5q0 -81 -72 -128.5t-195 -47.5q-124 0 -191.5 39.5t-67.5 112.5q0 94 134 107v3q-41 8 -63.5 28.5t-22.5 49.5q0 27 22 47.5t59 30.5q-49 25 -78 65t-29 88q0 94 64.5 145t181.5 51q59 0 108 -20q23 31 54.5 50t59.5 19q36 0 50.5 -25.5
t14.5 -88.5q-68 0 -99 -16q34 -45 34 -103q0 -92 -62.5 -142t-178.5 -50q-47 0 -64 -6.5t-17 -24.5q0 -13 8 -18.5t30.5 -7.5t72.5 -2q119 0 183 -40.5zM202 372q0 -47 20 -69.5t63 -22.5t63.5 22.5t20.5 69.5q0 48 -20.5 71t-63.5 23q-83 0 -83 -94zM382.5 -92
q32.5 19 32.5 55q0 70 -122 70q-112 0 -112 -70q0 -39 25.5 -56.5t82.5 -17.5q61 0 93.5 19zM208 729v15q0 78 78 78h14q78 0 78 -78v-15q0 -78 -78 -78h-14q-78 0 -78 78z" />
    <glyph glyph-name="uni0122" unicode="&#x122;" horiz-adv-x="686" 
d="M634 384v-311q-90 -83 -252 -83q-163 0 -246.5 91t-83.5 269q0 108 42 189.5t119 126t179 44.5q76 0 137 -18.5t102 -54.5q-8 -31 -30.5 -60t-37.5 -29q-7 0 -12.5 2t-15.5 8q-34 22 -69 32t-76 10q-88 0 -134 -64t-46 -186q0 -250 170 -250q72 0 102 22v156h-61
q-31 0 -44 23.5t-13 82.5h270zM439 -72.5q21 -21.5 21 -59.5v-19q0 -46 -12.5 -80t-41.5 -78q-17 -25 -32.5 -37.5t-33.5 -12.5q-28 0 -48 18q41 45 57.5 67.5t21.5 51.5h-10q-33 0 -52 21t-19 55v19q0 34 20 55t53 21h21q34 0 55 -21.5z" />
    <glyph glyph-name="uni0123" unicode="&#x123;" horiz-adv-x="585" 
d="M492 84.5q64 -40.5 64 -115.5q0 -81 -72 -128.5t-195 -47.5q-124 0 -191.5 39.5t-67.5 112.5q0 94 134 107v3q-41 8 -63.5 28.5t-22.5 49.5q0 27 22 47.5t59 30.5q-49 25 -78 65t-29 88q0 94 64.5 145t181.5 51q59 0 108 -20q23 31 54.5 50t59.5 19q36 0 50.5 -25.5
t14.5 -88.5q-68 0 -99 -16q34 -45 34 -103q0 -92 -62.5 -142t-178.5 -50q-47 0 -64 -6.5t-17 -24.5q0 -13 8 -18.5t30.5 -7.5t72.5 -2q119 0 183 -40.5zM202 372q0 -47 20 -69.5t63 -22.5t63.5 22.5t20.5 69.5q0 48 -20.5 71t-63.5 23q-83 0 -83 -94zM382.5 -92
q32.5 19 32.5 55q0 70 -122 70q-112 0 -112 -70q0 -39 25.5 -56.5t82.5 -17.5q61 0 93.5 19zM247 659q-20 23 -20 65q0 33 13 68.5t31 55.5q26 29 61 29q11 0 23.5 -3.5t19.5 -8.5q-9 -18 -16 -47.5t-7 -55.5q0 -48 25 -66q0 -23 -19.5 -41.5t-50.5 -18.5q-40 0 -60 23z" />
    <glyph glyph-name="Hcircumflex" unicode="&#x124;" horiz-adv-x="700" 
d="M634 700v-700h-154v300h-260v-300h-154v700h154v-290h260v290h154zM274 875h153l91 -153h-104l-63 83l-65 -83h-104z" />
    <glyph glyph-name="hcircumflex" unicode="&#x125;" horiz-adv-x="630" 
d="M507 516q42 -44 42 -120v-396h-148v379q0 40 -15 57.5t-49 17.5q-67 0 -138 -58v-396h-148v791h148v-308q38 35 90.5 56t103.5 21q72 0 114 -44zM49 975h153l91 -153h-104l-63 83l-65 -83h-104z" />
    <glyph glyph-name="Hbar" unicode="&#x126;" horiz-adv-x="700" 
d="M690 524h-56v-524h-154v300h-260v-300h-154v524h-56v60h56v116h154v-116h260v116h154v-116h56v-60zM480 524h-260v-114h260v114z" />
    <glyph glyph-name="hbar" unicode="&#x127;" horiz-adv-x="650" 
d="M527 516q42 -44 42 -120v-396h-148v379q0 40 -15 57.5t-49 17.5q-67 0 -138 -58v-396h-148v629h-51v75h51v87h148v-87h100v-75h-100v-146q38 35 90.5 56t103.5 21q72 0 114 -44z" />
    <glyph glyph-name="Itilde" unicode="&#x128;" horiz-adv-x="350" 
d="M98 700h154v-700h-154v700zM33.5 775.5q-17.5 17.5 -17.5 46.5q0 36 24.5 56t62.5 20q22 0 38 -5t37 -14q15 -7 26 -11t24 -4q21 0 29 9.5t9 27.5q37 0 53.5 -13.5t16.5 -46.5q0 -31 -23 -56t-62 -25q-23 0 -39.5 5t-38.5 14q-16 7 -28 11t-26 4q-19 0 -28 -10t-9 -26
q-31 0 -48.5 17.5z" />
    <glyph glyph-name="itilde" unicode="&#x129;" horiz-adv-x="288" 
d="M70 550h148v-550h-148v550zM2.5 655.5q-17.5 17.5 -17.5 46.5q0 36 24.5 56t62.5 20q22 0 38 -5t37 -14q15 -7 26 -11t24 -4q21 0 29 9.5t9 27.5q37 0 53.5 -13.5t16.5 -46.5q0 -31 -23 -56t-62 -25q-23 0 -39.5 5t-38.5 14q-16 7 -28 11t-26 4q-19 0 -28 -10t-9 -26
q-31 0 -48.5 17.5z" />
    <glyph glyph-name="Imacron" unicode="&#x12a;" horiz-adv-x="350" 
d="M98 700h154v-700h-154v700zM12 864h326v-100h-326v100z" />
    <glyph glyph-name="imacron" unicode="&#x12b;" horiz-adv-x="288" 
d="M70 550h148v-550h-148v550zM-19 744h326v-100h-326v100z" />
    <glyph glyph-name="Ibreve" unicode="&#x12c;" horiz-adv-x="350" 
d="M98 700h154v-700h-154v700zM81.5 755.5q-39.5 14.5 -59.5 37.5t-20 49q0 29 23.5 45.5t62.5 16.5q2 -34 24.5 -53.5t62.5 -19.5q39 0 62 21.5t26 56.5q44 0 65 -16t21 -50q0 -28 -21 -51.5t-60.5 -37t-92.5 -13.5q-54 0 -93.5 14.5z" />
    <glyph glyph-name="ibreve" unicode="&#x12d;" horiz-adv-x="288" 
d="M70 550h148v-550h-148v550zM50.5 635.5q-39.5 14.5 -59.5 37.5t-20 49q0 29 23.5 45.5t62.5 16.5q2 -34 24.5 -53.5t62.5 -19.5q39 0 62 21.5t26 56.5q44 0 65 -16t21 -50q0 -28 -21 -51.5t-60.5 -37t-92.5 -13.5q-54 0 -93.5 14.5z" />
    <glyph glyph-name="Iogonek" unicode="&#x12e;" horiz-adv-x="350" 
d="M98 700h154v-700h-154v700zM98 -127q0 79 93 127h61q-22 -28 -32.5 -50t-10.5 -48q0 -18 7.5 -28t21.5 -10q18 0 32 10q11 -8 16 -16t5 -20q0 -23 -21.5 -35.5t-59.5 -12.5q-112 0 -112 83z" />
    <glyph glyph-name="iogonek" unicode="&#x12f;" horiz-adv-x="288" 
d="M70 550h148v-550h-148v550zM59 729v15q0 78 78 78h14q78 0 78 -78v-15q0 -78 -78 -78h-14q-78 0 -78 78zM64 -127q0 79 93 127h61q-22 -28 -32.5 -50t-10.5 -48q0 -18 7.5 -28t21.5 -10q18 0 32 10q11 -8 16 -16t5 -20q0 -23 -21.5 -35.5t-59.5 -12.5q-112 0 -112 83z
" />
    <glyph glyph-name="Idotaccent" unicode="&#x130;" horiz-adv-x="350" 
d="M98 700h154v-700h-154v700zM90 849v15q0 78 78 78h14q78 0 78 -78v-15q0 -78 -78 -78h-14q-78 0 -78 78z" />
    <glyph glyph-name="dotlessi" unicode="&#x131;" horiz-adv-x="288" 
d="M70 550h148v-550h-148v550z" />
    <glyph glyph-name="IJ" unicode="&#x132;" horiz-adv-x="740" 
d="M98 700h154v-700h-154v700zM371 -1.5q-47 8.5 -64 18.5q0 56 10 76.5t27 20.5q8 0 18.5 -2t15.5 -3q36 -9 64 -9q41 0 62.5 24t21.5 69v507h154v-507q0 -59 -28 -105t-78 -72t-114 -26q-42 0 -89 8.5z" />
    <glyph glyph-name="ij" unicode="&#x133;" horiz-adv-x="558" 
d="M70 550h148v-550h-148v550zM59 729v15q0 78 78 78h14q78 0 78 -78v-15q0 -78 -78 -78h-14q-78 0 -78 78zM253.5 -204.5q-29.5 7.5 -41.5 19.5q-8 8 -8 21q0 12 6.5 25.5t12.5 16.5q12 -6 25.5 -9t36.5 -3q30 0 46.5 18t16.5 54v612h148v-603q0 -71 -45 -115t-129 -44
q-39 0 -68.5 7.5zM337 729v15q0 78 78 78h14q78 0 78 -78v-15q0 -78 -78 -78h-14q-78 0 -78 78z" />
    <glyph glyph-name="Jcircumflex" unicode="&#x134;" horiz-adv-x="447" 
d="M78 -1.5q-47 8.5 -64 18.5q0 56 10 76.5t27 20.5q8 0 18.5 -2t15.5 -3q36 -9 64 -9q41 0 62.5 24t21.5 69v507h154v-507q0 -59 -28 -105t-78 -72t-114 -26q-42 0 -89 8.5zM234 885h153l91 -153h-104l-63 83l-65 -83h-104z" />
    <glyph glyph-name="jcircumflex" unicode="&#x135;" horiz-adv-x="270" 
d="M-34.5 -204.5q-29.5 7.5 -41.5 19.5q-8 8 -8 21q0 12 6.5 25.5t12.5 16.5q12 -6 25.5 -9t36.5 -3q30 0 46.5 18t16.5 54v612h148v-603q0 -71 -45 -115t-129 -44q-39 0 -68.5 7.5zM58 775h153l91 -153h-104l-63 83l-65 -83h-104z" />
    <glyph glyph-name="uni0136" unicode="&#x136;" horiz-adv-x="670" 
d="M655 5q-27 -15 -100 -15q-56 0 -75 32l-132 216q-18 30 -29.5 42t-25.5 16t-42 4h-7v-300h-154v700h154v-298h45l195 298h163l-229 -335q41 -29 74 -86zM425 -72.5q21 -21.5 21 -59.5v-19q0 -46 -12.5 -80t-41.5 -78q-17 -25 -32.5 -37.5t-33.5 -12.5q-28 0 -48 18
q41 45 57.5 67.5t21.5 51.5h-10q-33 0 -52 21t-19 55v19q0 34 20 55t53 21h21q34 0 55 -21.5z" />
    <glyph glyph-name="uni0137" unicode="&#x137;" horiz-adv-x="591" 
d="M608 0q-13 0 -73 -3q-28 -2 -37 -2q-27 0 -43 10t-28 30l-78 141q-15 28 -36.5 39.5t-67.5 8.5l-26 -2v-222h-148v791h148v-467l22 1q37 2 55 14t35 47l80 164h164l-110 -197q-16 -28 -28.5 -44t-34.5 -28q30 -8 47 -22t32 -40zM388 -72.5q21 -21.5 21 -59.5v-19
q0 -46 -12.5 -80t-41.5 -78q-17 -25 -32.5 -37.5t-33.5 -12.5q-28 0 -48 18q41 45 57.5 67.5t21.5 51.5h-10q-33 0 -52 21t-19 55v19q0 34 20 55t53 21h21q34 0 55 -21.5z" />
    <glyph glyph-name="kgreenlandic" unicode="&#x138;" horiz-adv-x="617" 
d="M601 15q-64 -19 -101 -19q-26 0 -43 9.5t-30 29.5l-98 141q-3 5 -14.5 21.5t-30 22.5t-49.5 4l-16 -1v-223h-148v550h148v-226l9 1q24 1 37 7t21 16.5t25 38.5l100 163h164l-135 -206q-25 -38 -53 -63q42 -16 74 -62z" />
    <glyph glyph-name="Lacute" unicode="&#x139;" horiz-adv-x="513" 
d="M498 106v-106h-412v700h154v-594h258zM170 923h165l-111 -151h-126z" />
    <glyph glyph-name="lacute" unicode="&#x13a;" horiz-adv-x="268" 
d="M60 791h148v-791h-148v791zM141 973h165l-111 -151h-126z" />
    <glyph glyph-name="uni013B" unicode="&#x13b;" horiz-adv-x="513" 
d="M498 106v-106h-412v700h154v-594h258zM354 -72.5q21 -21.5 21 -59.5v-19q0 -46 -12.5 -80t-41.5 -78q-17 -25 -32.5 -37.5t-33.5 -12.5q-28 0 -48 18q41 45 57.5 67.5t21.5 51.5h-10q-33 0 -52 21t-19 55v19q0 34 20 55t53 21h21q34 0 55 -21.5z" />
    <glyph glyph-name="uni013C" unicode="&#x13c;" horiz-adv-x="268" 
d="M60 791h148v-791h-148v791zM196 -72.5q21 -21.5 21 -59.5v-19q0 -46 -12.5 -80t-41.5 -78q-17 -25 -32.5 -37.5t-33.5 -12.5q-28 0 -48 18q41 45 57.5 67.5t21.5 51.5h-10q-33 0 -52 21t-19 55v19q0 34 20 55t53 21h21q34 0 55 -21.5z" />
    <glyph glyph-name="Lcaron" unicode="&#x13d;" horiz-adv-x="597" 
d="M498 106v-106h-412v700h154v-594h258zM397.5 472.5q-12.5 3.5 -19.5 8.5q9 18 16 47.5t7 55.5q0 48 -25 66q0 23 19.5 41.5t50.5 18.5q40 0 60 -23t20 -65q0 -33 -13 -68.5t-31 -55.5q-26 -29 -61 -29q-11 0 -23.5 3.5z" />
    <glyph glyph-name="lcaron" unicode="&#x13e;" horiz-adv-x="427" 
d="M60 791h148v-791h-148v791zM295.5 472.5q-12.5 3.5 -19.5 8.5q9 18 16 47.5t7 55.5q0 48 -25 66q0 23 19.5 41.5t50.5 18.5q40 0 60 -23t20 -65q0 -33 -13 -68.5t-31 -55.5q-26 -29 -61 -29q-11 0 -23.5 3.5z" />
    <glyph glyph-name="Ldot" unicode="&#x13f;" horiz-adv-x="513" 
d="M498 106v-106h-412v700h154v-594h258zM271 381v15q0 78 78 78h14q78 0 78 -78v-15q0 -78 -78 -78h-14q-78 0 -78 78z" />
    <glyph glyph-name="ldot" unicode="&#x140;" horiz-adv-x="416" 
d="M60 791h148v-791h-148v791zM235 360v15q0 78 78 78h14q78 0 78 -78v-15q0 -78 -78 -78h-14q-78 0 -78 78z" />
    <glyph glyph-name="Lslash" unicode="&#x141;" horiz-adv-x="547" 
d="M518 106v-106h-412v313l-89 -36v109l89 36v278h154v-217l109 44v-109l-109 -44v-268h258z" />
    <glyph glyph-name="lslash" unicode="&#x142;" horiz-adv-x="268" 
d="M268 405l-60 -28v-377h-148v308l-60 -28v110l60 28v373h148v-305l60 28v-109z" />
    <glyph glyph-name="Nacute" unicode="&#x143;" horiz-adv-x="700" 
d="M632 64q2 -28 2 -37q0 -27 -26 -27h-130v34q0 50 -39 111l-221 340v-485h-152v700h138q13 0 21.5 -3.5t16.5 -16.5l236 -359v379h152v-563q0 -31 2 -73zM356 883h165l-111 -151h-126z" />
    <glyph glyph-name="nacute" unicode="&#x144;" horiz-adv-x="610" 
d="M544 63q4 -25 15 -46q-59 -22 -122 -22q-25 0 -35 24t-10 83v261q0 52 -15.5 72.5t-54.5 20.5q-52 0 -114 -51v-405h-148v370q0 67 -2.5 103t-9.5 58q74 23 121 23q21 0 30 -13.5t9 -44.5v-12q51 43 86.5 59.5t74.5 16.5q86 0 128.5 -46.5t42.5 -141.5v-234q0 -50 4 -75z
M312 773h165l-111 -151h-126z" />
    <glyph glyph-name="uni0145" unicode="&#x145;" horiz-adv-x="700" 
d="M632 64q2 -28 2 -37q0 -27 -26 -27h-130v34q0 50 -39 111l-221 340v-485h-152v700h138q13 0 21.5 -3.5t16.5 -16.5l236 -359v379h152v-563q0 -31 2 -73zM411 -72.5q21 -21.5 21 -59.5v-19q0 -46 -12.5 -80t-41.5 -78q-17 -25 -32.5 -37.5t-33.5 -12.5q-28 0 -48 18
q41 45 57.5 67.5t21.5 51.5h-10q-33 0 -52 21t-19 55v19q0 34 20 55t53 21h21q34 0 55 -21.5z" />
    <glyph glyph-name="uni0146" unicode="&#x146;" horiz-adv-x="610" 
d="M544 63q4 -25 15 -46q-59 -22 -122 -22q-25 0 -35 24t-10 83v261q0 52 -15.5 72.5t-54.5 20.5q-52 0 -114 -51v-405h-148v370q0 67 -2.5 103t-9.5 58q74 23 121 23q21 0 30 -13.5t9 -44.5v-12q51 43 86.5 59.5t74.5 16.5q86 0 128.5 -46.5t42.5 -141.5v-234q0 -50 4 -75z
M367 -72.5q21 -21.5 21 -59.5v-19q0 -46 -12.5 -80t-41.5 -78q-17 -25 -32.5 -37.5t-33.5 -12.5q-28 0 -48 18q41 45 57.5 67.5t21.5 51.5h-10q-33 0 -52 21t-19 55v19q0 34 20 55t53 21h21q34 0 55 -21.5z" />
    <glyph glyph-name="Ncaron" unicode="&#x147;" horiz-adv-x="700" 
d="M632 64q2 -28 2 -37q0 -27 -26 -27h-130v34q0 50 -39 111l-221 340v-485h-152v700h138q13 0 21.5 -3.5t16.5 -16.5l236 -359v379h152v-563q0 -31 2 -73zM181 887h104l65 -83l63 83h104l-91 -153h-153z" />
    <glyph glyph-name="ncaron" unicode="&#x148;" horiz-adv-x="610" 
d="M544 63q4 -25 15 -46q-59 -22 -122 -22q-25 0 -35 24t-10 83v261q0 52 -15.5 72.5t-54.5 20.5q-52 0 -114 -51v-405h-148v370q0 67 -2.5 103t-9.5 58q74 23 121 23q21 0 30 -13.5t9 -44.5v-12q51 43 86.5 59.5t74.5 16.5q86 0 128.5 -46.5t42.5 -141.5v-234q0 -50 4 -75z
M137 777h104l65 -83l63 83h104l-91 -153h-153z" />
    <glyph glyph-name="napostrophe" unicode="&#x149;" horiz-adv-x="610" 
d="M-52.5 575.5q-12.5 3.5 -19.5 8.5q9 18 16 47.5t7 55.5q0 48 -25 66q0 23 19.5 41.5t50.5 18.5q40 0 60 -23t20 -65q0 -33 -13 -68.5t-31 -55.5q-26 -29 -61 -29q-11 0 -23.5 3.5zM544 63q4 -25 15 -46q-59 -22 -122 -22q-25 0 -35 24t-10 83v261q0 52 -15.5 72.5
t-54.5 20.5q-52 0 -114 -51v-405h-148v370q0 67 -2.5 103t-9.5 58q74 23 121 23q21 0 30 -13.5t9 -44.5v-12q51 43 86.5 59.5t74.5 16.5q86 0 128.5 -46.5t42.5 -141.5v-234q0 -50 4 -75z" />
    <glyph glyph-name="Eng" unicode="&#x14a;" horiz-adv-x="685" 
d="M619 700v-753q0 -71 -45 -115t-129 -44q-47 0 -82.5 11t-35.5 37q0 12 6.5 25.5t12.5 16.5q24 -12 62 -12q59 0 59 72v86q0 49 -39 111l-210 338v-473h-152v700h138q14 0 22 -3.5t16 -16.5l225 -358v378h152z" />
    <glyph glyph-name="eng" unicode="&#x14b;" horiz-adv-x="609" 
d="M497.5 513.5q42.5 -46.5 42.5 -141.5v-425q0 -71 -45 -115t-129 -44q-47 0 -82.5 11t-35.5 37q0 12 6.5 25.5t12.5 16.5q12 -6 25.5 -9t36.5 -3q30 0 46.5 18t16.5 54v425q0 50 -14.5 71.5t-55.5 21.5q-51 0 -114 -51v-405h-148v370q0 58 -2 96t-10 65q74 23 121 23
q20 0 29.5 -13.5t9.5 -44.5v-10q40 34 78 54t83 20q86 0 128.5 -46.5z" />
    <glyph glyph-name="Omacron" unicode="&#x14c;" horiz-adv-x="680" 
d="M117.5 85.5q-79.5 95.5 -79.5 268.5q0 169 79.5 262.5t222.5 93.5t222.5 -93.5t79.5 -262.5q0 -173 -79.5 -268.5t-222.5 -95.5t-222.5 95.5zM449.5 160.5q34.5 60.5 34.5 193.5q0 130 -34 188t-110 58t-110 -58t-34 -188q0 -133 34.5 -193.5t109.5 -60.5t109.5 60.5z
M177 864h326v-100h-326v100z" />
    <glyph glyph-name="omacron" unicode="&#x14d;" horiz-adv-x="568" 
d="M96.5 65q-66.5 75 -66.5 211t66.5 210t187.5 74t187.5 -74t66.5 -210t-66.5 -211t-187.5 -75t-187.5 75zM363.5 131q24.5 45 24.5 145q0 99 -24.5 143.5t-79.5 44.5t-79.5 -44t-24.5 -144t24.5 -145t79.5 -45t79.5 45zM121 744h326v-100h-326v100z" />
    <glyph glyph-name="Obreve" unicode="&#x14e;" horiz-adv-x="680" 
d="M117.5 85.5q-79.5 95.5 -79.5 268.5q0 169 79.5 262.5t222.5 93.5t222.5 -93.5t79.5 -262.5q0 -173 -79.5 -268.5t-222.5 -95.5t-222.5 95.5zM449.5 160.5q34.5 60.5 34.5 193.5q0 130 -34 188t-110 58t-110 -58t-34 -188q0 -133 34.5 -193.5t109.5 -60.5t109.5 60.5z
M246.5 755.5q-39.5 14.5 -59.5 37.5t-20 49q0 29 23.5 45.5t62.5 16.5q2 -34 24.5 -53.5t62.5 -19.5q39 0 62 21.5t26 56.5q44 0 65 -16t21 -50q0 -28 -21 -51.5t-60.5 -37t-92.5 -13.5q-54 0 -93.5 14.5z" />
    <glyph glyph-name="obreve" unicode="&#x14f;" horiz-adv-x="568" 
d="M96.5 65q-66.5 75 -66.5 211t66.5 210t187.5 74t187.5 -74t66.5 -210t-66.5 -211t-187.5 -75t-187.5 75zM363.5 131q24.5 45 24.5 145q0 99 -24.5 143.5t-79.5 44.5t-79.5 -44t-24.5 -144t24.5 -145t79.5 -45t79.5 45zM190.5 635.5q-39.5 14.5 -59.5 37.5t-20 49
q0 29 23.5 45.5t62.5 16.5q2 -34 24.5 -53.5t62.5 -19.5q39 0 62 21.5t26 56.5q44 0 65 -16t21 -50q0 -28 -21 -51.5t-60.5 -37t-92.5 -13.5q-54 0 -93.5 14.5z" />
    <glyph glyph-name="Ohungarumlaut" unicode="&#x150;" horiz-adv-x="680" 
d="M117.5 85.5q-79.5 95.5 -79.5 268.5q0 169 79.5 262.5t222.5 93.5t222.5 -93.5t79.5 -262.5q0 -173 -79.5 -268.5t-222.5 -95.5t-222.5 95.5zM449.5 160.5q34.5 60.5 34.5 193.5q0 130 -34 188t-110 58t-110 -58t-34 -188q0 -133 34.5 -193.5t109.5 -60.5t109.5 60.5z
M242 893h165l-114 -151h-94zM433 893h165l-131 -151h-95z" />
    <glyph glyph-name="ohungarumlaut" unicode="&#x151;" horiz-adv-x="568" 
d="M96.5 65q-66.5 75 -66.5 211t66.5 210t187.5 74t187.5 -74t66.5 -210t-66.5 -211t-187.5 -75t-187.5 75zM363.5 131q24.5 45 24.5 145q0 99 -24.5 143.5t-79.5 44.5t-79.5 -44t-24.5 -144t24.5 -145t79.5 -45t79.5 45zM186 773h165l-114 -151h-94zM377 773h165l-131 -151
h-95z" />
    <glyph glyph-name="OE" unicode="&#x152;" horiz-adv-x="1035" 
d="M990 106q0 -61 -11 -83.5t-41 -22.5h-397v63q-76 -73 -201 -73q-143 0 -222.5 95.5t-79.5 268.5q0 169 79.5 262.5t222.5 93.5q124 0 201 -71v61h438v-106h-284v-180h236v-106h-236v-202h295zM449.5 160.5q34.5 60.5 34.5 193.5q0 130 -34 188t-110 58t-110 -58t-34 -188
q0 -133 34.5 -193.5t109.5 -60.5t109.5 60.5z" />
    <glyph glyph-name="oe" unicode="&#x153;" horiz-adv-x="930" 
d="M895 248h-354q5 -76 36.5 -118t82.5 -42q23 0 38.5 6t32 21.5t43.5 50.5q5 8 21 8q17 0 41.5 -11.5t52.5 -32.5q-65 -140 -229 -140q-121 0 -192 71q-68 -71 -184 -71q-121 0 -187.5 75t-66.5 211t66.5 210t187.5 74q119 0 184 -70q72 70 191 70q115 0 178 -65t63 -184
q0 -14 -5 -63zM750 332q0 134 -94 134q-48 0 -77 -34t-36 -100h207zM363.5 131q24.5 45 24.5 145q0 99 -24.5 143.5t-79.5 44.5t-79.5 -44t-24.5 -144t24.5 -145t79.5 -45t79.5 45z" />
    <glyph glyph-name="Racute" unicode="&#x154;" horiz-adv-x="640" 
d="M615 13q-10 -9 -35 -15t-52 -6q-34 0 -52 9t-28 31l-74 166q-17 37 -36 50t-56 13h-52v-261h-154v700h238q134 0 206 -57t72 -163q0 -65 -31.5 -111.5t-91.5 -70.5q27 -28 45 -68zM304 369q70 0 101 26t31 85t-31 85.5t-101 26.5h-74v-223h74zM320 883h165l-111 -151
h-126z" />
    <glyph glyph-name="racute" unicode="&#x155;" horiz-adv-x="440" 
d="M406 536.5q22 -20.5 22 -65.5q0 -17 -4.5 -33.5t-12.5 -25.5q-12 7 -27 10t-43 3q-65 0 -96.5 -40t-31.5 -122v-263h-148v550h148v-73q20 39 52 59.5t71 20.5q48 0 70 -20.5zM227 773h165l-111 -151h-126z" />
    <glyph glyph-name="uni0156" unicode="&#x156;" horiz-adv-x="640" 
d="M615 13q-10 -9 -35 -15t-52 -6q-34 0 -52 9t-28 31l-74 166q-17 37 -36 50t-56 13h-52v-261h-154v700h238q134 0 206 -57t72 -163q0 -65 -31.5 -111.5t-91.5 -70.5q27 -28 45 -68zM304 369q70 0 101 26t31 85t-31 85.5t-101 26.5h-74v-223h74zM377 -72.5
q21 -21.5 21 -59.5v-19q0 -46 -12.5 -80t-41.5 -78q-17 -25 -32.5 -37.5t-33.5 -12.5q-28 0 -48 18q41 45 57.5 67.5t21.5 51.5h-10q-33 0 -52 21t-19 55v19q0 34 20 55t53 21h21q34 0 55 -21.5z" />
    <glyph glyph-name="uni0157" unicode="&#x157;" horiz-adv-x="440" 
d="M406 536.5q22 -20.5 22 -65.5q0 -17 -4.5 -33.5t-12.5 -25.5q-12 7 -27 10t-43 3q-65 0 -96.5 -40t-31.5 -122v-263h-148v550h148v-73q20 39 52 59.5t71 20.5q48 0 70 -20.5zM201 -72.5q21 -21.5 21 -59.5v-19q0 -46 -12.5 -80t-41.5 -78q-17 -25 -32.5 -37.5
t-33.5 -12.5q-28 0 -48 18q41 45 57.5 67.5t21.5 51.5h-10q-33 0 -52 21t-19 55v19q0 34 20 55t53 21h21q34 0 55 -21.5z" />
    <glyph glyph-name="Rcaron" unicode="&#x158;" horiz-adv-x="640" 
d="M615 13q-10 -9 -35 -15t-52 -6q-34 0 -52 9t-28 31l-74 166q-17 37 -36 50t-56 13h-52v-261h-154v700h238q134 0 206 -57t72 -163q0 -65 -31.5 -111.5t-91.5 -70.5q27 -28 45 -68zM304 369q70 0 101 26t31 85t-31 85.5t-101 26.5h-74v-223h74zM145 887h104l65 -83l63 83
h104l-91 -153h-153z" />
    <glyph glyph-name="rcaron" unicode="&#x159;" horiz-adv-x="440" 
d="M406 536.5q22 -20.5 22 -65.5q0 -17 -4.5 -33.5t-12.5 -25.5q-12 7 -27 10t-43 3q-65 0 -96.5 -40t-31.5 -122v-263h-148v550h148v-73q20 39 52 59.5t71 20.5q48 0 70 -20.5zM52 777h104l65 -83l63 83h104l-91 -153h-153z" />
    <glyph glyph-name="Sacute" unicode="&#x15a;" horiz-adv-x="642" 
d="M139 32q-70 42 -70 115q0 35 29.5 55t83.5 21q6 -59 45.5 -91t106.5 -32q123 0 123 91q0 36 -33.5 59t-116.5 47q-118 33 -173 84.5t-55 132.5q0 91 70.5 143.5t192.5 52.5q98 0 168 -46.5t96 -129.5q-17 -17 -47 -30t-53 -13q-18 0 -28 7.5t-21 28.5q-20 39 -46 56
t-69 17q-107 0 -107 -71q0 -28 11 -45.5t38 -32t82 -32.5q100 -33 153 -60.5t74.5 -59.5t21.5 -79q0 -68 -35.5 -120t-99.5 -81t-148 -29q-123 0 -193 42zM328 883h165l-111 -151h-126z" />
    <glyph glyph-name="sacute" unicode="&#x15b;" horiz-adv-x="505" 
d="M90.5 20q-56.5 30 -56.5 77q0 28 19.5 47.5t56.5 21.5q21 -40 54.5 -60t84.5 -20q88 0 88 66q0 27 -25 41t-82 33q-58 19 -95.5 37t-64.5 52.5t-27 89.5q0 47 29.5 82.5t78 54t105.5 18.5q73 0 128 -28t86 -75q-13 -25 -35.5 -43.5t-40.5 -18.5q-10 0 -17 3.5t-14 11.5
q-45 56 -103 56q-38 0 -58.5 -14.5t-20.5 -43.5q0 -31 27.5 -47t86.5 -33q56 -15 92.5 -31.5t62 -49t25.5 -85.5q0 -83 -59.5 -127.5t-170.5 -44.5q-98 0 -154.5 30zM250 773h165l-111 -151h-126z" />
    <glyph glyph-name="Scircumflex" unicode="&#x15c;" horiz-adv-x="642" 
d="M139 32q-70 42 -70 115q0 35 29.5 55t83.5 21q6 -59 45.5 -91t106.5 -32q123 0 123 91q0 36 -33.5 59t-116.5 47q-118 33 -173 84.5t-55 132.5q0 91 70.5 143.5t192.5 52.5q98 0 168 -46.5t96 -129.5q-17 -17 -47 -30t-53 -13q-18 0 -28 7.5t-21 28.5q-20 39 -46 56
t-69 17q-107 0 -107 -71q0 -28 11 -45.5t38 -32t82 -32.5q100 -33 153 -60.5t74.5 -59.5t21.5 -79q0 -68 -35.5 -120t-99.5 -81t-148 -29q-123 0 -193 42zM245 885h153l91 -153h-104l-63 83l-65 -83h-104z" />
    <glyph glyph-name="scircumflex" unicode="&#x15d;" horiz-adv-x="505" 
d="M90.5 20q-56.5 30 -56.5 77q0 28 19.5 47.5t56.5 21.5q21 -40 54.5 -60t84.5 -20q88 0 88 66q0 27 -25 41t-82 33q-58 19 -95.5 37t-64.5 52.5t-27 89.5q0 47 29.5 82.5t78 54t105.5 18.5q73 0 128 -28t86 -75q-13 -25 -35.5 -43.5t-40.5 -18.5q-10 0 -17 3.5t-14 11.5
q-45 56 -103 56q-38 0 -58.5 -14.5t-20.5 -43.5q0 -31 27.5 -47t86.5 -33q56 -15 92.5 -31.5t62 -49t25.5 -85.5q0 -83 -59.5 -127.5t-170.5 -44.5q-98 0 -154.5 30zM167 775h153l91 -153h-104l-63 83l-65 -83h-104z" />
    <glyph glyph-name="Scedilla" unicode="&#x15e;" horiz-adv-x="642" 
d="M550.5 65.5q-64.5 -61.5 -172.5 -73.5l-41 -43h12q45 0 73.5 -23.5t28.5 -61.5q0 -103 -141 -103q-104 0 -104 54q0 13 4 22q12 -5 35 -8t49 -3q31 0 42.5 8t11.5 28q0 11 -8.5 18.5t-24.5 7.5q-14 0 -28 -5l-37 42l42 66q-105 7 -164 48t-59 108q0 35 29.5 55t83.5 21
q6 -59 45.5 -91t106.5 -32q123 0 123 91q0 36 -33.5 59t-116.5 47q-118 33 -173 84.5t-55 132.5q0 91 70.5 143.5t192.5 52.5q98 0 168 -46.5t96 -129.5q-17 -17 -47 -30t-53 -13q-18 0 -28 7.5t-21 28.5q-20 39 -46 56t-69 17q-107 0 -107 -71q0 -28 11 -45.5t38 -32
t82 -32.5q100 -33 153 -60.5t74.5 -59.5t21.5 -79q0 -93 -64.5 -154.5z" />
    <glyph glyph-name="scedilla" unicode="&#x15f;" horiz-adv-x="505" 
d="M427 44q-48 -44 -137 -52l-41 -43h12q45 0 73.5 -23.5t28.5 -61.5q0 -103 -141 -103q-104 0 -104 54q0 13 4 22q12 -5 35 -8t49 -3q31 0 42.5 8t11.5 28q0 11 -8.5 18.5t-24.5 7.5q-14 0 -28 -5l-37 42l42 67q-79 6 -124.5 35t-45.5 70q0 28 19.5 47.5t56.5 21.5
q21 -40 54.5 -60t84.5 -20q88 0 88 66q0 27 -25 41t-82 33q-58 19 -95.5 37t-64.5 52.5t-27 89.5q0 47 29.5 82.5t78 54t105.5 18.5q73 0 128 -28t86 -75q-13 -25 -35.5 -43.5t-40.5 -18.5q-10 0 -17 3.5t-14 11.5q-45 56 -103 56q-38 0 -58.5 -14.5t-20.5 -43.5
q0 -31 27.5 -47t86.5 -33q56 -15 92.5 -31.5t62 -49t25.5 -85.5q0 -74 -48 -118z" />
    <glyph glyph-name="Scaron" unicode="&#x160;" horiz-adv-x="642" 
d="M139 32q-70 42 -70 115q0 35 29.5 55t83.5 21q6 -59 45.5 -91t106.5 -32q123 0 123 91q0 36 -33.5 59t-116.5 47q-118 33 -173 84.5t-55 132.5q0 91 70.5 143.5t192.5 52.5q98 0 168 -46.5t96 -129.5q-17 -17 -47 -30t-53 -13q-18 0 -28 7.5t-21 28.5q-20 39 -46 56
t-69 17q-107 0 -107 -71q0 -28 11 -45.5t38 -32t82 -32.5q100 -33 153 -60.5t74.5 -59.5t21.5 -79q0 -68 -35.5 -120t-99.5 -81t-148 -29q-123 0 -193 42zM153 887h104l65 -83l63 83h104l-91 -153h-153z" />
    <glyph glyph-name="scaron" unicode="&#x161;" horiz-adv-x="505" 
d="M90.5 20q-56.5 30 -56.5 77q0 28 19.5 47.5t56.5 21.5q21 -40 54.5 -60t84.5 -20q88 0 88 66q0 27 -25 41t-82 33q-58 19 -95.5 37t-64.5 52.5t-27 89.5q0 47 29.5 82.5t78 54t105.5 18.5q73 0 128 -28t86 -75q-13 -25 -35.5 -43.5t-40.5 -18.5q-10 0 -17 3.5t-14 11.5
q-45 56 -103 56q-38 0 -58.5 -14.5t-20.5 -43.5q0 -31 27.5 -47t86.5 -33q56 -15 92.5 -31.5t62 -49t25.5 -85.5q0 -83 -59.5 -127.5t-170.5 -44.5q-98 0 -154.5 30zM75 777h104l65 -83l63 83h104l-91 -153h-153z" />
    <glyph glyph-name="uni0162" unicode="&#x162;" horiz-adv-x="534" 
d="M523 656q0 -34 -11 -50t-35 -16h-134v-590h-152v590h-176v110h504q4 -24 4 -44zM359.5 -74.5q28.5 -23.5 28.5 -61.5q0 -103 -141 -103q-104 0 -104 54q0 13 4 22q12 -5 35 -8t49 -3q31 0 42.5 8t11.5 28q0 11 -8.5 18.5t-24.5 7.5q-14 0 -28 -5l-37 42l47 75h88l-48 -51
h12q45 0 73.5 -23.5z" />
    <glyph glyph-name="uni0163" unicode="&#x163;" horiz-adv-x="405" 
d="M297 -7l-42 -44h12q45 0 73.5 -23.5t28.5 -61.5q0 -103 -141 -103q-104 0 -104 54q0 13 4 22q12 -5 35 -8t49 -3q31 0 42.5 8t11.5 28q0 11 -8.5 18.5t-24.5 7.5q-14 0 -28 -5l-37 42l43 68q-53 11 -84 47.5t-31 90.5v325h-84v94h84v150h148v-150h104v-94h-104v-312
q0 -35 11.5 -49.5t40.5 -14.5q32 0 76 17q11 -3 17 -13t6 -24q0 -21 -13 -34q-23 -23 -85 -33z" />
    <glyph glyph-name="Tcaron" unicode="&#x164;" horiz-adv-x="534" 
d="M523 656q0 -34 -11 -50t-35 -16h-134v-590h-152v590h-176v110h504q4 -24 4 -44zM100 887h104l65 -83l63 83h104l-91 -153h-153z" />
    <glyph glyph-name="tcaron" unicode="&#x165;" horiz-adv-x="405" 
d="M389 84q6 -10 6 -24q0 -21 -13 -34q-16 -16 -52.5 -26t-80.5 -10q-69 0 -111 38.5t-42 102.5v325h-84v94h84v150h148v-150h104v-94h-104v-312q0 -35 11.5 -49.5t40.5 -14.5q32 0 76 17q11 -3 17 -13zM2 887h104l65 -83l63 83h104l-91 -153h-153z" />
    <glyph glyph-name="Tbar" unicode="&#x166;" horiz-adv-x="533" 
d="M523 656q0 -34 -11 -50t-35 -16h-134v-227h101v-98h-101v-265h-152v265h-99v98h99v227h-176v110h504q4 -24 4 -44z" />
    <glyph glyph-name="tbar" unicode="&#x167;" horiz-adv-x="397" 
d="M389 84q6 -10 6 -24q0 -21 -13 -34q-16 -16 -52.5 -26t-80.5 -10q-69 0 -111 38.5t-42 102.5v135h-84v94h84v96h-84v94h84v150h148v-150h104v-94h-104v-96h94v-94h-94v-122q0 -35 11.5 -49.5t40.5 -14.5q32 0 76 17q11 -3 17 -13z" />
    <glyph glyph-name="Utilde" unicode="&#x168;" horiz-adv-x="711" 
d="M146.5 55.5q-70.5 65.5 -70.5 195.5v449h154v-471q0 -62 32.5 -95.5t93.5 -33.5q125 0 125 129v471h154v-449q0 -132 -69 -196.5t-210 -64.5q-139 0 -209.5 65.5zM212.5 775.5q-17.5 17.5 -17.5 46.5q0 36 24.5 56t62.5 20q22 0 38 -5t37 -14q15 -7 26 -11t24 -4
q21 0 29 9.5t9 27.5q37 0 53.5 -13.5t16.5 -46.5q0 -31 -23 -56t-62 -25q-23 0 -39.5 5t-38.5 14q-16 7 -28 11t-26 4q-19 0 -28 -10t-9 -26q-31 0 -48.5 17.5z" />
    <glyph glyph-name="utilde" unicode="&#x169;" horiz-adv-x="630" 
d="M560.5 61q3.5 -26 11.5 -44q-20 -10 -48 -16t-53 -6q-29 0 -43 14t-18 47q-29 -32 -70.5 -49t-90.5 -17q-87 0 -133 47.5t-46 137.5v375h148v-368q0 -53 16.5 -75.5t56.5 -22.5q71 0 117 72v394h149v-417q0 -46 3.5 -72zM173.5 655.5q-17.5 17.5 -17.5 46.5q0 36 24.5 56
t62.5 20q22 0 38 -5t37 -14q15 -7 26 -11t24 -4q21 0 29 9.5t9 27.5q37 0 53.5 -13.5t16.5 -46.5q0 -31 -23 -56t-62 -25q-23 0 -39.5 5t-38.5 14q-16 7 -28 11t-26 4q-19 0 -28 -10t-9 -26q-31 0 -48.5 17.5z" />
    <glyph glyph-name="Umacron" unicode="&#x16a;" horiz-adv-x="711" 
d="M146.5 55.5q-70.5 65.5 -70.5 195.5v449h154v-471q0 -62 32.5 -95.5t93.5 -33.5q125 0 125 129v471h154v-449q0 -132 -69 -196.5t-210 -64.5q-139 0 -209.5 65.5zM191 864h326v-100h-326v100z" />
    <glyph glyph-name="umacron" unicode="&#x16b;" horiz-adv-x="630" 
d="M560.5 61q3.5 -26 11.5 -44q-20 -10 -48 -16t-53 -6q-29 0 -43 14t-18 47q-29 -32 -70.5 -49t-90.5 -17q-87 0 -133 47.5t-46 137.5v375h148v-368q0 -53 16.5 -75.5t56.5 -22.5q71 0 117 72v394h149v-417q0 -46 3.5 -72zM152 744h326v-100h-326v100z" />
    <glyph glyph-name="Ubreve" unicode="&#x16c;" horiz-adv-x="711" 
d="M146.5 55.5q-70.5 65.5 -70.5 195.5v449h154v-471q0 -62 32.5 -95.5t93.5 -33.5q125 0 125 129v471h154v-449q0 -132 -69 -196.5t-210 -64.5q-139 0 -209.5 65.5zM260.5 755.5q-39.5 14.5 -59.5 37.5t-20 49q0 29 23.5 45.5t62.5 16.5q2 -34 24.5 -53.5t62.5 -19.5
q39 0 62 21.5t26 56.5q44 0 65 -16t21 -50q0 -28 -21 -51.5t-60.5 -37t-92.5 -13.5q-54 0 -93.5 14.5z" />
    <glyph glyph-name="ubreve" unicode="&#x16d;" horiz-adv-x="630" 
d="M560.5 61q3.5 -26 11.5 -44q-20 -10 -48 -16t-53 -6q-29 0 -43 14t-18 47q-29 -32 -70.5 -49t-90.5 -17q-87 0 -133 47.5t-46 137.5v375h148v-368q0 -53 16.5 -75.5t56.5 -22.5q71 0 117 72v394h149v-417q0 -46 3.5 -72zM221.5 635.5q-39.5 14.5 -59.5 37.5t-20 49
q0 29 23.5 45.5t62.5 16.5q2 -34 24.5 -53.5t62.5 -19.5q39 0 62 21.5t26 56.5q44 0 65 -16t21 -50q0 -28 -21 -51.5t-60.5 -37t-92.5 -13.5q-54 0 -93.5 14.5z" />
    <glyph glyph-name="Uring" unicode="&#x16e;" horiz-adv-x="711" 
d="M146.5 55.5q-70.5 65.5 -70.5 195.5v449h154v-471q0 -62 32.5 -95.5t93.5 -33.5q125 0 125 129v471h154v-449q0 -132 -69 -196.5t-210 -64.5q-139 0 -209.5 65.5zM260 793q-38 37 -38 94t38.5 94.5t93.5 37.5q36 0 66 -17t48 -47t18 -68q0 -57 -38.5 -94t-93.5 -37
q-56 0 -94 37zM384.5 856.5q12.5 12.5 12.5 30.5q0 19 -12.5 31t-30.5 12q-19 0 -31.5 -12t-12.5 -31q0 -18 12.5 -30.5t31.5 -12.5q18 0 30.5 12.5z" />
    <glyph glyph-name="uring" unicode="&#x16f;" horiz-adv-x="630" 
d="M560.5 61q3.5 -26 11.5 -44q-20 -10 -48 -16t-53 -6q-29 0 -43 14t-18 47q-29 -32 -70.5 -49t-90.5 -17q-87 0 -133 47.5t-46 137.5v375h148v-368q0 -53 16.5 -75.5t56.5 -22.5q71 0 117 72v394h149v-417q0 -46 3.5 -72zM221 673q-38 37 -38 94t38.5 94.5t93.5 37.5
q36 0 66 -17t48 -47t18 -68q0 -57 -38.5 -94t-93.5 -37q-56 0 -94 37zM345.5 736.5q12.5 12.5 12.5 30.5q0 19 -12.5 31t-30.5 12q-19 0 -31.5 -12t-12.5 -31q0 -18 12.5 -30.5t31.5 -12.5q18 0 30.5 12.5z" />
    <glyph glyph-name="Uhungarumlaut" unicode="&#x170;" horiz-adv-x="711" 
d="M146.5 55.5q-70.5 65.5 -70.5 195.5v449h154v-471q0 -62 32.5 -95.5t93.5 -33.5q125 0 125 129v471h154v-449q0 -132 -69 -196.5t-210 -64.5q-139 0 -209.5 65.5zM256 893h165l-114 -151h-94zM447 893h165l-131 -151h-95z" />
    <glyph glyph-name="uhungarumlaut" unicode="&#x171;" horiz-adv-x="630" 
d="M560.5 61q3.5 -26 11.5 -44q-20 -10 -48 -16t-53 -6q-29 0 -43 14t-18 47q-29 -32 -70.5 -49t-90.5 -17q-87 0 -133 47.5t-46 137.5v375h148v-368q0 -53 16.5 -75.5t56.5 -22.5q71 0 117 72v394h149v-417q0 -46 3.5 -72zM217 773h165l-114 -151h-94zM408 773h165
l-131 -151h-95z" />
    <glyph glyph-name="Uogonek" unicode="&#x172;" horiz-adv-x="711" 
d="M635 700v-449q0 -112 -50 -175t-151 -80q-16 -22 -24 -41.5t-8 -42.5q0 -18 7.5 -28t21.5 -10q18 0 32 10q11 -8 16 -16t5 -20q0 -23 -21.5 -35.5t-59.5 -12.5q-112 0 -112 83q0 63 60 107q-275 3 -275 261v449h154v-471q0 -62 32.5 -95.5t93.5 -33.5q125 0 125 129v471
h154z" />
    <glyph glyph-name="uogonek" unicode="&#x173;" horiz-adv-x="630" 
d="M606 -125q5 -8 5 -20q0 -23 -21.5 -35.5t-59.5 -12.5q-112 0 -112 83q0 62 58 105h-5q-29 0 -43 14t-18 47q-29 -32 -70.5 -49t-90.5 -17q-87 0 -133 47.5t-46 137.5v375h148v-368q0 -53 16.5 -75.5t56.5 -22.5q71 0 117 72v394h149v-417q0 -46 3.5 -72t11.5 -44
q-22 -28 -32.5 -50t-10.5 -48q0 -18 7.5 -28t21.5 -10q18 0 32 10q11 -8 16 -16z" />
    <glyph glyph-name="Wcircumflex" unicode="&#x174;" horiz-adv-x="896" 
d="M881 700q-24 -224 -60 -387t-95 -313h-162q-47 140 -70.5 228t-40.5 191q-19 -112 -43 -201.5t-68 -217.5h-162q-61 147 -99 309.5t-66 390.5h152q21 -206 40 -314.5t54 -229.5q41 125 65 226.5t64 317.5h122q48 -231 72 -329.5t61 -213.5q34 119 51 227t37 316h148z
M377 895h153l91 -153h-104l-63 83l-65 -83h-104z" />
    <glyph glyph-name="wcircumflex" unicode="&#x175;" horiz-adv-x="800" 
d="M780 550q-7 -154 -41.5 -290t-105.5 -260h-105q-82 132 -120 289q-40 -159 -122 -289h-105q-74 123 -112 259t-49 291h150q10 -131 24 -218t52 -170q79 175 100 388h126q23 -216 104 -391q25 58 38.5 123t17.5 121.5t8 146.5h140zM333 775h153l91 -153h-104l-63 83
l-65 -83h-104z" />
    <glyph glyph-name="Ycircumflex" unicode="&#x176;" horiz-adv-x="590" 
d="M580 700l-209 -406v-294h-152v294l-209 406h158l128 -270l127 270h157zM219 885h153l91 -153h-104l-63 83l-65 -83h-104z" />
    <glyph glyph-name="ycircumflex" unicode="&#x177;" horiz-adv-x="535" 
d="M539 550l-213 -592q-34 -94 -81 -133t-127 -39q-50 0 -81 20t-31 52q0 17 6 30.5t21 31.5q25 -17 61 -17q38 0 59.5 22.5t41.5 83.5l-196 541h152l119 -368l117 368h152zM192 775h153l91 -153h-104l-63 83l-65 -83h-104z" />
    <glyph glyph-name="Ydieresis" unicode="&#x178;" horiz-adv-x="590" 
d="M580 700l-209 -406v-294h-152v294l-209 406h158l128 -270l127 270h157zM125 815v13q0 65 65 65h12q65 0 65 -65v-13q0 -65 -65 -65h-12q-65 0 -65 65zM325 815v13q0 65 65 65h12q65 0 65 -65v-13q0 -65 -65 -65h-12q-65 0 -65 65z" />
    <glyph glyph-name="Zacute" unicode="&#x179;" horiz-adv-x="580" 
d="M538 100v-100h-494v100l322 500h-324v100h488v-104l-316 -496h324zM287 883h165l-111 -151h-126z" />
    <glyph glyph-name="zacute" unicode="&#x17a;" horiz-adv-x="520" 
d="M490 98v-98h-460v88l289 364h-263v98h426v-87l-298 -365h306zM267 773h165l-111 -151h-126z" />
    <glyph glyph-name="Zdotaccent" unicode="&#x17b;" horiz-adv-x="580" 
d="M538 100v-100h-494v100l322 500h-324v100h488v-104l-316 -496h324zM195 839v15q0 78 78 78h14q78 0 78 -78v-15q0 -78 -78 -78h-14q-78 0 -78 78z" />
    <glyph glyph-name="zdotaccent" unicode="&#x17c;" horiz-adv-x="520" 
d="M490 98v-98h-460v88l289 364h-263v98h426v-87l-298 -365h306zM175 729v15q0 78 78 78h14q78 0 78 -78v-15q0 -78 -78 -78h-14q-78 0 -78 78z" />
    <glyph glyph-name="Zcaron" unicode="&#x17d;" horiz-adv-x="580" 
d="M538 100v-100h-494v100l322 500h-324v100h488v-104l-316 -496h324zM112 887h104l65 -83l63 83h104l-91 -153h-153z" />
    <glyph glyph-name="zcaron" unicode="&#x17e;" horiz-adv-x="520" 
d="M490 98v-98h-460v88l289 364h-263v98h426v-87l-298 -365h306zM92 777h104l65 -83l63 83h104l-91 -153h-153z" />
    <glyph glyph-name="uni018F" unicode="&#x18f;" horiz-adv-x="722" 
d="M582.5 616.5q81.5 -93.5 81.5 -268.5q0 -172 -82 -265t-234 -93q-143 0 -219.5 84t-76.5 241v68h457q-4 119 -41.5 171.5t-117.5 52.5q-29 0 -50.5 -6.5t-49 -24.5t-78.5 -59q-7 -6 -17 -6q-23 0 -49.5 26t-40.5 61q41 48 122 80t162 32q152 0 233.5 -93.5zM459.5 138.5
q38.5 45.5 47.5 142.5h-303q0 -95 36 -141.5t109 -46.5q72 0 110.5 45.5z" />
    <glyph glyph-name="florin" unicode="&#x192;" horiz-adv-x="552" 
d="M417 671q-13 -10 -22.5 -41.5t-18.5 -98.5l-9 -67h138v-71h-148l-56 -416q-11 -84 -58.5 -128.5t-141.5 -44.5q-23 0 -47.5 2.5t-33.5 5.5l25 96q18 -6 42 -6q35 0 47 19t19 69l54 403h-119v71h129l9 68q14 101 40.5 154.5t67 73.5t102.5 20q17 0 43 -3t39 -7l-10 -91
q-22 2 -54 2q-24 0 -37 -10z" />
    <glyph glyph-name="Ohorn" unicode="&#x1a0;" horiz-adv-x="680" 
d="M647.5 658.5q-23.5 -34.5 -78.5 -50.5q73 -91 73 -254q0 -173 -79.5 -268.5t-222.5 -95.5t-222.5 95.5t-79.5 268.5q0 169 79.5 262.5t222.5 93.5q95 0 163 -42q23 5 32 21t9 44q0 30 -29 52q2 18 20.5 30.5t47.5 12.5q40 0 64 -23.5t24 -61.5q0 -50 -23.5 -84.5z
M449.5 160.5q34.5 60.5 34.5 193.5q0 130 -34 188t-110 58t-110 -58t-34 -188q0 -133 34.5 -193.5t109.5 -60.5t109.5 60.5z" />
    <glyph glyph-name="ohorn" unicode="&#x1a1;" horiz-adv-x="568" 
d="M503 441q35 -67 35 -165q0 -136 -66.5 -211t-187.5 -75t-187.5 75t-66.5 211t66.5 210t187.5 74q104 0 168 -55q18 6 25.5 22t7.5 41q0 30 -29 52q2 18 20.5 30.5t47.5 12.5q40 0 64 -23.5t24 -61.5q0 -108 -109 -137zM363.5 131q24.5 45 24.5 145q0 99 -24.5 143.5
t-79.5 44.5t-79.5 -44t-24.5 -144t24.5 -145t79.5 -45t79.5 45z" />
    <glyph glyph-name="Uhorn" unicode="&#x1af;" horiz-adv-x="711" 
d="M773.5 674.5q-40.5 -38.5 -138.5 -44.5v-379q0 -132 -69 -196.5t-210 -64.5q-139 0 -209.5 65.5t-70.5 195.5v449h154v-471q0 -62 32.5 -95.5t93.5 -33.5q125 0 125 129v471h144q35 0 48.5 17t13.5 50q0 30 -29 52q2 18 20.5 30.5t47.5 12.5q40 0 64 -23.5t24 -61.5
q0 -64 -40.5 -102.5z" />
    <glyph glyph-name="uhorn" unicode="&#x1b0;" horiz-adv-x="630" 
d="M688 526.5q-38 -38.5 -131 -45.5v-348q0 -46 3.5 -72t11.5 -44q-20 -10 -48 -16t-53 -6q-29 0 -43 14t-18 47q-29 -32 -70.5 -49t-90.5 -17q-87 0 -133 47.5t-46 137.5v375h148v-368q0 -53 16.5 -75.5t56.5 -22.5q71 0 117 72v394h129q35 0 48.5 17t13.5 50q0 30 -29 52
q2 18 20.5 30.5t47.5 12.5q40 0 64 -23.5t24 -61.5q0 -62 -38 -100.5z" />
    <glyph glyph-name="uni01CD" unicode="&#x1cd;" horiz-adv-x="660" 
d="M466 173h-272q-14 -66 -29 -173h-150q38 363 238 700h155q199 -335 237 -700h-150q-15 107 -29 173zM442 283q-42 165 -112 303q-70 -138 -112 -303h224zM162 887h104l65 -83l63 83h104l-91 -153h-153z" />
    <glyph glyph-name="uni01CE" unicode="&#x1ce;" horiz-adv-x="568" 
d="M512.5 89q6.5 -36 26.5 -62q-21 -15 -54 -24.5t-60 -9.5q-25 0 -40 18t-22 57q-27 -42 -64 -60t-96 -18q-73 0 -118 39.5t-45 103.5q0 90 75.5 134.5t242.5 53.5v52q0 41 -21.5 61t-65.5 20q-32 0 -63.5 -12.5t-77.5 -43.5q-5 -4 -14 -4q-18 0 -38.5 24t-36.5 63
q39 34 109.5 56.5t139.5 22.5q104 0 160 -48.5t56 -138.5v-166q0 -82 6.5 -118zM310.5 107q25.5 21 47.5 65v74q-83 -3 -125.5 -27.5t-42.5 -69.5q0 -29 18 -46t47 -17q30 0 55.5 21zM109 777h104l65 -83l63 83h104l-91 -153h-153z" />
    <glyph glyph-name="uni01CF" unicode="&#x1cf;" horiz-adv-x="350" 
d="M98 700h154v-700h-154v700zM7 897h104l65 -83l63 83h104l-91 -153h-153z" />
    <glyph glyph-name="uni01D0" unicode="&#x1d0;" horiz-adv-x="288" 
d="M70 550h148v-550h-148v550zM-24 777h104l65 -83l63 83h104l-91 -153h-153z" />
    <glyph glyph-name="uni01D1" unicode="&#x1d1;" horiz-adv-x="680" 
d="M117.5 85.5q-79.5 95.5 -79.5 268.5q0 169 79.5 262.5t222.5 93.5t222.5 -93.5t79.5 -262.5q0 -173 -79.5 -268.5t-222.5 -95.5t-222.5 95.5zM449.5 160.5q34.5 60.5 34.5 193.5q0 130 -34 188t-110 58t-110 -58t-34 -188q0 -133 34.5 -193.5t109.5 -60.5t109.5 60.5z
M172 897h104l65 -83l63 83h104l-91 -153h-153z" />
    <glyph glyph-name="uni01D2" unicode="&#x1d2;" horiz-adv-x="568" 
d="M96.5 65q-66.5 75 -66.5 211t66.5 210t187.5 74t187.5 -74t66.5 -210t-66.5 -211t-187.5 -75t-187.5 75zM363.5 131q24.5 45 24.5 145q0 99 -24.5 143.5t-79.5 44.5t-79.5 -44t-24.5 -144t24.5 -145t79.5 -45t79.5 45zM116 777h104l65 -83l63 83h104l-91 -153h-153z" />
    <glyph glyph-name="uni01D3" unicode="&#x1d3;" horiz-adv-x="711" 
d="M146.5 55.5q-70.5 65.5 -70.5 195.5v449h154v-471q0 -62 32.5 -95.5t93.5 -33.5q125 0 125 129v471h154v-449q0 -132 -69 -196.5t-210 -64.5q-139 0 -209.5 65.5zM186 897h104l65 -83l63 83h104l-91 -153h-153z" />
    <glyph glyph-name="uni01D4" unicode="&#x1d4;" horiz-adv-x="630" 
d="M560.5 61q3.5 -26 11.5 -44q-20 -10 -48 -16t-53 -6q-29 0 -43 14t-18 47q-29 -32 -70.5 -49t-90.5 -17q-87 0 -133 47.5t-46 137.5v375h148v-368q0 -53 16.5 -75.5t56.5 -22.5q71 0 117 72v394h149v-417q0 -46 3.5 -72zM147 777h104l65 -83l63 83h104l-91 -153h-153z
" />
    <glyph glyph-name="uni01D5" unicode="&#x1d5;" horiz-adv-x="711" 
d="M146.5 55.5q-70.5 65.5 -70.5 195.5v449h154v-471q0 -62 32.5 -95.5t93.5 -33.5q125 0 125 129v471h154v-449q0 -132 -69 -196.5t-210 -64.5q-139 0 -209.5 65.5zM184 825v13q0 65 65 65h12q65 0 65 -65v-13q0 -65 -65 -65h-12q-65 0 -65 65zM384 825v13q0 65 65 65h12
q65 0 65 -65v-13q0 -65 -65 -65h-12q-65 0 -65 65zM191 1061h326v-100h-326v100z" />
    <glyph glyph-name="uni01D6" unicode="&#x1d6;" horiz-adv-x="630" 
d="M560.5 61q3.5 -26 11.5 -44q-20 -10 -48 -16t-53 -6q-29 0 -43 14t-18 47q-29 -32 -70.5 -49t-90.5 -17q-87 0 -133 47.5t-46 137.5v375h148v-368q0 -53 16.5 -75.5t56.5 -22.5q71 0 117 72v394h149v-417q0 -46 3.5 -72zM145 705v13q0 65 65 65h12q65 0 65 -65v-13
q0 -65 -65 -65h-12q-65 0 -65 65zM345 705v13q0 65 65 65h12q65 0 65 -65v-13q0 -65 -65 -65h-12q-65 0 -65 65zM152 941h326v-100h-326v100z" />
    <glyph glyph-name="uni01D7" unicode="&#x1d7;" horiz-adv-x="711" 
d="M146.5 55.5q-70.5 65.5 -70.5 195.5v449h154v-471q0 -62 32.5 -95.5t93.5 -33.5q125 0 125 129v471h154v-449q0 -132 -69 -196.5t-210 -64.5q-139 0 -209.5 65.5zM185 825v13q0 65 65 65h12q65 0 65 -65v-13q0 -65 -65 -65h-12q-65 0 -65 65zM385 825v13q0 65 65 65h12
q65 0 65 -65v-13q0 -65 -65 -65h-12q-65 0 -65 65zM362 1090h165l-111 -151h-126z" />
    <glyph glyph-name="uni01D8" unicode="&#x1d8;" horiz-adv-x="630" 
d="M560.5 61q3.5 -26 11.5 -44q-20 -10 -48 -16t-53 -6q-29 0 -43 14t-18 47q-29 -32 -70.5 -49t-90.5 -17q-87 0 -133 47.5t-46 137.5v375h148v-368q0 -53 16.5 -75.5t56.5 -22.5q71 0 117 72v394h149v-417q0 -46 3.5 -72zM146 705v13q0 65 65 65h12q65 0 65 -65v-13
q0 -65 -65 -65h-12q-65 0 -65 65zM346 705v13q0 65 65 65h12q65 0 65 -65v-13q0 -65 -65 -65h-12q-65 0 -65 65zM323 970h165l-111 -151h-126z" />
    <glyph glyph-name="uni01D9" unicode="&#x1d9;" horiz-adv-x="711" 
d="M146.5 55.5q-70.5 65.5 -70.5 195.5v449h154v-471q0 -62 32.5 -95.5t93.5 -33.5q125 0 125 129v471h154v-449q0 -132 -69 -196.5t-210 -64.5q-139 0 -209.5 65.5zM183 825v13q0 65 65 65h12q65 0 65 -65v-13q0 -65 -65 -65h-12q-65 0 -65 65zM383 825v13q0 65 65 65h12
q65 0 65 -65v-13q0 -65 -65 -65h-12q-65 0 -65 65zM185 1094h104l65 -83l63 83h104l-91 -153h-153z" />
    <glyph glyph-name="uni01DA" unicode="&#x1da;" horiz-adv-x="630" 
d="M560.5 61q3.5 -26 11.5 -44q-20 -10 -48 -16t-53 -6q-29 0 -43 14t-18 47q-29 -32 -70.5 -49t-90.5 -17q-87 0 -133 47.5t-46 137.5v375h148v-368q0 -53 16.5 -75.5t56.5 -22.5q71 0 117 72v394h149v-417q0 -46 3.5 -72zM144 705v13q0 65 65 65h12q65 0 65 -65v-13
q0 -65 -65 -65h-12q-65 0 -65 65zM344 705v13q0 65 65 65h12q65 0 65 -65v-13q0 -65 -65 -65h-12q-65 0 -65 65zM146 974h104l65 -83l63 83h104l-91 -153h-153z" />
    <glyph glyph-name="uni01DB" unicode="&#x1db;" horiz-adv-x="711" 
d="M146.5 55.5q-70.5 65.5 -70.5 195.5v449h154v-471q0 -62 32.5 -95.5t93.5 -33.5q125 0 125 129v471h154v-449q0 -132 -69 -196.5t-210 -64.5q-139 0 -209.5 65.5zM185 825v13q0 65 65 65h12q65 0 65 -65v-13q0 -65 -65 -65h-12q-65 0 -65 65zM385 825v13q0 65 65 65h12
q65 0 65 -65v-13q0 -65 -65 -65h-12q-65 0 -65 65zM197 1090h163l61 -151h-106z" />
    <glyph glyph-name="uni01DC" unicode="&#x1dc;" horiz-adv-x="630" 
d="M560.5 61q3.5 -26 11.5 -44q-20 -10 -48 -16t-53 -6q-29 0 -43 14t-18 47q-29 -32 -70.5 -49t-90.5 -17q-87 0 -133 47.5t-46 137.5v375h148v-368q0 -53 16.5 -75.5t56.5 -22.5q71 0 117 72v394h149v-417q0 -46 3.5 -72zM146 705v13q0 65 65 65h12q65 0 65 -65v-13
q0 -65 -65 -65h-12q-65 0 -65 65zM346 705v13q0 65 65 65h12q65 0 65 -65v-13q0 -65 -65 -65h-12q-65 0 -65 65zM158 970h163l61 -151h-106z" />
    <glyph glyph-name="Gcaron" unicode="&#x1e6;" horiz-adv-x="686" 
d="M634 384v-311q-90 -83 -252 -83q-163 0 -246.5 91t-83.5 269q0 108 42 189.5t119 126t179 44.5q76 0 137 -18.5t102 -54.5q-8 -31 -30.5 -60t-37.5 -29q-7 0 -12.5 2t-15.5 8q-34 22 -69 32t-76 10q-88 0 -134 -64t-46 -186q0 -250 170 -250q72 0 102 22v156h-61
q-31 0 -44 23.5t-13 82.5h270zM209 887h104l65 -83l63 83h104l-91 -153h-153z" />
    <glyph glyph-name="gcaron" unicode="&#x1e7;" horiz-adv-x="585" 
d="M492 84.5q64 -40.5 64 -115.5q0 -81 -72 -128.5t-195 -47.5q-124 0 -191.5 39.5t-67.5 112.5q0 94 134 107v3q-41 8 -63.5 28.5t-22.5 49.5q0 27 22 47.5t59 30.5q-49 25 -78 65t-29 88q0 94 64.5 145t181.5 51q59 0 108 -20q23 31 54.5 50t59.5 19q36 0 50.5 -25.5
t14.5 -88.5q-68 0 -99 -16q34 -45 34 -103q0 -92 -62.5 -142t-178.5 -50q-47 0 -64 -6.5t-17 -24.5q0 -13 8 -18.5t30.5 -7.5t72.5 -2q119 0 183 -40.5zM202 372q0 -47 20 -69.5t63 -22.5t63.5 22.5t20.5 69.5q0 48 -20.5 71t-63.5 23q-83 0 -83 -94zM382.5 -92
q32.5 19 32.5 55q0 70 -122 70q-112 0 -112 -70q0 -39 25.5 -56.5t82.5 -17.5q61 0 93.5 19zM125 777h104l65 -83l63 83h104l-91 -153h-153z" />
    <glyph glyph-name="Aringacute" unicode="&#x1fa;" horiz-adv-x="660" 
d="M466 173h-272q-14 -66 -29 -173h-150q38 363 238 700h155q199 -335 237 -700h-150q-15 107 -29 173zM442 283q-42 165 -112 303q-70 -138 -112 -303h224zM236 783q-38 37 -38 94t38.5 94.5t93.5 37.5q36 0 66 -17t48 -47t18 -68q0 -57 -38.5 -94t-93.5 -37q-56 0 -94 37z
M360.5 846.5q12.5 12.5 12.5 30.5q0 19 -12.5 31t-30.5 12q-19 0 -31.5 -12t-12.5 -31q0 -18 12.5 -30.5t31.5 -12.5q18 0 30.5 12.5zM337 1180h165l-111 -151h-126z" />
    <glyph glyph-name="aringacute" unicode="&#x1fb;" horiz-adv-x="568" 
d="M512.5 89q6.5 -36 26.5 -62q-21 -15 -54 -24.5t-60 -9.5q-25 0 -40 18t-22 57q-27 -42 -64 -60t-96 -18q-73 0 -118 39.5t-45 103.5q0 90 75.5 134.5t242.5 53.5v52q0 41 -21.5 61t-65.5 20q-32 0 -63.5 -12.5t-77.5 -43.5q-5 -4 -14 -4q-18 0 -38.5 24t-36.5 63
q39 34 109.5 56.5t139.5 22.5q104 0 160 -48.5t56 -138.5v-166q0 -82 6.5 -118zM310.5 107q25.5 21 47.5 65v74q-83 -3 -125.5 -27.5t-42.5 -69.5q0 -29 18 -46t47 -17q30 0 55.5 21zM183 673q-38 37 -38 94t38.5 94.5t93.5 37.5q36 0 66 -17t48 -47t18 -68q0 -57 -38.5 -94
t-93.5 -37q-56 0 -94 37zM307.5 736.5q12.5 12.5 12.5 30.5q0 19 -12.5 31t-30.5 12q-19 0 -31.5 -12t-12.5 -31q0 -18 12.5 -30.5t31.5 -12.5q18 0 30.5 12.5zM284 1070h165l-111 -151h-126z" />
    <glyph glyph-name="AEacute" unicode="&#x1fc;" horiz-adv-x="970" 
d="M925 100q0 -55 -13.5 -77.5t-58.5 -22.5h-378v206h-252q-34 -100 -54 -206h-154q42 210 129.5 388.5t245.5 311.5h530v-100h-300v-197h257v-100h-257v-203h305zM475 306v294h-9q-121 -107 -204 -294h213zM562 923h165l-111 -151h-126z" />
    <glyph glyph-name="aeacute" unicode="&#x1fd;" horiz-adv-x="890" 
d="M853 248h-339q8 -162 106 -162q38 0 59 16t35 35.5t20 26.5q8 9 21 9q19 0 44.5 -13t49.5 -32q-65 -140 -229 -140q-124 0 -192 77q-33 -35 -82 -56t-113 -21q-90 0 -141.5 37.5t-51.5 106.5q0 97 79 146.5t244 52.5v42q0 39 -20 60t-59 21q-37 0 -66.5 -12t-72.5 -38
l-18 -11q-8 -4 -13 -4q-18 0 -37.5 25.5t-35.5 66.5q46 33 111 56t138 23q51 0 93 -15t71 -42q69 57 175 57q105 0 168 -60t63 -178q0 -37 -7 -74zM710 332q0 66 -20 100t-64 34q-96 0 -110 -134h194zM327.5 107.5q31.5 23.5 46.5 68.5q-8 31 -10 72q-174 -5 -174 -100
q0 -29 18 -46.5t47 -17.5q41 0 72.5 23.5zM459 773h165l-111 -151h-126z" />
    <glyph glyph-name="Oslashacute" unicode="&#x1fe;" horiz-adv-x="680" 
d="M642 354q0 -173 -79.5 -268.5t-222.5 -95.5q-108 0 -182 57l-33 -47h-72l62 88q-77 95 -77 266q0 169 79.5 262.5t222.5 93.5q106 0 178 -52l31 43h72l-59 -84q80 -94 80 -263zM209 220l234 332q-33 48 -103 48q-76 0 -110 -58t-34 -188q0 -82 13 -134zM449.5 160.5
q34.5 60.5 34.5 193.5q0 83 -13 135l-237 -335q35 -54 106 -54q75 0 109.5 60.5zM347 893h165l-111 -151h-126z" />
    <glyph glyph-name="oslashacute" unicode="&#x1ff;" horiz-adv-x="568" 
d="M538 276q0 -136 -66.5 -211t-187.5 -75q-86 0 -148 40l-22 -30h-84l57 77q-57 74 -57 199q0 136 66.5 210t187.5 74q77 0 134 -31l16 21h84l-47 -64q67 -73 67 -210zM183 209l168 228q-24 27 -67 27q-55 0 -79.5 -44t-24.5 -144q0 -37 3 -67zM363.5 131q24.5 45 24.5 145
q0 54 -7 88l-174 -237q25 -41 77 -41q55 0 79.5 45zM291 773h165l-111 -151h-126z" />
    <glyph glyph-name="uni0218" unicode="&#x218;" horiz-adv-x="642" 
d="M139 32q-70 42 -70 115q0 35 29.5 55t83.5 21q6 -59 45.5 -91t106.5 -32q123 0 123 91q0 36 -33.5 59t-116.5 47q-118 33 -173 84.5t-55 132.5q0 91 70.5 143.5t192.5 52.5q98 0 168 -46.5t96 -129.5q-17 -17 -47 -30t-53 -13q-18 0 -28 7.5t-21 28.5q-20 39 -46 56
t-69 17q-107 0 -107 -71q0 -28 11 -45.5t38 -32t82 -32.5q100 -33 153 -60.5t74.5 -59.5t21.5 -79q0 -68 -35.5 -120t-99.5 -81t-148 -29q-123 0 -193 42zM393 -72.5q21 -21.5 21 -59.5v-19q0 -46 -12.5 -80t-41.5 -78q-17 -25 -32.5 -37.5t-33.5 -12.5q-28 0 -48 18
q41 45 57.5 67.5t21.5 51.5h-10q-33 0 -52 21t-19 55v19q0 34 20 55t53 21h21q34 0 55 -21.5z" />
    <glyph glyph-name="uni0219" unicode="&#x219;" horiz-adv-x="505" 
d="M90.5 20q-56.5 30 -56.5 77q0 28 19.5 47.5t56.5 21.5q21 -40 54.5 -60t84.5 -20q88 0 88 66q0 27 -25 41t-82 33q-58 19 -95.5 37t-64.5 52.5t-27 89.5q0 47 29.5 82.5t78 54t105.5 18.5q73 0 128 -28t86 -75q-13 -25 -35.5 -43.5t-40.5 -18.5q-10 0 -17 3.5t-14 11.5
q-45 56 -103 56q-38 0 -58.5 -14.5t-20.5 -43.5q0 -31 27.5 -47t86.5 -33q56 -15 92.5 -31.5t62 -49t25.5 -85.5q0 -83 -59.5 -127.5t-170.5 -44.5q-98 0 -154.5 30zM305 -72.5q21 -21.5 21 -59.5v-19q0 -46 -12.5 -80t-41.5 -78q-17 -25 -32.5 -37.5t-33.5 -12.5
q-28 0 -48 18q41 45 57.5 67.5t21.5 51.5h-10q-33 0 -52 21t-19 55v19q0 34 20 55t53 21h21q34 0 55 -21.5z" />
    <glyph glyph-name="uni021A" unicode="&#x21a;" horiz-adv-x="534" 
d="M523 656q0 -34 -11 -50t-35 -16h-134v-590h-152v590h-176v110h504q4 -24 4 -44zM330 -72.5q21 -21.5 21 -59.5v-19q0 -46 -12.5 -80t-41.5 -78q-17 -25 -32.5 -37.5t-33.5 -12.5q-28 0 -48 18q41 45 57.5 67.5t21.5 51.5h-10q-33 0 -52 21t-19 55v19q0 34 20 55t53 21h21
q34 0 55 -21.5z" />
    <glyph glyph-name="uni021B" unicode="&#x21b;" horiz-adv-x="405" 
d="M389 84q6 -10 6 -24q0 -21 -13 -34q-16 -16 -52.5 -26t-80.5 -10q-69 0 -111 38.5t-42 102.5v325h-84v94h84v150h148v-150h104v-94h-104v-312q0 -35 11.5 -49.5t40.5 -14.5q32 0 76 17q11 -3 17 -13zM311 -72.5q21 -21.5 21 -59.5v-19q0 -46 -12.5 -80t-41.5 -78
q-17 -25 -32.5 -37.5t-33.5 -12.5q-28 0 -48 18q41 45 57.5 67.5t21.5 51.5h-10q-33 0 -52 21t-19 55v19q0 34 20 55t53 21h21q34 0 55 -21.5z" />
    <glyph glyph-name="uni0237" unicode="&#x237;" horiz-adv-x="270" 
d="M-34.5 -204.5q-29.5 7.5 -41.5 19.5q-8 8 -8 21q0 12 6.5 25.5t12.5 16.5q12 -6 25.5 -9t36.5 -3q30 0 46.5 18t16.5 54v612h148v-603q0 -71 -45 -115t-129 -44q-39 0 -68.5 7.5z" />
    <glyph glyph-name="uni0251" unicode="&#x251;" horiz-adv-x="598" 
d="M543.5 85.5q6.5 -32.5 26.5 -58.5q-25 -14 -56 -24t-63 -10q-38 0 -52 50q-23 -24 -60.5 -38.5t-85.5 -14.5q-104 0 -163.5 68.5t-59.5 213.5q0 92 33 157t90 98t129 33q28 0 56.5 -7t50.5 -19v16h148v-353q0 -79 6.5 -111.5zM389 142v4v290q-31 30 -83 30
q-53 0 -89.5 -46.5t-36.5 -147.5t33 -143.5t83 -42.5q66 0 93 56z" />
    <glyph glyph-name="uni0259" unicode="&#x259;" horiz-adv-x="580" 
d="M468 483.5q72 -76.5 72 -209.5q0 -87 -32.5 -151t-93 -98.5t-143.5 -34.5q-115 0 -178 65t-63 184q0 14 5 63h354q-5 76 -36.5 118t-82.5 42q-23 0 -38.5 -6t-32 -21.5t-43.5 -50.5q-5 -8 -21 -8q-17 0 -41.5 11.5t-52.5 32.5q65 140 229 140q126 0 198 -76.5zM351 118
q29 34 36 100h-207q0 -134 94 -134q48 0 77 34z" />
    <glyph glyph-name="uni02BB" unicode="&#x2bb;" horiz-adv-x="241" 
d="M66 579q-20 23 -20 65q0 33 13 68.5t31 55.5q26 29 61 29q11 0 23.5 -3.5t19.5 -8.5q-9 -18 -16 -47.5t-7 -55.5q0 -48 25 -66q0 -23 -19.5 -41.5t-50.5 -18.5q-40 0 -60 23z" />
    <glyph glyph-name="uni02BC" unicode="&#x2bc;" horiz-adv-x="241" 
d="M67.5 472.5q-12.5 3.5 -19.5 8.5q9 18 16 47.5t7 55.5q0 48 -25 66q0 23 19.5 41.5t50.5 18.5q40 0 60 -23t20 -65q0 -33 -13 -68.5t-31 -55.5q-26 -29 -61 -29q-11 0 -23.5 3.5z" />
    <glyph glyph-name="uni02BE" unicode="&#x2be;" 
d="M-66 724q19 0 31.5 12.5t12.5 30.5q0 19 -12.5 31t-31.5 12v89q55 0 93.5 -37.5t38.5 -94.5t-38 -94t-94 -37v88z" />
    <glyph glyph-name="uni02BF" unicode="&#x2bf;" 
d="M-28 673q-38 37 -38 94t38.5 94.5t93.5 37.5v-89q-19 0 -31.5 -12t-12.5 -31q0 -18 12.5 -30.5t31.5 -12.5v-88q-56 0 -94 37z" />
    <glyph glyph-name="circumflex" unicode="&#x2c6;" horiz-adv-x="243" 
d="M45 775h153l91 -153h-104l-63 83l-65 -83h-104z" />
    <glyph glyph-name="caron" unicode="&#x2c7;" horiz-adv-x="243" 
d="M-47 777h104l65 -83l63 83h104l-91 -153h-153z" />
    <glyph glyph-name="uni02C8" unicode="&#x2c8;" 
d="M-54 723h108v-147h-108v147z" />
    <glyph glyph-name="uni02C9" unicode="&#x2c9;" horiz-adv-x="440" 
d="M57 744h326v-100h-326v100z" />
    <glyph glyph-name="uni02CA" unicode="&#x2ca;" 
d="M-38 773h165l-111 -151h-126z" />
    <glyph glyph-name="uni02CB" unicode="&#x2cb;" 
d="M-116 773h163l61 -151h-106z" />
    <glyph glyph-name="uni02CC" unicode="&#x2cc;" 
d="M-54 -40h108v-147h-108v147z" />
    <glyph glyph-name="breve" unicode="&#x2d8;" horiz-adv-x="243" 
d="M27.5 635.5q-39.5 14.5 -59.5 37.5t-20 49q0 29 23.5 45.5t62.5 16.5q2 -34 24.5 -53.5t62.5 -19.5q39 0 62 21.5t26 56.5q44 0 65 -16t21 -50q0 -28 -21 -51.5t-60.5 -37t-92.5 -13.5q-54 0 -93.5 14.5z" />
    <glyph glyph-name="dotaccent" unicode="&#x2d9;" horiz-adv-x="248" 
d="M39 729v15q0 78 78 78h14q78 0 78 -78v-15q0 -78 -78 -78h-14q-78 0 -78 78z" />
    <glyph glyph-name="ring" unicode="&#x2da;" horiz-adv-x="244" 
d="M28 673q-38 37 -38 94t38.5 94.5t93.5 37.5q36 0 66 -17t48 -47t18 -68q0 -57 -38.5 -94t-93.5 -37q-56 0 -94 37zM152.5 736.5q12.5 12.5 12.5 30.5q0 19 -12.5 31t-30.5 12q-19 0 -31.5 -12t-12.5 -31q0 -18 12.5 -30.5t31.5 -12.5q18 0 30.5 12.5z" />
    <glyph glyph-name="ogonek" unicode="&#x2db;" horiz-adv-x="243" 
d="M18 -123q0 79 93 127h61q-22 -28 -32.5 -50t-10.5 -48q0 -18 7.5 -28t21.5 -10q18 0 32 10q11 -8 16 -16t5 -20q0 -23 -21.5 -35.5t-59.5 -12.5q-112 0 -112 83z" />
    <glyph glyph-name="tilde" unicode="&#x2dc;" horiz-adv-x="244" 
d="M-20.5 655.5q-17.5 17.5 -17.5 46.5q0 36 24.5 56t62.5 20q22 0 38 -5t37 -14q15 -7 26 -11t24 -4q21 0 29 9.5t9 27.5q37 0 53.5 -13.5t16.5 -46.5q0 -31 -23 -56t-62 -25q-23 0 -39.5 5t-38.5 14q-16 7 -28 11t-26 4q-19 0 -28 -10t-9 -26q-31 0 -48.5 17.5z" />
    <glyph glyph-name="hungarumlaut" unicode="&#x2dd;" horiz-adv-x="243" 
d="M44 773h165l-114 -151h-94zM235 773h165l-131 -151h-95z" />
    <glyph glyph-name="gravecomb" unicode="&#x300;" 
d="M-158 773h163l61 -151h-106z" />
    <glyph glyph-name="acutecomb" unicode="&#x301;" 
d="M-171 773h165l-111 -151h-126z" />
    <glyph glyph-name="uni0302" unicode="&#x302;" 
d="M-77 775h153l91 -153h-104l-63 83l-65 -83h-104z" />
    <glyph glyph-name="tildecomb" unicode="&#x303;" 
d="M-141.5 655.5q-17.5 17.5 -17.5 46.5q0 36 24.5 56t62.5 20q22 0 38 -5t37 -14q15 -7 26 -11t24 -4q21 0 29 9.5t9 27.5q37 0 53.5 -13.5t16.5 -46.5q0 -31 -23 -56t-62 -25q-23 0 -39.5 5t-38.5 14q-16 7 -28 11t-26 4q-19 0 -28 -10t-9 -26q-31 0 -48.5 17.5z" />
    <glyph glyph-name="uni0304" unicode="&#x304;" 
d="M-163 744h326v-100h-326v100z" />
    <glyph glyph-name="uni0306" unicode="&#x306;" 
d="M-93.5 635.5q-39.5 14.5 -59.5 37.5t-20 49q0 29 23.5 45.5t62.5 16.5q2 -34 24.5 -53.5t62.5 -19.5q39 0 62 21.5t26 56.5q44 0 65 -16t21 -50q0 -28 -21 -51.5t-60.5 -37t-92.5 -13.5q-54 0 -93.5 14.5z" />
    <glyph glyph-name="uni0307" unicode="&#x307;" 
d="M-85 729v15q0 78 78 78h14q78 0 78 -78v-15q0 -78 -78 -78h-14q-78 0 -78 78z" />
    <glyph glyph-name="uni0308" unicode="&#x308;" 
d="M-171 705v13q0 65 65 65h12q65 0 65 -65v-13q0 -65 -65 -65h-12q-65 0 -65 65zM29 705v13q0 65 65 65h12q65 0 65 -65v-13q0 -65 -65 -65h-12q-65 0 -65 65z" />
    <glyph glyph-name="hookabovecomb" unicode="&#x309;" 
d="M-181 628q-13 12 -13 24q48 24 48 75q0 17 -6 25t-20 8q-16 0 -23 -11t-9 -35q-70 0 -70 52q0 31 29 53.5t77 22.5q54 0 84.5 -23t30.5 -66q0 -51 -26 -86.5t-71 -51.5q-18 1 -31 13z" />
    <glyph glyph-name="uni030A" unicode="&#x30a;" 
d="M-94 673q-38 37 -38 94t38.5 94.5t93.5 37.5q36 0 66 -17t48 -47t18 -68q0 -57 -38.5 -94t-93.5 -37q-56 0 -94 37zM30.5 736.5q12.5 12.5 12.5 30.5q0 19 -12.5 31t-30.5 12q-19 0 -31.5 -12t-12.5 -31q0 -18 12.5 -30.5t31.5 -12.5q18 0 30.5 12.5z" />
    <glyph glyph-name="uni030B" unicode="&#x30b;" 
d="M-98 773h165l-114 -151h-94zM93 773h165l-131 -151h-95z" />
    <glyph glyph-name="uni030C" unicode="&#x30c;" 
d="M-170 777h104l65 -83l63 83h104l-91 -153h-153z" />
    <glyph glyph-name="uni031B" unicode="&#x31b;" 
d="M-80 362q35 0 48.5 17t13.5 50q0 30 -29 52q2 18 20.5 30.5t47.5 12.5q40 0 64 -23.5t24 -61.5q0 -66 -42.5 -104.5t-146.5 -42.5v70z" />
    <glyph glyph-name="dotbelowcomb" unicode="&#x323;" 
d="M-210 -152v15q0 78 78 78h14q78 0 78 -78v-15q0 -78 -78 -78h-14q-78 0 -78 78z" />
    <glyph glyph-name="uni0324" unicode="&#x324;" 
d="M-171 -141v13q0 65 65 65h12q65 0 65 -65v-13q0 -65 -65 -65h-12q-65 0 -65 65zM29 -141v13q0 65 65 65h12q65 0 65 -65v-13q0 -65 -65 -65h-12q-65 0 -65 65z" />
    <glyph glyph-name="uni0326" unicode="&#x326;" 
d="M-180 -72.5q21 -21.5 21 -59.5v-19q0 -46 -12.5 -80t-41.5 -78q-17 -25 -32.5 -37.5t-33.5 -12.5q-28 0 -48 18q41 45 57.5 67.5t21.5 51.5h-10q-33 0 -52 21t-19 55v19q0 34 20 55t53 21h21q34 0 55 -21.5z" />
    <glyph glyph-name="uni0327" unicode="&#x327;" 
d="M92.5 -74.5q28.5 -23.5 28.5 -61.5q0 -103 -141 -103q-104 0 -104 54q0 13 4 22q12 -5 35 -8t49 -3q31 0 42.5 8t11.5 28q0 11 -8.5 18.5t-24.5 7.5q-14 0 -28 -5l-37 42l47 75h88l-48 -51h12q45 0 73.5 -23.5z" />
    <glyph glyph-name="uni0328" unicode="&#x328;" 
d="M-98 -123q0 79 93 127h61q-22 -28 -32.5 -50t-10.5 -48q0 -18 7.5 -28t21.5 -10q18 0 32 10q11 -8 16 -16t5 -20q0 -23 -21.5 -35.5t-59.5 -12.5q-112 0 -112 83z" />
    <glyph glyph-name="uni032E" unicode="&#x32e;" 
d="M-95.5 -197.5q-39.5 14.5 -59.5 37.5t-20 49q0 29 23.5 45.5t62.5 16.5q2 -34 24.5 -53.5t62.5 -19.5q39 0 62 21.5t26 56.5q44 0 65 -16t21 -50q0 -28 -21 -51.5t-60.5 -37t-92.5 -13.5q-54 0 -93.5 14.5z" />
    <glyph glyph-name="uni0331" unicode="&#x331;" 
d="M-163 -70h326v-100h-326v100z" />
    <glyph glyph-name="uni0394" unicode="&#x394;" horiz-adv-x="606" 
d="M606 70v-70h-606v70l250 630h106zM447 118l-144 370l-144 -370h288z" />
    <glyph glyph-name="uni03A9" unicode="&#x3a9;" horiz-adv-x="716" 
d="M70 98h150v39q-93 26 -146.5 98.5t-53.5 174.5q0 90 42 158t118.5 105t177.5 37t177.5 -37t118.5 -105t42 -158q0 -103 -54 -176.5t-146 -96.5v-39h150v-98h-260v197q82 14 124 67.5t42 145.5q0 99 -50 150t-144 51t-143.5 -51t-49.5 -150q0 -92 42 -145.5t124 -67.5
v-197h-261v98z" />
    <glyph glyph-name="uni03BC" unicode="&#x3bc;" horiz-adv-x="630" 
d="M560.5 60q3.5 -26 11.5 -43q-20 -10 -47.5 -16t-53.5 -6t-39.5 13.5t-18.5 45.5q-18 -31 -50.5 -48.5t-68.5 -17.5q-47 0 -76 21v-229h-148v770h148v-370q0 -52 21.5 -75t61.5 -23q77 0 108 89v379h148v-417q0 -47 3.5 -73z" />
    <glyph glyph-name="pi" unicode="&#x3c0;" horiz-adv-x="640" 
d="M413.5 22q-30.5 32 -30.5 84v344h-132v-450h-145v450h-97v100h618v-100h-99v-326q0 -30 10.5 -44t32.5 -14q30 0 62 18v-71q-48 -23 -123 -23q-66 0 -96.5 32z" />
    <glyph glyph-name="uni0E01" unicode="&#xe01;" horiz-adv-x="615" 
d="M495.5 535q69.5 -51 69.5 -152v-383h-145v383q0 111 -118 111q-38 0 -67.5 -9.5t-45.5 -23t-16 -23.5q0 -19 18.5 -31.5t35.5 -12.5q11 0 31 6q15 5 25 5q12 0 27.5 -25t15.5 -42q0 -12 -9 -12q-39 0 -60.5 -10t-30.5 -33.5t-9 -66.5v-216h-145v216q0 41 16 72t43 51
q-37 14 -64 40t-27 56q0 33 31 68.5t90.5 59t140.5 23.5q124 0 193.5 -51z" />
    <glyph glyph-name="uni0E02" unicode="&#xe02;" horiz-adv-x="605" 
d="M169 29q-58 38 -58 122v93q0 13 6 22t19 18q46 33 68 51.5t37 43.5t15 57q0 37 -20.5 56.5t-57.5 19.5q-34 0 -53 -18t-19 -41q0 -18 8 -28.5t22 -10.5q28 0 28 30q0 14 -12 23q-7 5 -20 7q10 14 33 14q26 0 42.5 -15t16.5 -43q0 -36 -24.5 -59t-62.5 -23q-43 0 -72 29
t-29 81q0 34 20 62.5t56 45t81 16.5q71 0 115 -38t44 -101q0 -61 -24.5 -105.5t-71.5 -91.5v-74q0 -45 14 -67t55 -22q33 0 49 11t21 30.5t5 54.5v397h145v-413q0 -94 -62 -133t-159 -39t-155 38z" />
    <glyph glyph-name="uni0E03" unicode="&#xe03;" horiz-adv-x="646" 
d="M171 38.5q-61 47.5 -61 140.5v30q0 44 19.5 73.5t57.5 65.5q33 30 49.5 53.5t16.5 56.5q0 36 -25 36q-18 0 -34 -28q-16 27 -43 27q-12 0 -20.5 -8t-8.5 -22q0 -15 8.5 -22.5t20.5 -7.5q22 0 37 20q10 -8 14 -14t4 -15q0 -22 -19 -38t-55 -16q-47 0 -77.5 27t-30.5 76
t26.5 78t67.5 29q29 0 46.5 -9.5t29.5 -29.5q12 18 33.5 28.5t51.5 10.5q49 0 78 -28.5t29 -79.5q0 -46 -18 -81.5t-53 -83.5q-26 -35 -38 -57t-12 -45v-26q0 -34 6 -54t24.5 -30t53.5 -10q55 0 73.5 22t18.5 72v397h145v-407q0 -178 -238 -178q-116 0 -177 47.5z" />
    <glyph glyph-name="uni0E04" unicode="&#xe04;" horiz-adv-x="634" 
d="M584 350v-350h-145v345q0 49 -6.5 79.5t-32 50t-77.5 19.5q-69 0 -102.5 -37.5t-33.5 -101.5q0 -30 5 -58q20 31 51.5 49t71.5 18q51 0 76.5 -25.5t25.5 -70.5q0 -44 -25.5 -68.5t-69.5 -24.5q-26 0 -44.5 14.5t-18.5 33.5q0 12 6 22t17 12q5 -15 14 -21.5t23 -6.5
t22 9.5t8 23.5q0 13 -10.5 21.5t-26.5 8.5q-56 0 -80.5 -69.5t-27.5 -222.5h-131q-15 0 -15 20q0 23 10 50.5t27 67.5q13 26 13 32q0 8 -15 30q-22 32 -36.5 67.5t-14.5 87.5q0 69 35 121.5t98.5 81t147.5 28.5q261 0 261 -236z" />
    <glyph glyph-name="uni0E05" unicode="&#xe05;" horiz-adv-x="640" 
d="M513.5 543.5q42.5 -27.5 59.5 -69t17 -104.5v-370h-145v370q0 40 -11.5 67.5t-40.5 38.5l-26 -18q-8 -6 -19.5 -14t-27.5 -18q-4 2 -56 36l-20 14q-57 -34 -57 -121q0 -30 5 -58q20 31 51.5 49t71.5 18q51 0 76.5 -25.5t25.5 -70.5q0 -44 -25.5 -68.5t-69.5 -24.5
q-26 0 -44.5 14.5t-18.5 33.5q0 12 6 22t17 12q5 -15 14 -21.5t23 -6.5t22 9.5t8 23.5q0 13 -10.5 21.5t-26.5 8.5q-56 0 -80.5 -69.5t-27.5 -222.5h-131q-15 0 -15 20q0 23 10 50.5t27 67.5q13 26 13 32q0 8 -15 30q-22 32 -36.5 67.5t-14.5 87.5q0 87 49.5 150t151.5 81
q20 -9 34 -19.5t26 -20.5t17 -14l27 22.5t47 31.5q77 -15 119.5 -42.5z" />
    <glyph glyph-name="uni0E06" unicode="&#xe06;" horiz-adv-x="707" 
d="M644 44l1 -24q0 -20 -15 -20h-133q-31 71 -77 114.5t-99 64.5l1 -20q2 -28 2 -39q0 -129 -141 -129q-62 0 -97.5 38t-35.5 101q0 60 37.5 99.5t98.5 47.5q6 17 14.5 31t17.5 26.5t13 18.5q21 27 31.5 50t10.5 55q0 36 -25 36q-18 0 -34 -28q-16 27 -43 27q-12 0 -20.5 -8
t-8.5 -22q0 -15 8.5 -22.5t20.5 -7.5q22 0 37 20q10 -8 14 -14t4 -15q0 -22 -19 -38t-55 -16q-47 0 -77.5 27t-30.5 76t26.5 78t67.5 29q29 0 46.5 -9.5t29.5 -29.5q12 18 33.5 28.5t51.5 10.5q49 0 78 -28.5t29 -79.5q0 -43 -12 -78t-33 -76q-24 -46 -30 -60
q49 -17 92 -43.5t72 -62.5v424h145v-438q0 -52 4 -94zM182 117q0 16 -4 56l-2 20q-50 -15 -50 -71q0 -28 7.5 -43.5t22.5 -15.5q26 0 26 54z" />
    <glyph glyph-name="uni0E07" unicode="&#xe07;" horiz-adv-x="560" 
d="M197.5 -0.5q-39.5 8.5 -41.5 20.5q-21 107 -56.5 188t-89.5 157q19 19 47 34t54 15q30 0 44.5 -13t26.5 -42q23 -53 39.5 -117t32.5 -156q2 -9 40 -9q39 0 40 10q12 83 18 170t6 151q0 50 -7.5 72t-32.5 22q-31 0 -31 -26q0 -13 7 -20.5t20 -7.5q12 0 24 6q3 -9 3 -17
q0 -17 -14 -28.5t-38 -11.5q-37 0 -58.5 23t-21.5 61q0 44 35 72.5t99 28.5q82 0 122 -42t40 -118q0 -61 -11 -133t-34 -192l-15 -77q-2 -12 -49.5 -20.5t-104.5 -8.5q-54 0 -93.5 8.5z" />
    <glyph glyph-name="uni0E08" unicode="&#xe08;" horiz-adv-x="618" 
d="M270.5 -0.5q-33.5 8.5 -34.5 20.5q-4 67 -9 119.5t-12 91.5q-3 20 -11 30t-24 10q-15 0 -23.5 -8t-8.5 -20q0 -14 8 -22.5t21 -8.5t23 5q4 -5 4 -14q0 -37 -50 -37q-32 0 -52.5 24t-20.5 59q0 40 32.5 69t79.5 29q50 0 81.5 -25t40.5 -71q8 -38 11.5 -79t4.5 -51l3 -35
q2 -9 23 -9q22 0 23 10l9 50q15 78 22 130t7 101q0 55 -25.5 84.5t-76.5 29.5q-46 0 -82 -15.5t-74 -39.5q-12 -8 -21 -11.5t-20 -3.5q-16 0 -37 28.5t-35 68.5q44 29 118 53t153 24q116 0 181.5 -56t65.5 -155q0 -49 -12 -103.5t-36 -138.5q-16 -54 -30 -113
q-3 -12 -41.5 -20.5t-88.5 -8.5q-53 0 -86.5 8.5z" />
    <glyph glyph-name="uni0E09" unicode="&#xe09;" horiz-adv-x="647" 
d="M630.5 169q16.5 -29 16.5 -65q0 -52 -33.5 -80t-98.5 -28q-57 0 -88 29.5t-31 78.5q0 33 23 73q-47 -15 -81 -65.5t-34 -111.5h-110q-14 0 -19.5 6t-5.5 20v30q0 35 8 93q9 56 9 102q0 40 -36 40q-18 0 -28 -9.5t-10 -26.5q0 -18 11 -27t27 -9q10 0 23 5q3 -7 3 -14
q0 -17 -14.5 -28.5t-38.5 -11.5q-34 0 -55.5 22t-21.5 63q0 46 35 74.5t92 28.5q69 0 105.5 -35t36.5 -92q0 -13 -2 -39q28 31 64 48t75 18v1v122q0 101 -127 101q-50 0 -89.5 -15.5t-76.5 -39.5q-4 -3 -11.5 -8t-14 -7.5t-13.5 -2.5q-16 0 -37.5 24.5t-35.5 62.5
q44 37 116 63.5t163 26.5q78 0 139.5 -23t96.5 -68t35 -107v-134q0 -20 -11 -36q28 -20 44.5 -49zM551.5 71q10.5 13 10.5 37q0 20 -9.5 36t-29.5 25q-21 -14 -32.5 -28.5t-11.5 -35.5q0 -22 11 -34.5t31 -12.5t30.5 13z" />
    <glyph glyph-name="uni0E0A" unicode="&#xe0a;" horiz-adv-x="615" 
d="M525 367q20 -28 20 -71v-133q0 -172 -229 -172q-56 0 -107 16.5t-84 52t-33 91.5v88q0 22 25 36q51 29 77 47t44 44t18 62q0 81 -83 81q-32 0 -51 -17.5t-19 -41.5q0 -20 9.5 -31.5t25.5 -11.5q15 0 23 9.5t8 24.5t-8 29q6 3 16 3q20 0 34 -11.5t14 -35.5q0 -36 -24 -60
t-62 -24q-46 0 -75 26t-29 83q0 36 20.5 65t55 46t76.5 17q67 0 113 -35t51 -100q48 10 73.5 53.5t36.5 133.5q113 0 113 -79q0 -52 -28 -91t-74 -55q33 -11 53 -39zM400 316q0 55 -33 55q-6 0 -22 -2q-10 -41 -36 -70.5t-72 -61.5v-65q0 -41 20.5 -65t59.5 -24
q48 0 65.5 23.5t17.5 72.5v137z" />
    <glyph glyph-name="uni0E0B" unicode="&#xe0b;" horiz-adv-x="655" 
d="M569.5 368.5q16.5 -28.5 16.5 -72.5v-127q0 -84 -59.5 -131t-183.5 -47q-118 0 -185.5 48.5t-67.5 139.5v30q0 45 22.5 74.5t65.5 64.5q38 31 56.5 54t18.5 56q0 36 -25 36q-18 0 -34 -28q-16 27 -43 27q-12 0 -20.5 -8t-8.5 -22q0 -15 8.5 -22.5t20.5 -7.5q22 0 37 20
q13 -9 13 -29q0 -21 -20.5 -37.5t-56.5 -16.5q-43 0 -71.5 28t-28.5 75q0 49 26.5 78t67.5 29q29 0 46.5 -9.5t29.5 -29.5q12 18 33.5 28.5t51.5 10.5q49 0 78 -28.5t29 -79.5q0 -12 -1 -18q50 21 78 61.5t39 115.5q113 0 113 -79q0 -47 -25.5 -84.5t-64.5 -56.5
q28 -14 44.5 -42.5zM441 316q0 55 -33 55q-9 0 -21 -2t-19 -2q-5 0 -11 9q-15 -24 -53 -67q-30 -35 -44.5 -58t-14.5 -46v-26q0 -48 23 -71t76 -23q56 0 76.5 22.5t20.5 71.5v137z" />
    <glyph glyph-name="uni0E0C" unicode="&#xe0c;" horiz-adv-x="910" 
d="M847 44l1 -24q0 -20 -15 -20h-133q-60 133 -139 165v-35q0 -61 -28 -100t-94 -39q-38 0 -64.5 16t-38.5 47q-14 -29 -45.5 -45t-78.5 -16q-69 0 -109.5 36t-40.5 97v95q0 72 59 120q-33 15 -57 40.5t-24 53.5q0 33 28.5 68.5t85.5 59t138 23.5q124 0 196 -51t72 -152
v-134q81 -23 138 -94v421h145v-438q0 -52 4 -94zM415 244v139q0 51 -30 81t-93 30q-38 0 -65 -9.5t-40.5 -22.5t-13.5 -24q0 -18 14 -29t30 -11q11 0 31 6q15 5 25 5q12 0 27.5 -28t15.5 -48q0 -13 -9 -13q-57 0 -78.5 -21.5t-21.5 -77.5v-114q0 -20 9 -32t28 -12
q17 0 25.5 9.5t8.5 26.5q0 15 -9.5 23t-26.5 8q-7 0 -21 -2q-4 8 -4 17q0 16 14 27.5t36 11.5q45 0 65 -29q18 64 83 89zM419 132q0 24 -1 36q-20 -6 -28 -19.5t-8 -37.5q0 -20 6.5 -34t15.5 -14q15 0 15 69z" />
    <glyph glyph-name="uni0E0D" unicode="&#xe0d;" horiz-adv-x="940" 
d="M510 7q-50 16 -72.5 56.5t-22.5 116.5v203q0 51 -30 81t-93 30q-38 0 -65 -9.5t-40.5 -22.5t-13.5 -24q0 -18 14 -29t30 -11q11 0 31 6q15 5 25 5q12 0 27.5 -28t15.5 -48q0 -13 -9 -13q-57 0 -78.5 -21.5t-21.5 -77.5v-114q0 -20 9 -32t28 -12q17 0 25.5 9.5t8.5 26.5
q0 15 -9.5 23t-26.5 8q-7 0 -21 -2q-4 8 -4 17q0 16 14 27.5t36 11.5q37 0 58 -20.5t21 -60.5q0 -50 -34.5 -80t-99.5 -30q-69 0 -109.5 36t-40.5 97v95q0 39 16.5 69t42.5 51q-33 15 -57 40.5t-24 53.5q0 32 34.5 67.5t95 59.5t132.5 24q123 0 190.5 -51t67.5 -152v-210
q0 -37 7 -56t26 -27.5t56 -8.5t55.5 9.5t24.5 29t6 56.5v400h145v-386q0 -79 -22.5 -122t-71.5 -60t-137 -17q-89 0 -139 16zM493.5 -238.5q-50.5 27.5 -50.5 87.5q0 47 29.5 74.5t70.5 27.5t63.5 -19t22.5 -54q0 -18 -13.5 -31t-28.5 -13q-9 0 -17 3.5t-10 8.5q6 3 10 11
t4 18t-6.5 16t-16.5 6q-11 0 -18.5 -8.5t-7.5 -23.5q0 -21 25 -36t69 -15q51 0 77 21t37 74q5 23 23 23q21 0 49 -8t41 -15q-5 -61 -38.5 -100t-82.5 -57t-102 -18q-79 0 -129.5 27.5z" />
    <glyph glyph-name="uni0E0E" unicode="&#xe0e;" horiz-adv-x="615" 
d="M495.5 535q69.5 -51 69.5 -152v-628h-146q-33 46 -85 77q-28 -37 -73.5 -59.5t-102.5 -22.5q-60 0 -95.5 26t-35.5 72q0 47 43.5 75t115.5 28q43 0 82 -9q5 26 6 58q39 0 59.5 -7t28 -21.5t7.5 -41.5q0 -13 -3 -26q34 -19 54 -44v523q0 111 -118 111q-38 0 -65 -9.5
t-40.5 -22.5t-13.5 -24q0 -19 13.5 -28t30.5 -9q11 0 31 6q15 5 25 5q12 0 27.5 -28t15.5 -48q0 -13 -9 -13q-80 0 -80 -61q0 -23 10 -61q7 -23 10 -39t3 -40q0 -60 -34 -94.5t-101 -34.5q-64 0 -94.5 26t-30.5 69q0 36 21.5 57t51.5 21q36 0 36 -40h-14q-14 0 -23 -8.5
t-9 -22.5t8.5 -23t22.5 -9q16 0 24 10t8 26t-3.5 30.5t-11.5 36.5q-9 28 -14 49t-5 46q0 26 14 48t41 36q-42 11 -69.5 35t-27.5 55q0 33 28.5 68.5t85.5 59t138 23.5q124 0 193.5 -51zM247 -132q-27 6 -55 6q-26 0 -41 -7.5t-15 -20.5q0 -12 11 -19.5t30 -7.5q47 0 70 49z
" />
    <glyph glyph-name="uni0E0F" unicode="&#xe0f;" horiz-adv-x="615" 
d="M495.5 535q69.5 -51 69.5 -152v-633h-148l-46 45l-51 -42l-48 42q-62 -48 -144 -48q-61 0 -96 24t-35 65t37.5 65.5t93.5 24.5q52 0 96 -21q9 42 9 89q54 0 82 -19t28 -50q0 -42 -28 -84l10 -8l47 28l50 -26l-2 548q0 111 -118 111q-38 0 -65 -9.5t-40.5 -22.5t-13.5 -24
q0 -19 13.5 -28t30.5 -9q11 0 31 6q15 5 25 5q12 0 27.5 -28t15.5 -48q0 -13 -9 -13q-80 0 -80 -61q0 -23 10 -61q7 -23 10 -39t3 -40q0 -60 -34 -94.5t-101 -34.5q-64 0 -94.5 26t-30.5 69q0 36 21.5 57t51.5 21q36 0 36 -40h-14q-14 0 -23 -8.5t-9 -22.5t8.5 -23t22.5 -9
q16 0 24 10t8 26t-3.5 30.5t-11.5 36.5q-9 28 -14 49t-5 46q0 26 14 48t41 36q-42 11 -69.5 35t-27.5 55q0 33 28.5 68.5t85.5 59t138 23.5q124 0 193.5 -51zM204 -153q-32 15 -53 15q-16 0 -26.5 -6.5t-10.5 -17.5q0 -13 10 -20t28 -7q31 0 52 36z" />
    <glyph glyph-name="uni0E10" unicode="&#xe10;" horiz-adv-x="589" 
d="M550 551.5q11 -22.5 11 -43.5q0 -39 -26 -61t-73 -22q-34 0 -65.5 8t-70.5 23q-35 12 -55.5 17.5t-40.5 5.5q-47 0 -47 -44q0 -14 3 -22q51 -1 112 -7t110 -18q58 -14 86.5 -50t28.5 -108q0 -36 -8 -76.5t-22 -96.5l-9 -37q-3 -12 -44.5 -20.5t-92.5 -8.5q-54 0 -91 8.5
t-38 20.5l-1 25q-1 13 -3.5 55.5t-7.5 76.5q-5 38 -33 38q-14 0 -22 -7.5t-8 -19.5q0 -13 7.5 -21t20.5 -8q10 0 16 3t7 4q3 -6 3 -13q0 -17 -12.5 -26.5t-36.5 -9.5q-34 0 -54.5 20.5t-20.5 56.5q0 42 31.5 67t76.5 25q53 0 84.5 -24t38.5 -65q8 -47 12 -111q0 -5 5 -7
t19 -2q22 0 23 10q6 32 10.5 73t4.5 64q0 40 -17.5 57t-59.5 23q-49 7 -113 11t-115 4q-12 14 -21.5 43t-9.5 57q0 72 44 119.5t117 47.5q55 0 131 -16q57 -11 84 -11q38 0 63.5 7t42.5 23q15 -15 26 -37.5zM504 -64q30 -26 30 -69q0 -27 -15 -68q-8 -24 -12.5 -41.5
t-4.5 -39.5h-148l-36 35l-41 -37l-38 39q-22 -19 -48.5 -29t-53.5 -10q-50 0 -79.5 23.5t-29.5 64.5t25.5 65.5t65.5 24.5q37 0 71 -18q2 32 2 56q47 0 73.5 -12.5t26.5 -46.5q0 -37 -16 -71l6 -6l37 23l59 -38q5 20 27 46q12 15 18 25.5t6 23.5q0 14 -7 22t-19 8t-20 -7
t-8 -18t7.5 -20t21.5 -11q-1 -8 -8.5 -14.5t-21.5 -6.5q-25 0 -39.5 15t-14.5 41q0 37 28.5 57t75.5 20q50 0 80 -26zM177 -186q-21 16 -35 16q-11 0 -19 -6.5t-8 -17.5q0 -12 7.5 -18.5t20.5 -6.5q23 0 34 33z" />
    <glyph glyph-name="uni0E11" unicode="&#xe11;" horiz-adv-x="680" 
d="M590 536q40 -44 40 -111v-425h-145v385q0 44 -10 62.5t-34 18.5q-18 0 -32 -8.5t-34.5 -31.5t-65.5 -81q-29 -37 -39 -70t-10 -83l-1 -192h-129q-20 0 -20 20q0 4 2 24q3 42 3 62v100q0 35 10 62.5t24 48t42 54.5q27 34 37 50.5t10 36.5q0 16 -10 26t-25 10
q-18 0 -34 -28q-17 27 -43 27q-12 0 -20.5 -8t-8.5 -22q0 -15 8.5 -22.5t20.5 -7.5q22 0 37 20q10 -8 14 -14t4 -15q0 -22 -19 -38t-55 -16q-40 0 -69 27.5t-29 75.5q0 49 26.5 78t67.5 29q29 0 46.5 -9.5t29.5 -29.5q24 39 80 39q28 0 50.5 -14.5t35.5 -40.5q53 55 139 55
q66 0 106 -44z" />
    <glyph glyph-name="uni0E12" unicode="&#xe12;" horiz-adv-x="970" 
d="M907 44l1 -24q0 -20 -15 -20h-133q-60 133 -139 165v-44q0 -130 -122 -130q-52 0 -83.5 30.5t-31.5 86.5q0 49 21 85.5t70 52.5v124q0 85 -56 106l-49 -32l-29 -18l-37 21q-29 16 -49 29q-34 -19 -49.5 -56t-15.5 -92q0 -47 11 -81t34 -66q15 13 47 34l19 13
q26 19 38.5 34.5t12.5 36.5q0 34 -30 34q-14 0 -22.5 -8.5t-8.5 -22.5q0 -12 5.5 -20.5t19.5 -18.5q-7 -10 -15 -13t-22 -3q-22 0 -39 18t-17 47q0 39 27.5 64t74.5 25q49 0 76.5 -26.5t27.5 -64.5q0 -30 -9 -51t-24 -36.5t-46 -40.5q-7 -6 -15.5 -13t-18.5 -16
q-27 -24 -39 -42.5t-15 -41t-3 -69.5h-137q-5 0 -8 2t-3 9q0 21 5 36.5t14 31.5q4 7 7 14.5t3 14.5q0 5 -5 13t-9.5 14t-6.5 8q-33 42 -53.5 84.5t-20.5 104.5q0 100 49 164.5t160 89.5q51 -24 87 -54q42 35 79 54q77 -15 120.5 -42.5t61.5 -69.5t18 -104v-121
q81 -23 138 -94v421h145v-438q0 -52 4 -94zM479 125l-1 43q-21 -7 -29.5 -20.5t-8.5 -36.5q0 -24 7 -36t17 -12q15 0 15 62z" />
    <glyph glyph-name="uni0E13" unicode="&#xe13;" horiz-adv-x="940" 
d="M922.5 202q21.5 -33 21.5 -78q0 -59 -39 -93.5t-99 -34.5q-58 0 -93.5 35t-35.5 90q0 40 17 71q-58 -15 -96.5 -69t-37.5 -123h-128q-20 0 -20 20q0 11 1 20q3 51 3 73l-1 270q0 51 -30 81t-93 30q-38 0 -65 -9.5t-40.5 -22.5t-13.5 -24q0 -18 14 -29t30 -11q11 0 31 6
q15 5 25 5q12 0 27.5 -28t15.5 -48q0 -13 -9 -13q-57 0 -78.5 -21.5t-21.5 -77.5v-114q0 -20 9 -32t28 -12q17 0 25.5 9.5t8.5 26.5q0 15 -9.5 23t-26.5 8q-7 0 -21 -2q-4 8 -4 17q0 16 14 27.5t36 11.5q37 0 58 -20.5t21 -60.5q0 -50 -34.5 -80t-99.5 -30q-69 0 -109.5 36
t-40.5 97v95q0 72 59 120q-33 15 -57 40.5t-24 53.5q0 33 28.5 68.5t85.5 59t138 23.5q124 0 196 -51t72 -152v-199q31 41 75.5 65t97.5 28q2 12 2 21v278h145v-263q0 -35 -17 -60q38 -18 59.5 -51zM850 81q14 15 14 43q0 51 -64 66q-20 -17 -30 -31.5t-10 -33.5
q0 -28 14.5 -43.5t37.5 -15.5q24 0 38 15z" />
    <glyph glyph-name="uni0E14" unicode="&#xe14;" horiz-adv-x="652" 
d="M533 519q69 -67 69 -189v-330h-145v325q0 87 -30 128.5t-98 41.5q-139 0 -139 -142q0 -47 11.5 -90t30.5 -77q14 12 36.5 26t29.5 18q31 18 44.5 34.5t13.5 39.5q0 37 -35 37q-16 0 -25.5 -9t-9.5 -25q0 -26 27 -42q-8 -10 -14.5 -14t-20.5 -4q-22 0 -39 18t-17 47
q0 39 27.5 64t74.5 25q48 0 75 -27t27 -66q0 -33 -10 -55.5t-31 -41.5t-64 -48q-37 -26 -53.5 -45t-22.5 -44.5t-6 -73.5h-137q-5 0 -8 2t-3 9q0 35 22 75q12 22 12 32q0 13 -22 49q-26 44 -42 86t-16 94q0 68 34.5 122.5t99 85.5t150.5 31q135 0 204 -67z" />
    <glyph glyph-name="uni0E15" unicode="&#xe15;" horiz-adv-x="660" 
d="M564.5 513q45.5 -51 45.5 -143v-370h-145v370q0 37 -15.5 65.5t-45.5 40.5l-26 -18q-8 -6 -19.5 -14t-27.5 -18q-4 2 -56 36l-20 14q-37 -18 -51 -54.5t-14 -93.5q0 -46 11.5 -80t33.5 -68q12 8 22.5 14.5t18.5 12.5q19 11 22 13q31 18 44.5 34.5t13.5 39.5q0 37 -35 37
q-16 0 -25.5 -9t-9.5 -25q0 -26 27 -42q-8 -10 -14.5 -14t-20.5 -4q-22 0 -39 18t-17 47q0 39 27.5 64t74.5 25q48 0 75 -27t27 -66q0 -46 -22 -74.5t-83 -70.5q-39 -27 -55 -43t-21.5 -39t-5.5 -71h-137q-5 0 -8 2t-3 9q0 35 22 75q12 22 12 32q0 9 -18 32q-28 41 -45 79.5
t-17 92.5q0 105 47 172t162 92q20 -9 34 -19.5t26 -20.5t17 -14l27 22.5t47 31.5q114 -22 159.5 -73z" />
    <glyph glyph-name="uni0E16" unicode="&#xe16;" horiz-adv-x="610" 
d="M488 535q72 -51 72 -152v-383h-145v383q0 51 -30 81t-93 30q-38 0 -65 -9.5t-40.5 -22.5t-13.5 -24q0 -18 14 -29t30 -11q11 0 31 6q15 5 25 5q12 0 27.5 -28t15.5 -48q0 -13 -9 -13q-57 0 -78.5 -21.5t-21.5 -77.5v-114q0 -20 9 -32t28 -12q17 0 25.5 9.5t8.5 26.5
q0 15 -9.5 23t-26.5 8q-7 0 -21 -2q-4 8 -4 17q0 16 14 27.5t36 11.5q37 0 58 -20.5t21 -60.5q0 -50 -34.5 -80t-99.5 -30q-69 0 -109.5 36t-40.5 97v95q0 72 59 120q-33 15 -57 40.5t-24 53.5q0 33 28.5 68.5t85.5 59t138 23.5q124 0 196 -51z" />
    <glyph glyph-name="uni0E17" unicode="&#xe17;" horiz-adv-x="715" 
d="M633.5 553.5q31.5 -32.5 31.5 -94.5v-459h-145v395q0 31 -5 43t-19 12q-19 0 -40 -24.5t-47 -78.5q-93 -190 -95 -305l-1 -42h-134q-8 0 -11.5 4t-3.5 14q0 7 2.5 33.5t2.5 60.5v366q0 18 -8.5 29t-26.5 11t-28 -9.5t-10 -26.5q0 -19 11.5 -29t29.5 -10h20
q0 -23 -11.5 -36t-35.5 -13q-35 0 -57.5 23t-22.5 65q0 46 37 75t95 29q72 0 113 -36.5t40 -103.5l-1 -128q30 74 65 137q40 69 75.5 100t94.5 31q53 0 84.5 -32.5z" />
    <glyph glyph-name="uni0E18" unicode="&#xe18;" horiz-adv-x="590" 
d="M125 26.5q-55 35.5 -55 123.5v114q36 9 74 9q31 0 51 -11.5t20 -30.5v-77q0 -38 15.5 -53.5t62.5 -15.5q50 0 70.5 14t20.5 47v71q0 41 -18.5 58.5t-60.5 22.5q-57 7 -127.5 12t-99.5 4q-15 17 -25.5 51.5t-10.5 68.5q0 45 23.5 78.5t63 51.5t84.5 18q48 0 114 -10
q47 -7 77 -7q40 0 68 7t48 23q8 -15 14 -40.5t6 -49.5q0 -35 -20 -54.5t-59 -19.5q-32 0 -62 7.5t-67 20.5q-36 12 -56 17t-41 5q-27 0 -39.5 -12t-12.5 -31q0 -21 4 -30q49 -1 111 -7.5t112 -18.5q58 -15 88.5 -51t30.5 -108v-73q0 -89 -60 -124t-176 -35q-113 0 -168 35.5
z" />
    <glyph glyph-name="uni0E19" unicode="&#xe19;" horiz-adv-x="687" 
d="M669.5 202q21.5 -33 21.5 -78q0 -59 -39 -93.5t-99 -34.5q-58 0 -93.5 35t-35.5 90q0 40 17 71q-40 -10 -73.5 -38t-53.5 -68.5t-20 -85.5h-128q-20 0 -20 20q0 11 1 20q3 51 3 73l-1 365q0 18 -8.5 29t-26.5 11t-28 -9.5t-10 -26.5q0 -19 11.5 -29t29.5 -10h20
q0 -23 -11.5 -36t-35.5 -13q-35 0 -57.5 23t-22.5 65q0 46 37 75t95 29q72 0 113 -36.5t40 -103.5l-1 -264q33 41 82 66t104 29q2 12 2 21v278h145v-263q0 -35 -17 -60q38 -18 59.5 -51zM597 81q14 15 14 43q0 51 -64 66q-20 -17 -30 -31.5t-10 -33.5q0 -28 14.5 -43.5
t37.5 -15.5q24 0 38 15z" />
    <glyph glyph-name="uni0E1A" unicode="&#xe1a;" horiz-adv-x="705" 
d="M260.5 7q-59.5 16 -81.5 43q-17 21 -23.5 51t-6.5 79v298q0 18 -8.5 29t-26.5 11t-28 -9.5t-10 -26.5q0 -19 11.5 -29t29.5 -10h20q0 -23 -11.5 -36t-35.5 -13q-35 0 -57.5 23t-22.5 65q0 46 37 75t95 29q72 0 112.5 -36.5t40.5 -103.5l-1 -273q0 -31 3 -46.5t13 -24.5
q24 -21 89 -21q64 0 85 21q11 11 13.5 27.5t2.5 46.5v400h145v-386q0 -58 -6.5 -88t-25.5 -52q-23 -26 -84 -42.5t-130 -16.5q-79 0 -138.5 16z" />
    <glyph glyph-name="uni0E1B" unicode="&#xe1b;" horiz-adv-x="705" 
d="M260.5 7q-59.5 16 -81.5 43q-17 21 -23.5 51t-6.5 79v298q0 18 -8.5 29t-26.5 11t-28 -9.5t-10 -26.5q0 -19 11.5 -29t29.5 -10h20q0 -23 -11.5 -36t-35.5 -13q-35 0 -57.5 23t-22.5 65q0 46 37 75t95 29q72 0 112.5 -36.5t40.5 -103.5l-1 -273q0 -31 3 -46.5t13 -24.5
q24 -21 89 -21q64 0 85 21q11 11 13.5 27.5t2.5 46.5v607h145v-593q0 -58 -6.5 -88t-25.5 -52q-23 -26 -84 -42.5t-130 -16.5q-79 0 -138.5 16z" />
    <glyph glyph-name="uni0E1C" unicode="&#xe1c;" horiz-adv-x="664" 
d="M603 49l1 -27q0 -13 -3.5 -17.5t-11.5 -4.5h-131v14q0 51 -32.5 108t-93.5 107q-63 -50 -99 -107t-36 -108v-14h-134q-15 0 -15 11q0 12 3 36q5 63 5 88v298q0 68 44 110.5t114 42.5q66 0 101 -30.5t35 -85.5q0 -40 -25 -61t-61 -21q-26 0 -40 10t-14 28q0 8 3 17
q12 -4 23 -4q36 0 36 34q0 33 -33 33q-18 0 -28 -12t-10 -31v-261q44 78 126 145h11q40 -33 67.5 -66.5t49.5 -77.5v373h145v-444q0 -38 3 -83z" />
    <glyph glyph-name="uni0E1D" unicode="&#xe1d;" horiz-adv-x="664" 
d="M603 49l1 -27q0 -13 -3.5 -17.5t-11.5 -4.5h-131v14q0 51 -32.5 108t-93.5 107q-63 -50 -99 -107t-36 -108v-14h-134q-15 0 -15 11q0 12 3 36q5 63 5 88v298q0 68 44 110.5t114 42.5q66 0 101 -30.5t35 -85.5q0 -40 -25 -61t-61 -21q-26 0 -40 10t-14 28q0 8 3 17
q12 -4 23 -4q36 0 36 34q0 33 -33 33q-18 0 -28 -12t-10 -31v-261q44 78 126 145h11q40 -33 67.5 -66.5t49.5 -77.5v580h145v-651q0 -38 3 -83z" />
    <glyph glyph-name="uni0E1E" unicode="&#xe1e;" horiz-adv-x="778" 
d="M716 61q2 -33 2 -41q0 -20 -15 -20h-132v14q0 94 -136 321q-54 -96 -89.5 -182.5t-35.5 -138.5v-14h-135q-15 0 -15 20q0 4 2 22q0 4 3.5 37.5t3.5 110.5v288q0 18 -8.5 29t-26.5 11t-28 -9.5t-10 -26.5q0 -19 11.5 -29t29.5 -10h20q0 -23 -11.5 -36t-35.5 -13
q-35 0 -57.5 23t-22.5 65q0 46 37 75t95 29q72 0 113 -36.5t40 -103.5l-1 -166q41 116 112 240h14q38 -56 72 -120.5t57 -123.5v300h145v-386q0 -96 2 -129z" />
    <glyph glyph-name="uni0E1F" unicode="&#xe1f;" horiz-adv-x="778" 
d="M716 61q2 -33 2 -41q0 -20 -15 -20h-132v14q0 94 -136 321q-54 -96 -89.5 -182.5t-35.5 -138.5v-14h-135q-15 0 -15 20q0 4 2 22q0 4 3.5 37.5t3.5 110.5v288q0 18 -8.5 29t-26.5 11t-28 -9.5t-10 -26.5q0 -19 11.5 -29t29.5 -10h20q0 -23 -11.5 -36t-35.5 -13
q-35 0 -57.5 23t-22.5 65q0 46 37 75t95 29q72 0 113 -36.5t40 -103.5l-1 -166q41 116 112 240h14q38 -56 72 -120.5t57 -123.5v507h145v-593q0 -96 2 -129z" />
    <glyph glyph-name="uni0E20" unicode="&#xe20;" horiz-adv-x="615" 
d="M495.5 535q69.5 -51 69.5 -152v-383h-145v383q0 111 -118 111q-38 0 -65 -9.5t-40.5 -22.5t-13.5 -24q0 -19 13.5 -28t30.5 -9q11 0 31 6q15 5 25 5q12 0 27.5 -28t15.5 -48q0 -13 -9 -13q-80 0 -80 -61q0 -23 10 -61q7 -23 10 -39t3 -40q0 -60 -34 -94.5t-101 -34.5
q-64 0 -94.5 26t-30.5 69q0 36 21.5 57t51.5 21q36 0 36 -40h-14q-14 0 -23 -8.5t-9 -22.5t8.5 -23t22.5 -9q16 0 24 10t8 26t-3.5 30.5t-11.5 36.5q-9 28 -14 49t-5 46q0 26 14 48t41 36q-42 11 -69.5 35t-27.5 55q0 33 28.5 68.5t85.5 59t138 23.5q124 0 193.5 -51z" />
    <glyph glyph-name="uni0E21" unicode="&#xe21;" horiz-adv-x="707" 
d="M644 44l1 -24q0 -20 -15 -20h-133q-14 54 -42.5 93t-60.5 61t-59 26q0 -16 2 -34l1 -26q0 -129 -143 -129q-63 0 -99 35.5t-36 97.5q0 63 37 101.5t94 42.5q-2 20 -2 52v158q0 18 -8.5 29t-26.5 11t-28 -9.5t-10 -26.5q0 -19 11.5 -29t29.5 -10h20q0 -23 -11.5 -36
t-35.5 -13q-35 0 -57.5 23t-22.5 65q0 46 37 75t95 29q72 0 113 -36.5t40 -103.5l-1 -176q40 -7 85 -34.5t76 -71.5v412h145v-438q0 -52 4 -94zM190 76.5q6 13.5 6 50.5q0 26 -4 60q-56 -8 -56 -71q0 -53 32 -53q16 0 22 13.5z" />
    <glyph glyph-name="uni0E22" unicode="&#xe22;" horiz-adv-x="660" 
d="M600 576v-372q0 -56 -14.5 -95t-48.5 -65q-68 -53 -207 -53q-144 0 -213 53q-48 38 -48 118v9q0 41 21.5 69.5t54.5 41.5q-38 14 -61.5 49.5t-23.5 93.5q0 45 21.5 82t59 58t84.5 21q66 0 96.5 -26t30.5 -69q0 -40 -22.5 -64.5t-60.5 -24.5q-27 0 -41 11.5t-14 31.5
q0 10 3 20q15 -11 33 -11q14 0 23.5 9t9.5 24q0 14 -8.5 22.5t-25.5 8.5q-25 0 -42 -22.5t-17 -67.5q0 -56 42 -79t137 -23q4 0 4 -8q0 -12 -8.5 -34t-20 -38.5t-22.5 -16.5q-12 0 -30 7q-24 8 -38 8q-18 0 -29 -17.5t-11 -42.5v-13q0 -42 17 -60q13 -14 35.5 -20t63.5 -6
t64 6t38 20q23 20 23 83v382h145z" />
    <glyph glyph-name="uni0E23" unicode="&#xe23;" horiz-adv-x="538" 
d="M197 23q-35 30 -35 80q0 39 24.5 62.5t55.5 23.5q24 0 34.5 -12.5t10.5 -36.5h-19q-17 0 -26.5 -8.5t-9.5 -24.5q0 -15 9.5 -24.5t25.5 -9.5q24 0 34.5 17t11.5 47l1 45q1 54 -22 78.5t-67 31.5q-94 14 -157 12q-15 18 -25.5 53t-10.5 72q0 48 23.5 82.5t62.5 52.5t84 18
q34 0 102 -9q56 -8 80 -8q28 0 49.5 7t41.5 23q10 -12 17.5 -34.5t7.5 -49.5q0 -36 -20 -58t-59 -22q-28 0 -51 7t-58 21q-27 11 -43.5 16.5t-33.5 5.5q-28 0 -45 -14.5t-17 -34.5t4 -34q69 -1 153 -22q133 -33 129 -188l-1 -42q-2 -70 -43.5 -111.5t-116.5 -41.5
q-66 0 -101 30z" />
    <glyph glyph-name="uni0E24" unicode="&#xe24;" horiz-adv-x="610" 
d="M415 383q0 51 -30 81t-93 30q-38 0 -65 -9.5t-40.5 -22.5t-13.5 -24q0 -18 14 -29t30 -11q11 0 31 6q15 5 25 5q12 0 27.5 -28t15.5 -48q0 -13 -9 -13q-57 0 -78.5 -21.5t-21.5 -77.5v-114q0 -20 9 -32t28 -12q17 0 25.5 9.5t8.5 26.5q0 15 -9.5 23t-26.5 8q-7 0 -21 -2
q-4 8 -4 17q0 16 14 27.5t36 11.5q37 0 58 -20.5t21 -60.5q0 -50 -34.5 -80t-99.5 -30q-69 0 -109.5 36t-40.5 97v95q0 38 16.5 69t42.5 51q-33 15 -57 40.5t-24 53.5q0 33 28.5 68.5t85.5 59t138 23.5q124 0 196 -51t72 -152v-603h-145v603z" />
    <glyph glyph-name="uni0E25" unicode="&#xe25;" horiz-adv-x="648" 
d="M579 265q-6 -64 -6 -98q0 -21 6 -79q1 -14 3 -36.5t2 -32.5q0 -19 -12 -19h-139q0 148 -39.5 219t-100.5 71q-88 0 -88 -119q0 -57 14 -82.5t40 -25.5q17 0 26 9t9 23q0 33 -31 33q-9 0 -27 -5q-3 8 -3 16q0 17 12 28t34 11q36 0 60.5 -22t24.5 -62q0 -103 -133 -103
q-78 0 -122.5 51t-44.5 144q0 62 29.5 107t75.5 68t94 23q120 0 173 -85q2 26 2 79q-1 51 -32 77.5t-81 26.5q-45 0 -85 -12.5t-71 -32.5q-4 -3 -11.5 -8t-14 -7.5t-13.5 -2.5q-16 0 -37.5 24.5t-35.5 62.5q42 35 109 57.5t160 22.5q118 0 188.5 -52.5t70.5 -148.5
q0 -46 -6 -120z" />
    <glyph glyph-name="uni0E26" unicode="&#xe26;" horiz-adv-x="615" 
d="M420 383q0 111 -118 111q-38 0 -65 -9.5t-40.5 -22.5t-13.5 -24q0 -19 13.5 -28t30.5 -9q11 0 31 6q15 5 25 5q12 0 27.5 -28t15.5 -48q0 -13 -9 -13q-80 0 -80 -61q0 -23 10 -61q7 -23 10 -39t3 -40q0 -60 -34 -94.5t-101 -34.5q-64 0 -94.5 26t-30.5 69q0 36 21.5 57
t51.5 21q36 0 36 -40h-14q-14 0 -23 -8.5t-9 -22.5t8.5 -23t22.5 -9q16 0 24 10t8 26t-3.5 30.5t-11.5 36.5q-9 28 -14 49t-5 46q0 26 14 48t41 36q-42 11 -69.5 35t-27.5 55q0 33 28.5 68.5t85.5 59t138 23.5q124 0 193.5 -51t69.5 -152v-603h-145v603z" />
    <glyph glyph-name="uni0E27" unicode="&#xe27;" horiz-adv-x="528" 
d="M197 23q-35 30 -35 80q0 39 24.5 62.5t55.5 23.5q22 0 36 -10.5t14 -27.5q0 -9 -2 -14q-11 3 -22 3q-17 0 -26.5 -8.5t-9.5 -24.5t10 -25t27 -9q27 0 40.5 19.5t13.5 54.5v227q0 54 -18.5 81t-65.5 27q-31 0 -57 -13.5t-55 -35.5q-10 -8 -17.5 -11t-17.5 -3
q-22 0 -39.5 22t-35.5 65q41 34 102.5 57t134.5 23q61 0 109.5 -24.5t76.5 -71t28 -110.5v-214q0 -83 -46 -128t-124 -45q-66 0 -101 30z" />
    <glyph glyph-name="uni0E28" unicode="&#xe28;" horiz-adv-x="634" 
d="M613.5 520.5q-20.5 -21.5 -62.5 -32.5q33 -55 33 -138v-350h-145v345q0 49 -6.5 79.5t-32 50t-77.5 19.5q-69 0 -102.5 -37.5t-33.5 -101.5q0 -30 5 -58q20 31 51.5 49t71.5 18q51 0 76.5 -25.5t25.5 -70.5q0 -44 -25.5 -68.5t-69.5 -24.5q-26 0 -44.5 14.5t-18.5 33.5
q0 12 6 22t17 12q5 -15 14 -21.5t23 -6.5t22 9.5t8 23.5q0 13 -10.5 21.5t-26.5 8.5q-56 0 -80.5 -69.5t-27.5 -222.5h-131q-15 0 -15 20q0 23 10 50.5t27 67.5q13 26 13 32q0 8 -15 30q-22 32 -36.5 67.5t-14.5 87.5q0 69 35 121.5t98.5 81t147.5 28.5q85 0 140 -24
q33 13 57 37.5t36 51.5q35 -4 56.5 -28.5t21.5 -51.5q0 -29 -20.5 -50.5z" />
    <glyph glyph-name="uni0E29" unicode="&#xe29;" horiz-adv-x="705" 
d="M645 576v-386q0 -58 -6.5 -88t-25.5 -52q-23 -26 -84 -42.5t-130 -16.5q-79 0 -138.5 16t-81.5 43q-17 21 -23.5 51t-6.5 79v298q0 18 -8.5 29t-26.5 11t-28 -9.5t-10 -26.5q0 -19 11.5 -29t29.5 -10h20q0 -23 -11.5 -36t-35.5 -13q-35 0 -57.5 23t-22.5 65q0 46 37 75
t95 29q72 0 112.5 -36.5t40.5 -103.5l-1 -145q6 36 35 56.5t62 20.5q34 0 57 -19.5t23 -55.5q0 -22 -14 -35t-35 -13q-16 0 -27 16q21 11 21 29q0 11 -6 18t-17 7q-12 0 -20 -8.5t-8 -24.5q0 -24 15.5 -39.5t45.5 -15.5q37 0 55.5 22t18.5 78v239h145zM497.5 129.5
q2.5 16.5 2.5 46.5v24q-25 -33 -90 -33q-42 0 -75.5 27.5t-40.5 70.5v-92q0 -31 3 -46.5t13 -24.5q24 -21 89 -21q64 0 85 21q11 11 13.5 27.5z" />
    <glyph glyph-name="uni0E2A" unicode="&#xe2a;" horiz-adv-x="648" 
d="M629.5 505q-19.5 -20 -65.5 -29q21 -39 21 -91q0 -46 -6 -120q-6 -64 -6 -98q0 -21 6 -79q1 -14 3 -36.5t2 -32.5q0 -19 -12 -19h-139q0 148 -39.5 219t-100.5 71q-88 0 -88 -119q0 -57 14 -82.5t40 -25.5q17 0 26 9t9 23q0 33 -31 33q-9 0 -27 -5q-3 8 -3 16q0 17 12 28
t34 11q36 0 60.5 -22t24.5 -62q0 -103 -133 -103q-78 0 -122.5 51t-44.5 144q0 62 29.5 107t75.5 68t94 23q120 0 173 -85q2 26 2 79q-1 51 -32 77.5t-81 26.5q-45 0 -85 -12.5t-71 -32.5q-4 -3 -11.5 -8t-14 -7.5t-13.5 -2.5q-16 0 -37.5 24.5t-35.5 62.5q42 35 109 57.5
t160 22.5q92 0 156 -32q32 13 55 37t34 50q35 -4 56.5 -28.5t21.5 -51.5q0 -36 -19.5 -56z" />
    <glyph glyph-name="uni0E2B" unicode="&#xe2b;" horiz-adv-x="698" 
d="M612 350q27 -32 27 -62v-288h-145v260q0 22 -1 31q-71 -34 -113.5 -65.5t-64 -71.5t-21.5 -95v-59h-134q-15 0 -15 15l1 27q3 63 3 74v362q0 18 -8.5 29t-26.5 11t-28 -9.5t-10 -26.5q0 -19 11.5 -29t29.5 -10h20q0 -23 -11.5 -36t-35.5 -13q-35 0 -57.5 23t-22.5 65
q0 46 37 75t95 29q72 0 113 -36.5t40 -103.5l-1 -190q18 20 44.5 36.5t82.5 45.5l37 19q-23 29 -35.5 53.5t-12.5 59.5q0 50 38.5 83t96.5 33q60 0 97.5 -30t37.5 -83q0 -74 -68 -123zM511 505q-13 -12 -13 -32q0 -19 11 -33t37 -33q23 16 34.5 31.5t11.5 35.5q0 19 -13 31
t-34 12t-34 -12z" />
    <glyph glyph-name="uni0E2C" unicode="&#xe2c;" horiz-adv-x="798" 
d="M748.5 593q19.5 -15 19.5 -33q0 -23 -11 -42q-14 -26 -37 -44q4 -12 4 -30v-254v-75q0 -78 4 -95q1 -4 1 -9q0 -7 -3 -9t-8 -2h-137v14q0 48 -24 90t-77 108q-37 47 -34 43l-24 -30q-57 -70 -84.5 -115.5t-27.5 -95.5v-14h-140q-5 0 -8 2t-3 9q0 5 1 9q5 27 7 54.5
t2 115.5v288q0 18 -8.5 29t-26.5 11t-28 -9.5t-10 -26.5q0 -19 11.5 -29t29.5 -10h20q0 -23 -11.5 -36t-35.5 -13q-35 0 -57.5 23t-22.5 65q0 46 37 75t95 29q72 0 113 -36.5t40 -103.5l-1 -233q48 85 128 177h8q92 -117 129 -186v220q-34 -2 -55 -2q-56 0 -94 25t-38 65
t34 65.5t93 25.5q38 0 75 -12t66 -33q23 26 38 56q31 -6 50.5 -21zM576 493q-6 20 -25 32t-42 12q-21 0 -34.5 -6.5t-13.5 -17.5q0 -14 14.5 -22.5t47.5 -8.5q26 0 53 11z" />
    <glyph glyph-name="uni0E2D" unicode="&#xe2d;" horiz-adv-x="625" 
d="M114.5 42q-57.5 51 -57.5 153q0 76 45.5 116.5t118.5 40.5q59 0 90 -27t31 -76q0 -40 -22.5 -62t-56.5 -22q-28 0 -41.5 15t-13.5 40q13 -5 27 -5q16 0 26.5 9.5t10.5 26.5q0 29 -33 29q-24 0 -35.5 -19.5t-11.5 -50.5q0 -49 11 -75.5t35.5 -37.5t67.5 -11q44 0 66 17
t30 54.5t8 109.5v40q0 72 -12.5 110t-38.5 51.5t-72 13.5q-28 0 -55 -11t-47 -22t-27 -15q-3 -1 -16 -8t-27 -7q-16 0 -35 25.5t-33 65.5q43 32 108.5 54t141.5 22q87 0 145 -23.5t90.5 -84.5t32.5 -171v-40q0 -97 -23.5 -156.5t-79.5 -89.5t-156 -30q-134 0 -191.5 51z" />
    <glyph glyph-name="uni0E2E" unicode="&#xe2e;" horiz-adv-x="625" 
d="M544 455q31 -60 31 -148v-40q0 -96 -24.5 -156t-82 -90t-157.5 -30q-132 0 -193 52.5t-61 141.5q0 46 23 79t60.5 50.5t80.5 17.5q59 0 89 -27t30 -76q0 -41 -20 -62.5t-55 -21.5q-30 0 -45.5 12t-15.5 28q0 5 4 15q13 -5 27 -5q15 0 25 9.5t10 26.5q0 29 -31 29
q-24 0 -35.5 -19.5t-11.5 -50.5q0 -58 27.5 -81t91.5 -23q44 0 67.5 17t32.5 55.5t9 108.5v40q0 55 -5 82q-71 -20 -153 -20q-204 0 -204 107q0 49 59 79.5t160 30.5q104 0 173 -37q25 38 37 80q106 -4 106 -82q0 -49 -49 -92zM212.5 456q19.5 -5 49.5 -5q57 0 105 23
q-33 18 -90 18q-39 0 -61.5 -5.5t-22.5 -15.5t19.5 -15z" />
    <glyph glyph-name="uni0E2F" unicode="&#xe2f;" horiz-adv-x="504" 
d="M444 561q0 -6 -1 -22t-1 -34v-505h-121l1 383q-48 -50 -134 -50q-68 0 -110.5 35.5t-42.5 100.5q0 50 32.5 81.5t83.5 31.5q46 0 71 -22.5t25 -57.5q0 -31 -17 -46.5t-40 -15.5q-16 0 -25 11q23 14 23 39q0 14 -8.5 22.5t-23.5 8.5t-24.5 -11.5t-9.5 -31.5
q0 -29 20.5 -46t60.5 -17q51 0 83 38t36 106l1 17h107q14 0 14 -15z" />
    <glyph glyph-name="uni0E30" unicode="&#xe30;" horiz-adv-x="488" 
d="M92 355q-52 32 -52 93q0 47 29.5 74.5t70.5 27.5t63.5 -19t22.5 -54q0 -18 -13.5 -31t-28.5 -13q-9 0 -17 3.5t-10 8.5q6 3 10 11t4 18t-6.5 16t-16.5 6q-11 0 -18.5 -8.5t-7.5 -23.5q0 -28 24.5 -44.5t69.5 -16.5q91 0 114 105q5 23 23 23q21 0 49 -8t41 -15
q-5 -61 -38.5 -103t-83 -62t-101.5 -20q-76 0 -128 32zM92 63q-52 32 -52 93q0 47 29.5 74.5t70.5 27.5t63.5 -19t22.5 -54q0 -18 -13.5 -31t-28.5 -13q-9 0 -17 3.5t-10 8.5q6 3 10 11t4 18t-6.5 16t-16.5 6q-11 0 -18.5 -8.5t-7.5 -23.5q0 -28 24.5 -44.5t69.5 -16.5
q91 0 114 105q5 23 23 23q21 0 49 -8t41 -15q-5 -61 -38.5 -103t-83 -62t-101.5 -20q-76 0 -128 32z" />
    <glyph glyph-name="uni0E31" unicode="&#xe31;" 
d="M-346 662q-57 32 -57 91q0 46 27 75t76 29q44 0 71.5 -24t27.5 -61q0 -26 -14.5 -41t-38.5 -15q-11 0 -19.5 3t-11.5 8q11 4 18 13t7 22q0 14 -9.5 22.5t-26.5 8.5q-18 0 -27 -10.5t-9 -24.5q0 -31 37 -45.5t103 -14.5q71 0 114.5 42t49.5 103q41 0 69.5 -16t28.5 -52
q0 -39 -33 -72.5t-92 -53t-133 -19.5q-101 0 -158 32z" />
    <glyph glyph-name="uni0E32" unicode="&#xe32;" horiz-adv-x="476" 
d="M292.5 12q-11.5 12 -11.5 33v367q0 71 -65 71q-26 0 -50 -9.5t-51 -27.5q-2 -1 -9 -6t-15 -7.5t-16 -2.5q-15 0 -33 26t-29 61q34 27 89 48t116 21q102 0 155 -42t53 -125v-419h-102q-20 0 -31.5 12z" />
    <glyph glyph-name="uni0E33" unicode="&#xe33;" horiz-adv-x="476" 
d="M292.5 12q-11.5 12 -11.5 33v367q0 71 -65 71q-26 0 -50 -9.5t-51 -27.5q-2 -1 -9 -6t-15 -7.5t-16 -2.5q-15 0 -33 26t-29 61q34 27 89 48t116 21q102 0 155 -42t53 -125v-419h-102q-20 0 -31.5 12zM-236 677.5q-36 34.5 -36 88.5q0 53 36 87.5t92 34.5t92 -34.5
t36 -87.5q0 -54 -36 -88.5t-92 -34.5t-92 34.5zM-107.5 730q14.5 14 14.5 36t-14 35.5t-37 13.5t-37 -13.5t-14 -35.5t14.5 -36t36.5 -14t36.5 14z" />
    <glyph glyph-name="uni0E34" unicode="&#xe34;" 
d="M-300.5 662.5q-120.5 4.5 -257.5 4.5q-6 0 -8 2t-2 7q0 52 29 99t83.5 76t126.5 29q75 0 136.5 -26.5t97.5 -76.5t36 -119v-13q-121 13 -241.5 17.5zM-237.5 775.5q-39.5 18.5 -91.5 18.5q-45 0 -72.5 -14t-36.5 -40q141 0 249 -15q-9 32 -48.5 50.5z" />
    <glyph glyph-name="uni0E35" unicode="&#xe35;" 
d="M-59 905v-260q-121 13 -241.5 17.5t-257.5 4.5q-6 0 -8 2t-2 7q0 52 29 99t83.5 76t126.5 29q75 0 140 -35v60h130zM-302 737q60 -3 113 -12q-9 39 -48 59t-92 20q-91 0 -109 -64q76 0 136 -3z" />
    <glyph glyph-name="uni0E36" unicode="&#xe36;" 
d="M-35 762q-13 -20 -37 -29q13 -32 13 -75v-13q-121 13 -241.5 17.5t-257.5 4.5q-6 0 -8 2t-2 7q0 52 29 99t83.5 76t126.5 29q65 0 119 -23q12 21 35 33t54 12q99 0 99 -92q0 -28 -13 -48zM-143 790q8 -8 22 -8t21.5 8t7.5 21t-7.5 21.5t-21.5 8.5t-22 -8.5t-8 -21.5
t8 -21zM-304.5 737q52.5 -3 105.5 -12q-9 32 -47 50.5t-83 18.5q-38 0 -64 -14.5t-35 -39.5q71 0 123.5 -3z" />
    <glyph glyph-name="uni0E37" unicode="&#xe37;" 
d="M-59 905v-260q-121 13 -241.5 17.5t-257.5 4.5q-6 0 -8 2t-2 7q0 52 29 99t83.5 76t126.5 29q11 0 33 -2v27h92v-51q28 -12 53 -29v80h92zM-304.5 737q52.5 -3 105.5 -12q-9 32 -47 50.5t-83 18.5q-38 0 -64 -14.5t-35 -39.5q71 0 123.5 -3z" />
    <glyph glyph-name="uni0E38" unicode="&#xe38;" 
d="M-185 -285v105q0 13 -6.5 21.5t-18.5 8.5t-20 -7t-8 -19q0 -25 25 -25q12 0 19 4q0 -24 -13 -36.5t-36 -12.5q-31 0 -50.5 19.5t-19.5 60.5q0 39 33 67.5t89 28.5q59 0 94.5 -33t35.5 -85v-88v-14q0 -25 -12.5 -39t-34.5 -14h-77v58z" />
    <glyph glyph-name="uni0E39" unicode="&#xe39;" 
d="M-314 -309.5q-35 23.5 -35 60.5q0 22 4 52q3 19 3 35q0 25 -20 25q-24 0 -24 -23q0 -11 8 -17t22 -6q0 -11 -8 -19.5t-25 -8.5q-24 0 -40 16t-16 44q0 32 28.5 54t76.5 22q51 0 77.5 -21.5t26.5 -53.5l-1 -35l-2 -41q0 -26 30 -26q31 0 31 28v144h118v-159q0 -44 -39 -69
t-112 -25q-68 0 -103 23.5z" />
    <glyph glyph-name="uni0E3A" unicode="&#xe3a;" 
d="M-187 -197.5q-23 21.5 -23 53.5t23 53t56 21t55.5 -21t22.5 -53t-22.5 -53.5t-55.5 -21.5t-56 21.5z" />
    <glyph glyph-name="uni0E3F" unicode="&#xe3f;" horiz-adv-x="615" 
d="M526.5 54.5q-65.5 -52.5 -185.5 -54.5v-120h-62v120h-203v700h203v109h62v-109q101 -4 160 -56t59 -138q0 -51 -23 -89t-64 -55q52 -15 85.5 -58.5t33.5 -99.5q0 -97 -65.5 -149.5zM279 594h-49v-184h49v184zM388.5 560q-15.5 20 -47.5 28v-171q63 16 63 89
q0 34 -15.5 54zM279 106v198h-49v-198h49zM415.5 132.5q20.5 21.5 20.5 71.5q0 48 -21.5 71t-73.5 27v-195q54 4 74.5 25.5z" />
    <glyph glyph-name="uni0E40" unicode="&#xe40;" horiz-adv-x="364" 
d="M103.5 26q-39.5 33 -39.5 100v426q0 24 19 24h126v-459q0 -20 9.5 -32t27.5 -12q16 0 25 9.5t9 26.5q0 14 -9 22.5t-25 8.5q-15 0 -23 -3v7q0 20 12.5 34t35.5 14q36 0 56.5 -23.5t20.5 -65.5q0 -50 -34.5 -80t-99.5 -30q-71 0 -110.5 33z" />
    <glyph glyph-name="uni0E41" unicode="&#xe41;" horiz-adv-x="674" 
d="M103.5 26q-39.5 33 -39.5 100v426q0 24 19 24h126v-459q0 -20 9.5 -32t27.5 -12q16 0 25 9.5t9 26.5q0 14 -9 22.5t-25 8.5q-15 0 -23 -3v7q0 20 12.5 34t35.5 14q36 0 56.5 -23.5t20.5 -65.5q0 -50 -34.5 -80t-99.5 -30q-71 0 -110.5 33zM413.5 26q-39.5 33 -39.5 100
v426q0 24 19 24h126v-459q0 -20 9.5 -32t27.5 -12q16 0 25 9.5t9 26.5q0 14 -9 22.5t-25 8.5q-15 0 -23 -3v7q0 20 12.5 34t35.5 14q36 0 56.5 -23.5t20.5 -65.5q0 -50 -34.5 -80t-99.5 -30q-71 0 -110.5 33z" />
    <glyph glyph-name="uni0E42" unicode="&#xe42;" horiz-adv-x="384" 
d="M126 31q-42 38 -42 106v533q0 40 -9.5 60.5t-28.5 28.5t-54 11q-19 32 -19 76q0 60 37.5 97.5t96.5 37.5q29 0 92 -9q8 -1 31 -4t41 -3q62 0 90 20q20 -36 20 -69q0 -26 -21.5 -44.5t-66.5 -18.5q-24 0 -45.5 5t-56.5 15q-18 5 -35 9.5t-29 4.5q-17 0 -26.5 -9t-9.5 -20
t2 -17q28 -3 59 -20t54 -54.5t23 -96.5v-547q0 -20 9.5 -32t27.5 -12q16 0 25 9.5t9 26.5q0 14 -9 22.5t-25 8.5q-15 0 -23 -3v7q0 18 12.5 32t35.5 14q37 0 60 -23.5t23 -64.5q0 -51 -35 -83t-101 -32q-70 0 -112 38z" />
    <glyph glyph-name="uni0E43" unicode="&#xe43;" horiz-adv-x="394" 
d="M136 31q-42 38 -42 106v329q0 67 22 112t63 96q30 36 44 61.5t14 57.5q0 88 -83 88q-36 0 -56.5 -18t-20.5 -49q0 -23 10 -34.5t26 -11.5q13 0 20 8t7 18q0 26 -27 36q4 9 12 14.5t19 5.5q24 0 40 -16.5t16 -47.5q0 -42 -29 -70t-76 -28q-60 0 -93.5 32t-33.5 91
q0 46 26.5 82.5t71 57t96.5 20.5q56 0 101 -22.5t70.5 -62.5t25.5 -92q0 -44 -14 -76.5t-43 -77.5q-31 -48 -47 -86t-16 -91v-340q0 -20 9.5 -32t27.5 -12q16 0 25 9.5t9 26.5q0 14 -9 22.5t-25 8.5q-15 0 -23 -3v7q0 18 12.5 32t35.5 14q37 0 60 -23.5t23 -64.5
q0 -51 -35 -83t-101 -32q-70 0 -112 38z" />
    <glyph glyph-name="uni0E44" unicode="&#xe44;" horiz-adv-x="394" 
d="M361 172.5q23 -23.5 23 -64.5q0 -51 -35 -83t-101 -32q-70 0 -112 38t-42 106v440q0 82 22.5 136.5t63.5 95.5q-25 -5 -46 -5q-158 0 -158 93q0 28 15.5 47t43.5 23q22 -27 51.5 -38t79.5 -11q43 0 70.5 8.5t55.5 23.5q21 13 33 13q15 0 22 -14l35 -71q-55 -41 -85 -78
t-44 -87.5t-14 -128.5v-461q0 -20 9.5 -32t27.5 -12q16 0 25 9.5t9 26.5q0 14 -9 22.5t-25 8.5q-15 0 -23 -3v7q0 18 12.5 32t35.5 14q37 0 60 -23.5z" />
    <glyph glyph-name="uni0E45" unicode="&#xe45;" horiz-adv-x="476" 
d="M281 402q0 81 -75 81q-28 0 -48 -9.5t-36.5 -21.5t-21.5 -16q-11 -8 -19.5 -12t-20.5 -4q-16 0 -33 27t-24 60q39 31 94 55t121 24q101 0 154.5 -48t53.5 -139v-619h-145v622z" />
    <glyph glyph-name="uni0E46" unicode="&#xe46;" horiz-adv-x="535" 
d="M340 421q0 40 -6.5 54.5t-25.5 14.5q-15 0 -27 -9.5t-29 -31.5h-6q-17 23 -31 33.5t-34 10.5q-28 0 -40 -25t-12 -80q0 -37 13 -58.5t38 -21.5q15 0 24 9.5t9 24.5t-10 23t-25 8t-28 -5q-2 8 -2 11q0 17 17 30.5t42 13.5q34 0 55 -22t21 -62q0 -47 -32.5 -75t-85.5 -28
q-72 0 -111 39.5t-39 118.5q0 83 36.5 132.5t108.5 49.5q32 0 52 -13.5t39 -38.5q36 52 106 52q61 0 94.5 -29.5t33.5 -87.5v-659h-145v621z" />
    <glyph glyph-name="uni0E47" unicode="&#xe47;" 
d="M-514 685q-34 36 -34 99q0 75 48.5 109t125.5 34q16 0 62 -2l60 -1q39 0 59.5 11.5t27.5 44.5q27 0 47 -15t20 -45q0 -35 -28.5 -55.5t-81.5 -20.5l-67 2l-67 1q-44 0 -65 -16t-21 -51q0 -29 13.5 -42.5t34.5 -13.5q20 0 32.5 11t30.5 40q17 -34 40 -51t57 -17
q29 0 44 14.5t15 39.5q0 14 -7.5 22t-21.5 8t-21.5 -7.5t-7.5 -18.5q0 -19 18 -27q-6 -14 -25 -14q-16 0 -26.5 11.5t-10.5 32.5q0 26 21.5 46t54.5 20q39 0 62.5 -22.5t23.5 -61.5q0 -44 -34 -72.5t-84 -28.5q-70 0 -103 38q-28 -38 -96 -38q-62 0 -96 36z" />
    <glyph glyph-name="uni0E48" unicode="&#xe48;" 
d="M-189.5 723.5q-7.5 40.5 -7.5 89.5v58h130v-58q0 -49 -12 -111l-4 -27h-98q-1 8 -8.5 48.5z" />
    <glyph glyph-name="uni0E49" unicode="&#xe49;" 
d="M-6.5 880q28.5 -13 28.5 -51q0 -54 -40 -92.5t-105 -58t-138 -19.5q-117 0 -117 37q0 15 6 27q12 -3 35 -3q38 0 59.5 23.5t21.5 65.5q0 18 -8 27.5t-22 9.5q-13 0 -20.5 -7.5t-7.5 -19.5q0 -28 35 -28q0 -16 -9.5 -25t-26.5 -9q-26 0 -42.5 17t-16.5 47q0 34 26.5 57
t62.5 23q41 0 68.5 -24t27.5 -68q0 -64 -47 -96q69 7 106.5 49t44.5 131q50 0 78.5 -13z" />
    <glyph glyph-name="uni0E4A" unicode="&#xe4a;" 
d="M37 848q0 -84 -53.5 -132.5t-154.5 -48.5q-19 0 -40.5 1.5t-27.5 3.5q23 59 23 105q0 62 -40 62q-15 0 -30 -6.5t-25 -17.5q-12 12 -28.5 18.5t-32.5 6.5q-25 0 -39 -17.5t-14 -48.5q0 -25 9 -39t25 -14q26 0 26 27q0 24 -24 24q-4 0 -14 -4q-3 5 -3 12q0 11 10 17t27 6
q32 0 48 -18t16 -50q0 -36 -26 -55t-71 -19q-59 0 -90 30t-31 89q0 54 34 90t90 36q60 0 88 -32q12 14 33 22.5t48 8.5q48 0 80 -31t32 -78q0 -25 -5 -41q41 35 41 147h52q67 0 67 -54z" />
    <glyph glyph-name="uni0E4B" unicode="&#xe4b;" 
d="M-195 755h-95v82h95v80h124v-80h95v-82h-95v-80h-124v80z" />
    <glyph glyph-name="uni0E4C" unicode="&#xe4c;" 
d="M-270 677.5q-29 23.5 -29 63.5q0 73 83 110q36 16 52 28t21 27t5 44h60q58 0 58 -44q0 -30 -22.5 -50t-52 -31t-89.5 -29q-43 -13 -43 -54q0 -15 9.5 -25t27.5 -10q16 0 25.5 8.5t9.5 23.5q0 23 -21 31q4 7 13.5 12t21.5 5q20 0 33 -14.5t13 -38.5q0 -37 -27.5 -58.5
t-70.5 -21.5q-48 0 -77 23.5z" />
    <glyph glyph-name="uni0E4D" unicode="&#xe4d;" 
d="M-236 677.5q-36 34.5 -36 88.5q0 53 36 87.5t92 34.5t92 -34.5t36 -87.5q0 -54 -36 -88.5t-92 -34.5t-92 34.5zM-107.5 730q14.5 14 14.5 36t-14 35.5t-37 13.5t-37 -13.5t-14 -35.5t14.5 -36t36.5 -14t36.5 14z" />
    <glyph glyph-name="uni0E4E" unicode="&#xe4e;" 
d="M-7 945q0 -12 -5.5 -28.5t-16.5 -21.5q-22 8 -64 8q-65 0 -65 -15q0 -9 16.5 -12.5t59.5 -3.5q8 0 8 -14q0 -17 -10.5 -36.5t-25.5 -19.5l-31 1q-30 0 -50 -18t-20 -42q0 -35 34 -35q13 0 21 8.5t8 20.5q0 23 -25 29q1 9 9.5 14.5t22.5 5.5q21 0 36.5 -14t15.5 -40
q0 -35 -25 -56.5t-74 -21.5q-47 0 -75 23t-28 61q0 37 21 63t53 36q-17 7 -27.5 20t-10.5 31q0 48 47.5 76t109.5 28q91 0 91 -47z" />
    <glyph glyph-name="uni0E4F" unicode="&#xe4f;" horiz-adv-x="700" 
d="M200.5 54.5q-67.5 38.5 -106.5 104.5t-39 145q0 80 39 147t106.5 105.5t149.5 38.5t149.5 -38.5t106.5 -105.5t39 -147q0 -79 -39.5 -145t-107 -104.5t-148.5 -38.5q-82 0 -149.5 38.5zM445 142q43 25 67.5 68t24.5 94q0 52 -24.5 95.5t-67.5 69t-95 25.5t-95 -25.5
t-67.5 -69t-24.5 -95.5q0 -51 24.5 -94t67.5 -68t95 -25t95 25zM266.5 225.5q-32.5 32.5 -32.5 82.5t32.5 82.5t84.5 32.5t85 -32.5t33 -82.5t-33 -82.5t-85 -32.5t-84.5 32.5zM381 278q12 12 12 30t-12 30t-30 12t-29.5 -12t-11.5 -30t11.5 -30t29.5 -12t30 12z" />
    <glyph glyph-name="uni0E50" unicode="&#xe50;" horiz-adv-x="606" 
d="M167.5 16.5q-59.5 28.5 -93.5 83t-34 130.5t34 130.5t93.5 83t135.5 28.5t135.5 -28.5t93.5 -83t34 -130.5t-34 -130.5t-93.5 -83t-135.5 -28.5t-135.5 28.5zM392 124.5q28 36.5 28 105.5t-28 105.5t-89 36.5t-89 -36.5t-28 -105.5t28 -105.5t89 -36.5t89 36.5z" />
    <glyph glyph-name="uni0E51" unicode="&#xe51;" horiz-adv-x="606" 
d="M223 -40.5q-22 22.5 -23 70.5q111 4 171 46.5t60 143.5q0 144 -133 144q-61 0 -94 -33.5t-33 -87.5q0 -98 81 -98q31 0 48 17.5t17 42.5q0 33 -30 33q-14 0 -22 -8t-8 -21q0 -20 15 -32q-9 -7 -22 -7q-18 0 -31 13.5t-13 36.5q0 34 22.5 55t62.5 21q45 0 69 -23.5
t24 -69.5q0 -58 -42.5 -96.5t-123.5 -38.5q-48 0 -88 20t-65 63t-25 107q0 60 32 108t91 76t136 28q81 0 141 -30t93 -85.5t33 -128.5q0 -88 -35.5 -153.5t-98.5 -100.5t-143 -35q-44 0 -66 22.5z" />
    <glyph glyph-name="uni0E52" unicode="&#xe52;" horiz-adv-x="671" 
d="M592.5 449q38.5 -32 38.5 -88v-202q0 -168 -305 -168q-137 0 -211.5 46t-74.5 129v280q0 37 -10 57t-35 32q34 42 100 42q43 0 64 -30t21 -91v-261q0 -47 14 -71t44.5 -32.5t87.5 -8.5q61 0 95.5 8t52 32t17.5 73v150q0 31 -8 45t-25 14q-12 0 -22.5 -8t-24.5 -26h-4
q-12 20 -22 29t-26 9q-19 0 -32.5 -19.5t-13.5 -63.5q0 -49 12.5 -69t39.5 -20q15 0 24 9.5t9 24.5t-10 23t-25 8q-10 0 -23 -5q-3 8 -3 14q0 16 13 28.5t39 12.5q34 0 56.5 -22t22.5 -62q0 -47 -32.5 -75t-85.5 -28q-66 0 -105.5 40t-39.5 118q0 70 32.5 114.5t100.5 44.5
q26 0 42 -9t30 -27q16 18 35 26.5t52 8.5q57 0 95.5 -32z" />
    <glyph glyph-name="uni0E53" unicode="&#xe53;" horiz-adv-x="706" 
d="M566.5 434.5q38.5 -46.5 38.5 -143.5v-291h-142v291q0 41 -2.5 61t-10.5 28.5t-25 8.5q-25 0 -33.5 -19t-8.5 -70v-122h-120v122q0 51 -8.5 70t-33.5 19q-29 0 -37.5 -23.5t-8.5 -85.5v-102q0 -66 15 -95t43 -29q13 0 20 7.5t7 19.5q0 24 -20 24q-10 0 -26 -8
q-10 8 -10 23q0 19 13.5 30t36.5 11q32 0 51 -20.5t19 -55.5q0 -42 -29 -68.5t-92 -26.5q-75 0 -120 47.5t-45 138.5v84q0 109 44.5 165t128.5 56q42 0 70.5 -16t41.5 -38q11 23 40.5 38.5t80.5 15.5q84 0 122.5 -46.5z" />
    <glyph glyph-name="uni0E54" unicode="&#xe54;" horiz-adv-x="613" 
d="M579 51q0 -23 -9 -55q-34 11 -62 16t-64 5q-19 0 -42 -3t-46 -7q-43 -7 -71 -10t-63 -3q-90 0 -141 61t-51 175q0 128 60.5 188t181.5 60q10 0 88 -3l42 -2q33 0 49.5 23.5t18.5 79.5q47 0 72 -23t25 -57q0 -50 -42 -79.5t-112 -29.5q-23 0 -87 4l-41 2q-61 0 -86 -36.5
t-25 -116.5q0 -64 9.5 -97.5t28.5 -45t52 -11.5q26 0 54 5q-25 18 -41 46.5t-16 63.5q0 51 36 79.5t82 28.5q45 0 72.5 -22.5t27.5 -60.5q0 -35 -19 -54t-46 -19q-32 0 -39 30q21 0 32 8t11 27q0 15 -8.5 23t-24.5 8q-17 0 -27 -11.5t-10 -32.5q0 -100 157 -100q74 0 74 -54
z" />
    <glyph glyph-name="uni0E55" unicode="&#xe55;" horiz-adv-x="613" 
d="M579 51q0 -23 -9 -55q-34 11 -62 16t-64 5q-19 0 -42 -3t-46 -7q-43 -7 -71 -10t-63 -3q-90 0 -141 61t-51 175q0 65 25 103.5t63.5 57t101.5 35.5q-18 30 -18 71q0 39 34 67t85 28t84.5 -26t33.5 -62q0 -50 -27 -79q40 9 59 49t20 102q50 0 76.5 -17t26.5 -56
q0 -44 -25.5 -79.5t-72 -56t-106.5 -20.5q-61 0 -104 20q-58 -19 -85 -45.5t-27 -81.5q0 -88 21.5 -121t68.5 -33q26 0 54 5q-25 18 -41 46.5t-16 63.5q0 51 36 79.5t82 28.5q45 0 72.5 -22.5t27.5 -60.5q0 -35 -19 -54t-46 -19q-32 0 -39 30q21 0 32 8t11 27q0 15 -8.5 23
t-24.5 8q-17 0 -27 -11.5t-10 -32.5q0 -100 157 -100q74 0 74 -54zM296.5 517q-9.5 -9 -9.5 -24q0 -28 15 -43q28 9 38.5 19.5t10.5 26.5q0 13 -8.5 21.5t-21.5 8.5q-15 0 -24.5 -9z" />
    <glyph glyph-name="uni0E56" unicode="&#xe56;" horiz-adv-x="588" 
d="M496 405q61 -57 61 -182q0 -119 -71 -174.5t-185 -55.5q-93 0 -141 39t-48 103q0 50 31 79t78 29q44 0 68.5 -23t24.5 -60q0 -29 -16 -44.5t-35 -15.5q-11 0 -17 2.5t-14 8.5q12 8 18 16.5t6 21.5q0 36 -31 36q-16 0 -25 -11.5t-9 -32.5q0 -33 27.5 -53t73.5 -20
q120 0 120 155q0 81 -26 118t-81 37q-77 0 -96 -68h-95q-2 73 -28.5 122.5t-82.5 94.5q5 20 27 35t45 15q50 0 85.5 -48t46.5 -112q43 45 124 45q104 0 165 -57z" />
    <glyph glyph-name="uni0E57" unicode="&#xe57;" horiz-adv-x="754" 
d="M676 510.5q41 -65.5 41 -174.5q0 -94 -34.5 -165.5t-89 -115.5t-115.5 -60l-105 19q12 27 18.5 83.5t6.5 125.5q0 81 -12.5 113.5t-41.5 32.5q-18 0 -32.5 -12.5t-24.5 -37.5h-6q-20 50 -57 50q-26 0 -41 -36t-15 -108q0 -69 9.5 -105.5t25 -48t37.5 -11.5q15 0 24 9
t9 25q0 13 -8.5 21.5t-23.5 8.5q-18 0 -34 -12q-7 9 -7 18q0 17 15 31.5t40 14.5q37 0 59 -20.5t22 -61.5q0 -44 -33.5 -73.5t-92.5 -29.5q-84 0 -132 63.5t-48 170.5q0 73 25 127t64 82t80 28q30 0 53 -14.5t33 -39.5q12 25 36 39t57 14q71 0 111.5 -60t40.5 -178
q0 -65 -14 -107q38 30 58.5 86.5t20.5 133.5q0 71 -26 121.5t-70 80.5q6 18 23.5 28t43.5 10q69 0 110 -65.5z" />
    <glyph glyph-name="uni0E58" unicode="&#xe58;" horiz-adv-x="660" 
d="M572 252q33 -34 33 -102q0 -48 -22 -83.5t-59.5 -54t-82.5 -18.5q-43 0 -68 9t-40 19t-18 10q-4 0 -20 -11t-38 -19t-55 -8q-88 0 -130 56.5t-42 169.5q0 248 242 248q40 0 85 -3q56 -2 75 -2q33 0 54.5 29t23.5 84q56 0 86.5 -15t30.5 -55q0 -55 -42 -92t-122 -37
q-42 0 -152 5l-26 1q-56 2 -83.5 -33t-27.5 -120q0 -81 21.5 -112.5t68.5 -31.5h4q-28 36 -28 76q0 13 16 27t37.5 23t35.5 9q7 0 9.5 -5t2.5 -16q0 -61 21.5 -88t69.5 -27q40 0 59 23t19 56q0 26 -10 41.5t-27 15.5q-14 0 -23 -7t-9 -20t8 -22t21 -9q6 0 15 3
q0 -17 -11 -30t-34 -13q-29 0 -49 21t-20 54q0 38 27.5 63t80.5 25q60 0 93 -34z" />
    <glyph glyph-name="uni0E59" unicode="&#xe59;" horiz-adv-x="640" 
d="M428 282l130 -282h-132l-121 268q-27 59 -40.5 80t-29.5 21q-28 0 -47.5 -37t-19.5 -107q0 -69 9.5 -105.5t25 -48t37.5 -11.5q15 0 24 9t9 25q0 13 -8.5 21.5t-23.5 8.5q-18 0 -34 -12q-6 8 -6 18q0 18 15 32t39 14q36 0 58.5 -20.5t22.5 -61.5q0 -44 -33.5 -73.5
t-92.5 -29.5q-84 0 -132 63.5t-48 170.5q0 74 25.5 128t69.5 81.5t100 27.5q81 0 127 -46q22 46 77 46q43 0 66 -29q6 36 6 59q0 37 -20 67q19 17 58 17q28 0 47 -17.5t19 -54.5q0 -46 -17.5 -87t-43.5 -66t-48 -25q-19 0 -26 3.5t-11 13.5q-8 21 -16 30t-25 9
q-18 0 -29 -18q11 -20 39 -82z" />
    <glyph glyph-name="uni0E5A" unicode="&#xe5a;" horiz-adv-x="652" 
d="M424 561q0 -6 -1 -22t-1 -34v-505h-121l1 371q-43 -38 -114 -38q-68 0 -110.5 35.5t-42.5 100.5q0 50 32.5 81.5t83.5 31.5q46 0 71 -22.5t25 -57.5q0 -31 -17 -46.5t-40 -15.5q-16 0 -25 11q23 14 23 39q0 14 -8.5 22.5t-23.5 8.5t-24.5 -11.5t-9.5 -31.5
q0 -29 20.5 -46t60.5 -17q46 0 71.5 30t27.5 84l1 47h107q14 0 14 -15zM600 568q3 -8 3 -34v-534h-111l-3 576h92q16 0 19 -8z" />
    <glyph glyph-name="uni0E5B" unicode="&#xe5b;" horiz-adv-x="1192" 
d="M986 396q38 -46 58.5 -65t47.5 -28t76 -9v-16q-8 -14 -29.5 -23.5t-45.5 -9.5q-77 0 -119 58q-9 -39 -26.5 -76t-38.5 -57h-50q-6 51 -22 95t-36 77q-3 -54 -19.5 -106t-43.5 -93h-56q-8 44 -22.5 90t-29.5 81q-10 -149 -89.5 -222.5t-214.5 -73.5q-85 0 -147 32.5
t-95.5 93t-33.5 141.5q0 83 31.5 142.5t87.5 91t129 31.5q98 0 153.5 -50.5t55.5 -160.5q0 -46 -21.5 -82t-59 -56t-83.5 -20q-48 0 -79 28t-31 75q0 43 24 66t62 23q29 0 45 -16.5t16 -39.5q-18 8 -37 8q-39 0 -39 -37q0 -16 10 -26.5t27 -10.5q29 0 48 21t19 67
q0 65 -25.5 91.5t-78.5 26.5q-114 0 -114 -180q0 -79 38.5 -121.5t117.5 -42.5q58 0 105 29t74.5 88t27.5 144q0 64 -6 89h75q35 -24 63.5 -72.5t40.5 -105.5q15 64 15 157h58q67 -47 101 -149q18 60 18 129h47q10 -11 21 -26z" />
    <glyph glyph-name="uni1E0C" unicode="&#x1e0c;" horiz-adv-x="672" 
d="M486 658q77 -42 118 -120.5t41 -187.5q0 -105 -42.5 -184.5t-119.5 -122.5t-180 -43h-237v700h237q106 0 183 -42zM437 169.5q54 63.5 54 179.5q0 245 -208 245h-63v-488h63q100 0 154 63.5zM251 -152v15q0 78 78 78h14q78 0 78 -78v-15q0 -78 -78 -78h-14q-78 0 -78 78z
" />
    <glyph glyph-name="uni1E0D" unicode="&#x1e0d;" horiz-adv-x="598" 
d="M543.5 89.5q6.5 -36.5 26.5 -62.5q-28 -16 -59.5 -25t-59.5 -9q-23 0 -36.5 17t-20.5 53q-23 -36 -59 -54.5t-82 -18.5q-106 0 -164.5 74.5t-58.5 208.5q0 87 31 152t88 100t133 35q60 0 107 -26v257h148v-584q0 -81 6.5 -117.5zM389 163v273q-35 30 -91 30t-87 -50.5
t-31 -142.5q0 -96 24 -141.5t74 -45.5q70 0 111 77zM214 -152v15q0 78 78 78h14q78 0 78 -78v-15q0 -78 -78 -78h-14q-78 0 -78 78z" />
    <glyph glyph-name="uni1E0E" unicode="&#x1e0e;" horiz-adv-x="672" 
d="M486 658q77 -42 118 -120.5t41 -187.5q0 -105 -42.5 -184.5t-119.5 -122.5t-180 -43h-237v700h237q106 0 183 -42zM437 169.5q54 63.5 54 179.5q0 245 -208 245h-63v-488h63q100 0 154 63.5zM173 -70h326v-100h-326v100z" />
    <glyph glyph-name="uni1E0F" unicode="&#x1e0f;" horiz-adv-x="598" 
d="M543.5 89.5q6.5 -36.5 26.5 -62.5q-28 -16 -59.5 -25t-59.5 -9q-23 0 -36.5 17t-20.5 53q-23 -36 -59 -54.5t-82 -18.5q-106 0 -164.5 74.5t-58.5 208.5q0 87 31 152t88 100t133 35q60 0 107 -26v257h148v-584q0 -81 6.5 -117.5zM389 163v273q-35 30 -91 30t-87 -50.5
t-31 -142.5q0 -96 24 -141.5t74 -45.5q70 0 111 77zM136 -70h326v-100h-326v100z" />
    <glyph glyph-name="uni1E20" unicode="&#x1e20;" horiz-adv-x="686" 
d="M634 384v-311q-90 -83 -252 -83q-163 0 -246.5 91t-83.5 269q0 108 42 189.5t119 126t179 44.5q76 0 137 -18.5t102 -54.5q-8 -31 -30.5 -60t-37.5 -29q-7 0 -12.5 2t-15.5 8q-34 22 -69 32t-76 10q-88 0 -134 -64t-46 -186q0 -250 170 -250q72 0 102 22v156h-61
q-31 0 -44 23.5t-13 82.5h270zM214 854h326v-100h-326v100z" />
    <glyph glyph-name="uni1E21" unicode="&#x1e21;" horiz-adv-x="585" 
d="M492 84.5q64 -40.5 64 -115.5q0 -81 -72 -128.5t-195 -47.5q-124 0 -191.5 39.5t-67.5 112.5q0 94 134 107v3q-41 8 -63.5 28.5t-22.5 49.5q0 27 22 47.5t59 30.5q-49 25 -78 65t-29 88q0 94 64.5 145t181.5 51q59 0 108 -20q23 31 54.5 50t59.5 19q36 0 50.5 -25.5
t14.5 -88.5q-68 0 -99 -16q34 -45 34 -103q0 -92 -62.5 -142t-178.5 -50q-47 0 -64 -6.5t-17 -24.5q0 -13 8 -18.5t30.5 -7.5t72.5 -2q119 0 183 -40.5zM202 372q0 -47 20 -69.5t63 -22.5t63.5 22.5t20.5 69.5q0 48 -20.5 71t-63.5 23q-83 0 -83 -94zM382.5 -92
q32.5 19 32.5 55q0 70 -122 70q-112 0 -112 -70q0 -39 25.5 -56.5t82.5 -17.5q61 0 93.5 19zM130 744h326v-100h-326v100z" />
    <glyph glyph-name="uni1E24" unicode="&#x1e24;" horiz-adv-x="700" 
d="M634 700v-700h-154v300h-260v-300h-154v700h154v-290h260v290h154zM265 -152v15q0 78 78 78h14q78 0 78 -78v-15q0 -78 -78 -78h-14q-78 0 -78 78z" />
    <glyph glyph-name="uni1E25" unicode="&#x1e25;" horiz-adv-x="630" 
d="M507 516q42 -44 42 -120v-396h-148v379q0 40 -15 57.5t-49 17.5q-67 0 -138 -58v-396h-148v791h148v-308q38 35 90.5 56t103.5 21q72 0 114 -44zM230 -152v15q0 78 78 78h14q78 0 78 -78v-15q0 -78 -78 -78h-14q-78 0 -78 78z" />
    <glyph glyph-name="uni1E2A" unicode="&#x1e2a;" horiz-adv-x="700" 
d="M634 700v-700h-154v300h-260v-300h-154v700h154v-290h260v290h154zM255.5 -197.5q-39.5 14.5 -59.5 37.5t-20 49q0 29 23.5 45.5t62.5 16.5q2 -34 24.5 -53.5t62.5 -19.5q39 0 62 21.5t26 56.5q44 0 65 -16t21 -50q0 -28 -21 -51.5t-60.5 -37t-92.5 -13.5
q-54 0 -93.5 14.5z" />
    <glyph glyph-name="uni1E2B" unicode="&#x1e2b;" horiz-adv-x="630" 
d="M507 516q42 -44 42 -120v-396h-148v379q0 40 -15 57.5t-49 17.5q-67 0 -138 -58v-396h-148v791h148v-308q38 35 90.5 56t103.5 21q72 0 114 -44zM220.5 -197.5q-39.5 14.5 -59.5 37.5t-20 49q0 29 23.5 45.5t62.5 16.5q2 -34 24.5 -53.5t62.5 -19.5q39 0 62 21.5t26 56.5
q44 0 65 -16t21 -50q0 -28 -21 -51.5t-60.5 -37t-92.5 -13.5q-54 0 -93.5 14.5z" />
    <glyph glyph-name="uni1E36" unicode="&#x1e36;" horiz-adv-x="513" 
d="M498 106v-106h-412v700h154v-594h258zM207 -152v15q0 78 78 78h14q78 0 78 -78v-15q0 -78 -78 -78h-14q-78 0 -78 78z" />
    <glyph glyph-name="uni1E37" unicode="&#x1e37;" horiz-adv-x="268" 
d="M60 791h148v-791h-148v791zM49 -152v15q0 78 78 78h14q78 0 78 -78v-15q0 -78 -78 -78h-14q-78 0 -78 78z" />
    <glyph glyph-name="uni1E38" unicode="&#x1e38;" horiz-adv-x="513" 
d="M498 106v-106h-412v700h154v-594h258zM207 -152v15q0 78 78 78h14q78 0 78 -78v-15q0 -78 -78 -78h-14q-78 0 -78 78zM0 894h326v-100h-326v100z" />
    <glyph glyph-name="uni1E39" unicode="&#x1e39;" horiz-adv-x="268" 
d="M60 791h148v-791h-148v791zM49 -152v15q0 78 78 78h14q78 0 78 -78v-15q0 -78 -78 -78h-14q-78 0 -78 78zM-29 944h326v-100h-326v100z" />
    <glyph glyph-name="uni1E3A" unicode="&#x1e3a;" horiz-adv-x="513" 
d="M498 106v-106h-412v700h154v-594h258zM129 -70h326v-100h-326v100z" />
    <glyph glyph-name="uni1E3B" unicode="&#x1e3b;" horiz-adv-x="268" 
d="M60 791h148v-791h-148v791zM-29 -70h326v-100h-326v100z" />
    <glyph glyph-name="uni1E42" unicode="&#x1e42;" horiz-adv-x="846" 
d="M775 377.5q22 -159.5 21 -377.5h-156v40q0 174 -8 282.5t-29 217.5q-41 -116 -66 -203t-56 -227h-122q-28 138 -51.5 225t-64.5 203q-21 -112 -29.5 -226.5t-11.5 -311.5h-152q3 222 24.5 381t70.5 319h172q48 -130 68 -195.5t34 -141.5q18 76 39.5 142t70.5 195h172
q52 -163 74 -322.5zM340 -152v15q0 78 78 78h14q78 0 78 -78v-15q0 -78 -78 -78h-14q-78 0 -78 78z" />
    <glyph glyph-name="uni1E43" unicode="&#x1e43;" horiz-adv-x="912" 
d="M795.5 513.5q45.5 -46.5 45.5 -128.5v-385h-149v382q0 49 -13.5 66.5t-51.5 17.5q-57 0 -96 -50v-12v-404h-148v392q0 42 -11.5 58t-42.5 16q-54 0 -109 -65v-401h-148v353q0 142 -12 175q19 11 48 18.5t53 7.5q27 0 40.5 -15.5t17.5 -52.5q36 39 75 56.5t87 17.5
q46 0 80 -18.5t52 -53.5q56 72 158 72q79 0 124.5 -46.5zM371 -152v15q0 78 78 78h14q78 0 78 -78v-15q0 -78 -78 -78h-14q-78 0 -78 78z" />
    <glyph glyph-name="uni1E44" unicode="&#x1e44;" horiz-adv-x="700" 
d="M632 64q2 -28 2 -37q0 -27 -26 -27h-130v34q0 50 -39 111l-221 340v-485h-152v700h138q13 0 21.5 -3.5t16.5 -16.5l236 -359v379h152v-563q0 -31 2 -73zM264 839v15q0 78 78 78h14q78 0 78 -78v-15q0 -78 -78 -78h-14q-78 0 -78 78z" />
    <glyph glyph-name="uni1E45" unicode="&#x1e45;" horiz-adv-x="610" 
d="M544 63q4 -25 15 -46q-59 -22 -122 -22q-25 0 -35 24t-10 83v261q0 52 -15.5 72.5t-54.5 20.5q-52 0 -114 -51v-405h-148v370q0 67 -2.5 103t-9.5 58q74 23 121 23q21 0 30 -13.5t9 -44.5v-12q51 43 86.5 59.5t74.5 16.5q86 0 128.5 -46.5t42.5 -141.5v-234q0 -50 4 -75z
M220 729v15q0 78 78 78h14q78 0 78 -78v-15q0 -78 -78 -78h-14q-78 0 -78 78z" />
    <glyph glyph-name="uni1E46" unicode="&#x1e46;" horiz-adv-x="700" 
d="M632 64q2 -28 2 -37q0 -27 -26 -27h-130v34q0 50 -39 111l-221 340v-485h-152v700h138q13 0 21.5 -3.5t16.5 -16.5l236 -359v379h152v-563q0 -31 2 -73zM264 -152v15q0 78 78 78h14q78 0 78 -78v-15q0 -78 -78 -78h-14q-78 0 -78 78z" />
    <glyph glyph-name="uni1E47" unicode="&#x1e47;" horiz-adv-x="610" 
d="M544 63q4 -25 15 -46q-59 -22 -122 -22q-25 0 -35 24t-10 83v261q0 52 -15.5 72.5t-54.5 20.5q-52 0 -114 -51v-405h-148v370q0 67 -2.5 103t-9.5 58q74 23 121 23q21 0 30 -13.5t9 -44.5v-12q51 43 86.5 59.5t74.5 16.5q86 0 128.5 -46.5t42.5 -141.5v-234q0 -50 4 -75z
M220 -152v15q0 78 78 78h14q78 0 78 -78v-15q0 -78 -78 -78h-14q-78 0 -78 78z" />
    <glyph glyph-name="uni1E48" unicode="&#x1e48;" horiz-adv-x="700" 
d="M632 64q2 -28 2 -37q0 -27 -26 -27h-130v34q0 50 -39 111l-221 340v-485h-152v700h138q13 0 21.5 -3.5t16.5 -16.5l236 -359v379h152v-563q0 -31 2 -73zM186 -70h326v-100h-326v100z" />
    <glyph glyph-name="uni1E49" unicode="&#x1e49;" horiz-adv-x="610" 
d="M544 63q4 -25 15 -46q-59 -22 -122 -22q-25 0 -35 24t-10 83v261q0 52 -15.5 72.5t-54.5 20.5q-52 0 -114 -51v-405h-148v370q0 67 -2.5 103t-9.5 58q74 23 121 23q21 0 30 -13.5t9 -44.5v-12q51 43 86.5 59.5t74.5 16.5q86 0 128.5 -46.5t42.5 -141.5v-234q0 -50 4 -75z
M142 -70h326v-100h-326v100z" />
    <glyph glyph-name="uni1E5A" unicode="&#x1e5a;" horiz-adv-x="640" 
d="M615 13q-10 -9 -35 -15t-52 -6q-34 0 -52 9t-28 31l-74 166q-17 37 -36 50t-56 13h-52v-261h-154v700h238q134 0 206 -57t72 -163q0 -65 -31.5 -111.5t-91.5 -70.5q27 -28 45 -68zM304 369q70 0 101 26t31 85t-31 85.5t-101 26.5h-74v-223h74zM230 -152v15q0 78 78 78h14
q78 0 78 -78v-15q0 -78 -78 -78h-14q-78 0 -78 78z" />
    <glyph glyph-name="uni1E5B" unicode="&#x1e5b;" horiz-adv-x="440" 
d="M406 536.5q22 -20.5 22 -65.5q0 -17 -4.5 -33.5t-12.5 -25.5q-12 7 -27 10t-43 3q-65 0 -96.5 -40t-31.5 -122v-263h-148v550h148v-73q20 39 52 59.5t71 20.5q48 0 70 -20.5zM54 -152v15q0 78 78 78h14q78 0 78 -78v-15q0 -78 -78 -78h-14q-78 0 -78 78z" />
    <glyph glyph-name="uni1E5C" unicode="&#x1e5c;" horiz-adv-x="640" 
d="M615 13q-10 -9 -35 -15t-52 -6q-34 0 -52 9t-28 31l-74 166q-17 37 -36 50t-56 13h-52v-261h-154v700h238q134 0 206 -57t72 -163q0 -65 -31.5 -111.5t-91.5 -70.5q27 -28 45 -68zM304 369q70 0 101 26t31 85t-31 85.5t-101 26.5h-74v-223h74zM230 -152v15q0 78 78 78h14
q78 0 78 -78v-15q0 -78 -78 -78h-14q-78 0 -78 78zM150 854h326v-100h-326v100z" />
    <glyph glyph-name="uni1E5D" unicode="&#x1e5d;" horiz-adv-x="440" 
d="M406 536.5q22 -20.5 22 -65.5q0 -17 -4.5 -33.5t-12.5 -25.5q-12 7 -27 10t-43 3q-65 0 -96.5 -40t-31.5 -122v-263h-148v550h148v-73q20 39 52 59.5t71 20.5q48 0 70 -20.5zM54 -152v15q0 78 78 78h14q78 0 78 -78v-15q0 -78 -78 -78h-14q-78 0 -78 78zM57 744h326v-100
h-326v100z" />
    <glyph glyph-name="uni1E5E" unicode="&#x1e5e;" horiz-adv-x="640" 
d="M615 13q-10 -9 -35 -15t-52 -6q-34 0 -52 9t-28 31l-74 166q-17 37 -36 50t-56 13h-52v-261h-154v700h238q134 0 206 -57t72 -163q0 -65 -31.5 -111.5t-91.5 -70.5q27 -28 45 -68zM304 369q70 0 101 26t31 85t-31 85.5t-101 26.5h-74v-223h74zM152 -70h326v-100h-326v100
z" />
    <glyph glyph-name="uni1E5F" unicode="&#x1e5f;" horiz-adv-x="440" 
d="M406 536.5q22 -20.5 22 -65.5q0 -17 -4.5 -33.5t-12.5 -25.5q-12 7 -27 10t-43 3q-65 0 -96.5 -40t-31.5 -122v-263h-148v550h148v-73q20 39 52 59.5t71 20.5q48 0 70 -20.5zM-24 -70h326v-100h-326v100z" />
    <glyph glyph-name="uni1E60" unicode="&#x1e60;" horiz-adv-x="642" 
d="M139 32q-70 42 -70 115q0 35 29.5 55t83.5 21q6 -59 45.5 -91t106.5 -32q123 0 123 91q0 36 -33.5 59t-116.5 47q-118 33 -173 84.5t-55 132.5q0 91 70.5 143.5t192.5 52.5q98 0 168 -46.5t96 -129.5q-17 -17 -47 -30t-53 -13q-18 0 -28 7.5t-21 28.5q-20 39 -46 56
t-69 17q-107 0 -107 -71q0 -28 11 -45.5t38 -32t82 -32.5q100 -33 153 -60.5t74.5 -59.5t21.5 -79q0 -68 -35.5 -120t-99.5 -81t-148 -29q-123 0 -193 42zM236 839v15q0 78 78 78h14q78 0 78 -78v-15q0 -78 -78 -78h-14q-78 0 -78 78z" />
    <glyph glyph-name="uni1E61" unicode="&#x1e61;" horiz-adv-x="505" 
d="M90.5 20q-56.5 30 -56.5 77q0 28 19.5 47.5t56.5 21.5q21 -40 54.5 -60t84.5 -20q88 0 88 66q0 27 -25 41t-82 33q-58 19 -95.5 37t-64.5 52.5t-27 89.5q0 47 29.5 82.5t78 54t105.5 18.5q73 0 128 -28t86 -75q-13 -25 -35.5 -43.5t-40.5 -18.5q-10 0 -17 3.5t-14 11.5
q-45 56 -103 56q-38 0 -58.5 -14.5t-20.5 -43.5q0 -31 27.5 -47t86.5 -33q56 -15 92.5 -31.5t62 -49t25.5 -85.5q0 -83 -59.5 -127.5t-170.5 -44.5q-98 0 -154.5 30zM158 729v15q0 78 78 78h14q78 0 78 -78v-15q0 -78 -78 -78h-14q-78 0 -78 78z" />
    <glyph glyph-name="uni1E62" unicode="&#x1e62;" horiz-adv-x="642" 
d="M139 32q-70 42 -70 115q0 35 29.5 55t83.5 21q6 -59 45.5 -91t106.5 -32q123 0 123 91q0 36 -33.5 59t-116.5 47q-118 33 -173 84.5t-55 132.5q0 91 70.5 143.5t192.5 52.5q98 0 168 -46.5t96 -129.5q-17 -17 -47 -30t-53 -13q-18 0 -28 7.5t-21 28.5q-20 39 -46 56
t-69 17q-107 0 -107 -71q0 -28 11 -45.5t38 -32t82 -32.5q100 -33 153 -60.5t74.5 -59.5t21.5 -79q0 -68 -35.5 -120t-99.5 -81t-148 -29q-123 0 -193 42zM246 -152v15q0 78 78 78h14q78 0 78 -78v-15q0 -78 -78 -78h-14q-78 0 -78 78z" />
    <glyph glyph-name="uni1E63" unicode="&#x1e63;" horiz-adv-x="505" 
d="M90.5 20q-56.5 30 -56.5 77q0 28 19.5 47.5t56.5 21.5q21 -40 54.5 -60t84.5 -20q88 0 88 66q0 27 -25 41t-82 33q-58 19 -95.5 37t-64.5 52.5t-27 89.5q0 47 29.5 82.5t78 54t105.5 18.5q73 0 128 -28t86 -75q-13 -25 -35.5 -43.5t-40.5 -18.5q-10 0 -17 3.5t-14 11.5
q-45 56 -103 56q-38 0 -58.5 -14.5t-20.5 -43.5q0 -31 27.5 -47t86.5 -33q56 -15 92.5 -31.5t62 -49t25.5 -85.5q0 -83 -59.5 -127.5t-170.5 -44.5q-98 0 -154.5 30zM158 -152v15q0 78 78 78h14q78 0 78 -78v-15q0 -78 -78 -78h-14q-78 0 -78 78z" />
    <glyph glyph-name="uni1E6C" unicode="&#x1e6c;" horiz-adv-x="534" 
d="M523 656q0 -34 -11 -50t-35 -16h-134v-590h-152v590h-176v110h504q4 -24 4 -44zM183 -152v15q0 78 78 78h14q78 0 78 -78v-15q0 -78 -78 -78h-14q-78 0 -78 78z" />
    <glyph glyph-name="uni1E6D" unicode="&#x1e6d;" horiz-adv-x="405" 
d="M389 84q6 -10 6 -24q0 -21 -13 -34q-16 -16 -52.5 -26t-80.5 -10q-69 0 -111 38.5t-42 102.5v325h-84v94h84v150h148v-150h104v-94h-104v-312q0 -35 11.5 -49.5t40.5 -14.5q32 0 76 17q11 -3 17 -13zM164 -152v15q0 78 78 78h14q78 0 78 -78v-15q0 -78 -78 -78h-14
q-78 0 -78 78z" />
    <glyph glyph-name="uni1E6E" unicode="&#x1e6e;" horiz-adv-x="534" 
d="M523 656q0 -34 -11 -50t-35 -16h-134v-590h-152v590h-176v110h504q4 -24 4 -44zM105 -70h326v-100h-326v100z" />
    <glyph glyph-name="uni1E6F" unicode="&#x1e6f;" horiz-adv-x="405" 
d="M389 84q6 -10 6 -24q0 -21 -13 -34q-16 -16 -52.5 -26t-80.5 -10q-69 0 -111 38.5t-42 102.5v325h-84v94h84v150h148v-150h104v-94h-104v-312q0 -35 11.5 -49.5t40.5 -14.5q32 0 76 17q11 -3 17 -13zM86 -70h326v-100h-326v100z" />
    <glyph glyph-name="Wgrave" unicode="&#x1e80;" horiz-adv-x="896" 
d="M881 700q-24 -224 -60 -387t-95 -313h-162q-47 140 -70.5 228t-40.5 191q-19 -112 -43 -201.5t-68 -217.5h-162q-61 147 -99 309.5t-66 390.5h152q21 -206 40 -314.5t54 -229.5q41 125 65 226.5t64 317.5h122q48 -231 72 -329.5t61 -213.5q34 119 51 227t37 316h148z
M295 893h163l61 -151h-106z" />
    <glyph glyph-name="wgrave" unicode="&#x1e81;" horiz-adv-x="800" 
d="M780 550q-7 -154 -41.5 -290t-105.5 -260h-105q-82 132 -120 289q-40 -159 -122 -289h-105q-74 123 -112 259t-49 291h150q10 -131 24 -218t52 -170q79 175 100 388h126q23 -216 104 -391q25 58 38.5 123t17.5 121.5t8 146.5h140zM251 773h163l61 -151h-106z" />
    <glyph glyph-name="Wacute" unicode="&#x1e82;" horiz-adv-x="896" 
d="M881 700q-24 -224 -60 -387t-95 -313h-162q-47 140 -70.5 228t-40.5 191q-19 -112 -43 -201.5t-68 -217.5h-162q-61 147 -99 309.5t-66 390.5h152q21 -206 40 -314.5t54 -229.5q41 125 65 226.5t64 317.5h122q48 -231 72 -329.5t61 -213.5q34 119 51 227t37 316h148z
M460 893h165l-111 -151h-126z" />
    <glyph glyph-name="wacute" unicode="&#x1e83;" horiz-adv-x="800" 
d="M780 550q-7 -154 -41.5 -290t-105.5 -260h-105q-82 132 -120 289q-40 -159 -122 -289h-105q-74 123 -112 259t-49 291h150q10 -131 24 -218t52 -170q79 175 100 388h126q23 -216 104 -391q25 58 38.5 123t17.5 121.5t8 146.5h140zM416 773h165l-111 -151h-126z" />
    <glyph glyph-name="Wdieresis" unicode="&#x1e84;" horiz-adv-x="896" 
d="M881 700q-24 -224 -60 -387t-95 -313h-162q-47 140 -70.5 228t-40.5 191q-19 -112 -43 -201.5t-68 -217.5h-162q-61 147 -99 309.5t-66 390.5h152q21 -206 40 -314.5t54 -229.5q41 125 65 226.5t64 317.5h122q48 -231 72 -329.5t61 -213.5q34 119 51 227t37 316h148z
M283 825v13q0 65 65 65h12q65 0 65 -65v-13q0 -65 -65 -65h-12q-65 0 -65 65zM483 825v13q0 65 65 65h12q65 0 65 -65v-13q0 -65 -65 -65h-12q-65 0 -65 65z" />
    <glyph glyph-name="wdieresis" unicode="&#x1e85;" horiz-adv-x="800" 
d="M780 550q-7 -154 -41.5 -290t-105.5 -260h-105q-82 132 -120 289q-40 -159 -122 -289h-105q-74 123 -112 259t-49 291h150q10 -131 24 -218t52 -170q79 175 100 388h126q23 -216 104 -391q25 58 38.5 123t17.5 121.5t8 146.5h140zM239 705v13q0 65 65 65h12q65 0 65 -65
v-13q0 -65 -65 -65h-12q-65 0 -65 65zM439 705v13q0 65 65 65h12q65 0 65 -65v-13q0 -65 -65 -65h-12q-65 0 -65 65z" />
    <glyph glyph-name="uni1E8E" unicode="&#x1e8e;" horiz-adv-x="590" 
d="M580 700l-209 -406v-294h-152v294l-209 406h158l128 -270l127 270h157zM210 839v15q0 78 78 78h14q78 0 78 -78v-15q0 -78 -78 -78h-14q-78 0 -78 78z" />
    <glyph glyph-name="uni1E8F" unicode="&#x1e8f;" horiz-adv-x="535" 
d="M539 550l-213 -592q-34 -94 -81 -133t-127 -39q-50 0 -81 20t-31 52q0 17 6 30.5t21 31.5q25 -17 61 -17q38 0 59.5 22.5t41.5 83.5l-196 541h152l119 -368l117 368h152zM183 729v15q0 78 78 78h14q78 0 78 -78v-15q0 -78 -78 -78h-14q-78 0 -78 78z" />
    <glyph glyph-name="uni1E92" unicode="&#x1e92;" horiz-adv-x="580" 
d="M538 100v-100h-494v100l322 500h-324v100h488v-104l-316 -496h324zM195 -152v15q0 78 78 78h14q78 0 78 -78v-15q0 -78 -78 -78h-14q-78 0 -78 78z" />
    <glyph glyph-name="uni1E93" unicode="&#x1e93;" horiz-adv-x="520" 
d="M490 98v-98h-460v88l289 364h-263v98h426v-87l-298 -365h306zM175 -152v15q0 78 78 78h14q78 0 78 -78v-15q0 -78 -78 -78h-14q-78 0 -78 78z" />
    <glyph glyph-name="uni1E97" unicode="&#x1e97;" horiz-adv-x="405" 
d="M389 84q6 -10 6 -24q0 -21 -13 -34q-16 -16 -52.5 -26t-80.5 -10q-69 0 -111 38.5t-42 102.5v325h-84v94h84v150h148v-150h104v-94h-104v-312q0 -35 11.5 -49.5t40.5 -14.5q32 0 76 17q11 -3 17 -13zM0 815v13q0 65 65 65h12q65 0 65 -65v-13q0 -65 -65 -65h-12
q-65 0 -65 65zM200 815v13q0 65 65 65h12q65 0 65 -65v-13q0 -65 -65 -65h-12q-65 0 -65 65z" />
    <glyph glyph-name="uni1E9E" unicode="&#x1e9e;" horiz-adv-x="730" 
d="M626.5 321.5q49.5 -44.5 49.5 -127.5q0 -97 -66 -150.5t-172 -53.5q-47 0 -93 13t-74 38q-19 18 -19 46q0 21 12 37t33 18q24 -24 56.5 -37t68.5 -13q46 0 73 26.5t27 74.5q0 57 -27 80t-81 23q-40 0 -64 20t-24 52l143 172q-21 29 -48.5 47.5t-75.5 18.5
q-62 0 -95.5 -36.5t-33.5 -110.5v-459h-152v459q0 75 36 131.5t100.5 87t147.5 30.5q79 0 139 -24.5t96.5 -65t47.5 -89.5l-132 -147q78 -16 127.5 -60.5z" />
    <glyph glyph-name="uni1EA0" unicode="&#x1ea0;" horiz-adv-x="660" 
d="M466 173h-272q-14 -66 -29 -173h-150q38 363 238 700h155q199 -335 237 -700h-150q-15 107 -29 173zM442 283q-42 165 -112 303q-70 -138 -112 -303h224zM245 -152v15q0 78 78 78h14q78 0 78 -78v-15q0 -78 -78 -78h-14q-78 0 -78 78z" />
    <glyph glyph-name="uni1EA1" unicode="&#x1ea1;" horiz-adv-x="568" 
d="M512.5 89q6.5 -36 26.5 -62q-21 -15 -54 -24.5t-60 -9.5q-25 0 -40 18t-22 57q-27 -42 -64 -60t-96 -18q-73 0 -118 39.5t-45 103.5q0 90 75.5 134.5t242.5 53.5v52q0 41 -21.5 61t-65.5 20q-32 0 -63.5 -12.5t-77.5 -43.5q-5 -4 -14 -4q-18 0 -38.5 24t-36.5 63
q39 34 109.5 56.5t139.5 22.5q104 0 160 -48.5t56 -138.5v-166q0 -82 6.5 -118zM310.5 107q25.5 21 47.5 65v74q-83 -3 -125.5 -27.5t-42.5 -69.5q0 -29 18 -46t47 -17q30 0 55.5 21zM194 -152v15q0 78 78 78h14q78 0 78 -78v-15q0 -78 -78 -78h-14q-78 0 -78 78z" />
    <glyph glyph-name="uni1EA2" unicode="&#x1ea2;" horiz-adv-x="660" 
d="M466 173h-272q-14 -66 -29 -173h-150q38 363 238 700h155q199 -335 237 -700h-150q-15 107 -29 173zM442 283q-42 165 -112 303q-70 -138 -112 -303h224zM316 738q-13 12 -13 24q48 24 48 75q0 17 -6 25t-20 8q-16 0 -23 -11t-9 -35q-70 0 -70 52q0 31 29 53.5t77 22.5
q54 0 84.5 -23t30.5 -66q0 -51 -26 -86.5t-71 -51.5q-18 1 -31 13z" />
    <glyph glyph-name="uni1EA3" unicode="&#x1ea3;" horiz-adv-x="568" 
d="M512.5 89q6.5 -36 26.5 -62q-21 -15 -54 -24.5t-60 -9.5q-25 0 -40 18t-22 57q-27 -42 -64 -60t-96 -18q-73 0 -118 39.5t-45 103.5q0 90 75.5 134.5t242.5 53.5v52q0 41 -21.5 61t-65.5 20q-32 0 -63.5 -12.5t-77.5 -43.5q-5 -4 -14 -4q-18 0 -38.5 24t-36.5 63
q39 34 109.5 56.5t139.5 22.5q104 0 160 -48.5t56 -138.5v-166q0 -82 6.5 -118zM310.5 107q25.5 21 47.5 65v74q-83 -3 -125.5 -27.5t-42.5 -69.5q0 -29 18 -46t47 -17q30 0 55.5 21zM263 628q-13 12 -13 24q48 24 48 75q0 17 -6 25t-20 8q-16 0 -23 -11t-9 -35
q-70 0 -70 52q0 31 29 53.5t77 22.5q54 0 84.5 -23t30.5 -66q0 -51 -26 -86.5t-71 -51.5q-18 1 -31 13z" />
    <glyph glyph-name="uni1EA4" unicode="&#x1ea4;" horiz-adv-x="660" 
d="M466 173h-272q-14 -66 -29 -173h-150q38 363 238 700h155q199 -335 237 -700h-150q-15 107 -29 173zM442 283q-42 165 -112 303q-70 -138 -112 -303h224zM253 885h153l91 -153h-104l-63 83l-65 -83h-104zM543 999h165l-111 -151h-126z" />
    <glyph glyph-name="uni1EA5" unicode="&#x1ea5;" horiz-adv-x="568" 
d="M512.5 89q6.5 -36 26.5 -62q-21 -15 -54 -24.5t-60 -9.5q-25 0 -40 18t-22 57q-27 -42 -64 -60t-96 -18q-73 0 -118 39.5t-45 103.5q0 90 75.5 134.5t242.5 53.5v52q0 41 -21.5 61t-65.5 20q-32 0 -63.5 -12.5t-77.5 -43.5q-5 -4 -14 -4q-18 0 -38.5 24t-36.5 63
q39 34 109.5 56.5t139.5 22.5q104 0 160 -48.5t56 -138.5v-166q0 -82 6.5 -118zM310.5 107q25.5 21 47.5 65v74q-83 -3 -125.5 -27.5t-42.5 -69.5q0 -29 18 -46t47 -17q30 0 55.5 21zM200 775h153l91 -153h-104l-63 83l-65 -83h-104zM490 889h165l-111 -151h-126z" />
    <glyph glyph-name="uni1EA6" unicode="&#x1ea6;" horiz-adv-x="660" 
d="M466 173h-272q-14 -66 -29 -173h-150q38 363 238 700h155q199 -335 237 -700h-150q-15 107 -29 173zM442 283q-42 165 -112 303q-70 -138 -112 -303h224zM253 885h153l91 -153h-104l-63 83l-65 -83h-104zM343 1013h163l61 -151h-106z" />
    <glyph glyph-name="uni1EA7" unicode="&#x1ea7;" horiz-adv-x="568" 
d="M512.5 89q6.5 -36 26.5 -62q-21 -15 -54 -24.5t-60 -9.5q-25 0 -40 18t-22 57q-27 -42 -64 -60t-96 -18q-73 0 -118 39.5t-45 103.5q0 90 75.5 134.5t242.5 53.5v52q0 41 -21.5 61t-65.5 20q-32 0 -63.5 -12.5t-77.5 -43.5q-5 -4 -14 -4q-18 0 -38.5 24t-36.5 63
q39 34 109.5 56.5t139.5 22.5q104 0 160 -48.5t56 -138.5v-166q0 -82 6.5 -118zM310.5 107q25.5 21 47.5 65v74q-83 -3 -125.5 -27.5t-42.5 -69.5q0 -29 18 -46t47 -17q30 0 55.5 21zM200 775h153l91 -153h-104l-63 83l-65 -83h-104zM290 903h163l61 -151h-106z" />
    <glyph glyph-name="uni1EA8" unicode="&#x1ea8;" horiz-adv-x="660" 
d="M466 173h-272q-14 -66 -29 -173h-150q38 363 238 700h155q199 -335 237 -700h-150q-15 107 -29 173zM442 283q-42 165 -112 303q-70 -138 -112 -303h224zM253 885h153l91 -153h-104l-63 83l-65 -83h-104zM457 867q-13 12 -13 24q48 24 48 75q0 17 -6 25t-20 8
q-16 0 -23 -11t-9 -35q-70 0 -70 52q0 31 29 53.5t77 22.5q54 0 84.5 -23t30.5 -66q0 -51 -26 -86.5t-71 -51.5q-18 1 -31 13z" />
    <glyph glyph-name="uni1EA9" unicode="&#x1ea9;" horiz-adv-x="568" 
d="M512.5 89q6.5 -36 26.5 -62q-21 -15 -54 -24.5t-60 -9.5q-25 0 -40 18t-22 57q-27 -42 -64 -60t-96 -18q-73 0 -118 39.5t-45 103.5q0 90 75.5 134.5t242.5 53.5v52q0 41 -21.5 61t-65.5 20q-32 0 -63.5 -12.5t-77.5 -43.5q-5 -4 -14 -4q-18 0 -38.5 24t-36.5 63
q39 34 109.5 56.5t139.5 22.5q104 0 160 -48.5t56 -138.5v-166q0 -82 6.5 -118zM310.5 107q25.5 21 47.5 65v74q-83 -3 -125.5 -27.5t-42.5 -69.5q0 -29 18 -46t47 -17q30 0 55.5 21zM200 775h153l91 -153h-104l-63 83l-65 -83h-104zM404 757q-13 12 -13 24q48 24 48 75
q0 17 -6 25t-20 8q-16 0 -23 -11t-9 -35q-70 0 -70 52q0 31 29 53.5t77 22.5q54 0 84.5 -23t30.5 -66q0 -51 -26 -86.5t-71 -51.5q-18 1 -31 13z" />
    <glyph glyph-name="uni1EAA" unicode="&#x1eaa;" horiz-adv-x="660" 
d="M466 173h-272q-14 -66 -29 -173h-150q38 363 238 700h155q199 -335 237 -700h-150q-15 107 -29 173zM442 283q-42 165 -112 303q-70 -138 -112 -303h224zM253 885h153l91 -153h-104l-63 83l-65 -83h-104zM187.5 958.5q-17.5 17.5 -17.5 46.5q0 36 24.5 56t62.5 20
q22 0 38 -5t37 -14q15 -7 26 -11t24 -4q21 0 29 9.5t9 27.5q37 0 53.5 -13.5t16.5 -46.5q0 -31 -23 -56t-62 -25q-23 0 -39.5 5t-38.5 14q-16 7 -28 11t-26 4q-19 0 -28 -10t-9 -26q-31 0 -48.5 17.5z" />
    <glyph glyph-name="uni1EAB" unicode="&#x1eab;" horiz-adv-x="568" 
d="M512.5 89q6.5 -36 26.5 -62q-21 -15 -54 -24.5t-60 -9.5q-25 0 -40 18t-22 57q-27 -42 -64 -60t-96 -18q-73 0 -118 39.5t-45 103.5q0 90 75.5 134.5t242.5 53.5v52q0 41 -21.5 61t-65.5 20q-32 0 -63.5 -12.5t-77.5 -43.5q-5 -4 -14 -4q-18 0 -38.5 24t-36.5 63
q39 34 109.5 56.5t139.5 22.5q104 0 160 -48.5t56 -138.5v-166q0 -82 6.5 -118zM310.5 107q25.5 21 47.5 65v74q-83 -3 -125.5 -27.5t-42.5 -69.5q0 -29 18 -46t47 -17q30 0 55.5 21zM200 775h153l91 -153h-104l-63 83l-65 -83h-104zM134.5 848.5q-17.5 17.5 -17.5 46.5
q0 36 24.5 56t62.5 20q22 0 38 -5t37 -14q15 -7 26 -11t24 -4q21 0 29 9.5t9 27.5q37 0 53.5 -13.5t16.5 -46.5q0 -31 -23 -56t-62 -25q-23 0 -39.5 5t-38.5 14q-16 7 -28 11t-26 4q-19 0 -28 -10t-9 -26q-31 0 -48.5 17.5z" />
    <glyph glyph-name="uni1EAC" unicode="&#x1eac;" horiz-adv-x="660" 
d="M466 173h-272q-14 -66 -29 -173h-150q38 363 238 700h155q199 -335 237 -700h-150q-15 107 -29 173zM442 283q-42 165 -112 303q-70 -138 -112 -303h224zM245 -152v15q0 78 78 78h14q78 0 78 -78v-15q0 -78 -78 -78h-14q-78 0 -78 78zM254 885h153l91 -153h-104l-63 83
l-65 -83h-104z" />
    <glyph glyph-name="uni1EAD" unicode="&#x1ead;" horiz-adv-x="568" 
d="M512.5 89q6.5 -36 26.5 -62q-21 -15 -54 -24.5t-60 -9.5q-25 0 -40 18t-22 57q-27 -42 -64 -60t-96 -18q-73 0 -118 39.5t-45 103.5q0 90 75.5 134.5t242.5 53.5v52q0 41 -21.5 61t-65.5 20q-32 0 -63.5 -12.5t-77.5 -43.5q-5 -4 -14 -4q-18 0 -38.5 24t-36.5 63
q39 34 109.5 56.5t139.5 22.5q104 0 160 -48.5t56 -138.5v-166q0 -82 6.5 -118zM310.5 107q25.5 21 47.5 65v74q-83 -3 -125.5 -27.5t-42.5 -69.5q0 -29 18 -46t47 -17q30 0 55.5 21zM194 -152v15q0 78 78 78h14q78 0 78 -78v-15q0 -78 -78 -78h-14q-78 0 -78 78zM201 775
h153l91 -153h-104l-63 83l-65 -83h-104z" />
    <glyph glyph-name="uni1EAE" unicode="&#x1eae;" horiz-adv-x="660" 
d="M466 173h-272q-14 -66 -29 -173h-150q38 363 238 700h155q199 -335 237 -700h-150q-15 107 -29 173zM442 283q-42 165 -112 303q-70 -138 -112 -303h224zM237.5 745.5q-39.5 14.5 -59.5 37.5t-20 49q0 29 23.5 45.5t62.5 16.5q2 -34 24.5 -53.5t62.5 -19.5q39 0 62 21.5
t26 56.5q44 0 65 -16t21 -50q0 -28 -21 -51.5t-60.5 -37t-92.5 -13.5q-54 0 -93.5 14.5zM338 1052h165l-111 -151h-126z" />
    </font>
</defs>
</svg>
